<svg xmlns="http://www.w3.org/2000/svg" width="540.74" height="541.073" viewBox="0 0 540.74 541.073">
  <g id="n4rlE4KzoN" transform="translate(-3.074 560.883)" opacity="0.7">
    <path id="Path_118" data-name="Path 118" d="M254.219-560.659a67.286,67.286,0,0,1-11.03,1.348,161.277,161.277,0,0,0-18.138,2.574c-4.167.98-9.314,2.083-11.4,2.451-26.962,4.78-69,23.775-97.43,44-44.977,31.987-78.435,76.6-97.8,130.03C5.925-345.454.532-302.8,4.209-266.9,6.292-246.43,6.782-243.121,8.5-236.258c.98,3.677,1.961,8.456,2.329,10.417a93.388,93.388,0,0,0,3.064,10.785c1.348,3.8,2.206,6.986,1.961,6.986-1.226,0,7.843,22.182,15.319,37.379,28.923,58.7,73.778,101.965,132.971,128.437,11.275,5.025,28.923,11.643,33.58,12.5,1.1.245,5.025,1.226,8.7,2.329,3.677.98,8.089,2.083,9.8,2.451,1.716.245,8.089,1.471,14.094,2.7,15.564,3.186,69.856,3.309,85.175.245,5.76-1.226,12.378-2.451,14.706-2.819,6.74-1.1,32.109-8.824,41.913-12.746a284.633,284.633,0,0,0,64.709-36.031c11.03-8.211,37.011-33.09,46.938-44.977,14.461-17.28,33.947-51.228,43.016-74.881,3.186-8.334,11.152-35.173,12.255-41.178.245-1.961,1.471-8.946,2.7-15.687,1.593-9.069,2.083-19.118,2.083-39.217,0-25.736-.245-29.413-4.657-54.537-3.677-21.079-16.177-54.9-28.31-76.6-29.9-53.556-73.532-93.631-128.559-117.9-19.976-8.7-53.679-18.138-74.145-20.589C300.054-560.169,254.955-561.394,254.219-560.659Zm44.732,3.8c3.432.368,9.192,1.1,12.868,1.471,6.128.613,12.378,1.838,28.187,5.515,8.089,1.961,27.33,8.456,29.168,9.927.735.735,1.471.98,1.471.613,0-1.348,28.187,11.4,30.639,13.849.368.368,4.167,2.451,8.579,4.78,6.863,3.677,27.7,17.648,29.413,19.731.368.368,4.167,3.677,8.456,7.231,31.374,25.859,61.4,68.875,76.719,109.808,6.25,16.912,12.133,41.056,14.829,60.664,1.961,14.584,2.206,45.835.49,61.277-5.883,55.027-27.207,104.416-62.87,146.452-7.476,8.824-12.623,13.849-27.33,27.207-23.775,21.324-52.453,38.114-88.116,51.228a146.666,146.666,0,0,1-15.932,5.025c-4.044.98-8.211,1.961-9.192,2.329a258.571,258.571,0,0,1-44.732,6.74c-20.221,1.471-26.1,1.226-57.478-1.961-9.192-.98-35.786-7.721-50.37-12.868-16.667-5.76-32.232-13.236-51.473-24.511-19.118-11.275-49.267-37.624-63.728-55.64-2.7-3.432-5.27-6.373-5.637-6.74-3.922-3.432-22.672-33.457-28.555-45.958-19.854-41.791-27.575-75-27.7-119.245,0-19.364.613-27.33,3.064-43.139,5.392-34.315,16.667-64.831,35.663-96.7,15.319-25.736,40.811-54.169,65.444-73.165a270.463,270.463,0,0,1,28.187-18.628c9.559-5.27,27.207-13.971,33.09-16.3,6.128-2.328,25.491-9.192,26.962-9.437a11.927,11.927,0,0,0,2.451-.735c10.785-3.554,38.85-8.456,55.762-9.559C264.881-558.208,292.088-557.595,298.951-556.86Z" transform="translate(0 0)" fill="#2c5364"/>
    <path id="Path_119" data-name="Path 119" d="M246.246-549.291a356.726,356.726,0,0,0-48.164,9.069c-14.216,3.922-53.311,21.57-59.194,26.594a5.86,5.86,0,0,1-2.7,1.716c-1.348,0-15.932,10.172-25.736,18.015a236.224,236.224,0,0,0-36.889,36.521C58.86-439.36,57.512-437.4,46.728-418.771c-16.422,28.31-30.026,71.939-32.109,102.21-.858,13.481-.858,44.855,0,50.983,3.064,20.589,8.456,44.365,12.255,53.924.858,2.329,3.432,8.946,5.515,14.584,21.2,56.743,68.018,107.97,123.78,135.3,39.34,19.241,71.572,26.962,113.975,27.084,43.139.123,76.6-7.6,115.2-26.839,21.324-10.54,34.193-18.873,51.473-33.335,35.786-29.781,63.973-71.572,78.925-116.794,9.314-28.433,12.991-50.86,12.991-80.028,0-18.506-2.328-43.016-5.025-52.7a65.407,65.407,0,0,1-1.838-8.211c-.245-1.716-2.819-10.662-5.883-19.854a269.072,269.072,0,0,0-42.159-79.415c-10.172-13.113-32.6-35.663-43.752-43.874-4.657-3.431-9.192-6.863-10.049-7.6-10.54-8.824-55.272-31.619-65.934-33.58a32.218,32.218,0,0,1-5.515-1.838c-8.211-3.431-28.187-7.6-49.634-10.417C286.076-550.762,258.869-550.884,246.246-549.291Zm56.988,3.8c37.5,4.535,77.944,19.854,109.686,41.178,31.742,21.569,61.154,53.066,79.047,85.053,5.27,9.314,13.358,25.614,15.319,31.129,1.1,3.064,3.064,8.579,4.412,12.255,13.481,37.134,17.648,83.337,11.03,123.167C513.9-199.4,489.393-150.745,452.136-112.876c-8.456,8.7-26.839,23.775-38.237,31.5-12.378,8.211-36.276,21.2-45.958,24.878C346-48.29,330.93-44.123,311.2-40.569c-16.912,3.064-63.851,3.186-79.047.245-5.76-1.226-11.765-2.329-13.481-2.7-5.27-.858-23.653-5.883-28.187-7.476-23.653-8.824-40.811-17.28-58.7-28.8C55.429-128.808,10.206-220.478,17.56-311.169c4.167-52.331,22.182-98.411,54.659-140.079,15.2-19.486,41.546-43.016,64.341-57.478,20.467-12.868,57.355-28.187,77.577-32.109,1.471-.245,7.108-1.348,12.5-2.451,5.392-1.226,14.829-2.451,20.834-3.064C258.5-547.208,292.939-546.717,303.233-545.492Z" transform="translate(2.459 2.358)" fill="#2c5364"/>
    <path id="Path_120" data-name="Path 120" d="M246.353-523.3c-1.961.245-10.172,1.348-18.138,2.574l-14.461,2.206L201.621-494.5c-6.618,13.236-13.6,27.084-15.687,30.638-1.961,3.677-6.5,12.133-10.049,18.873-8.579,16.055-37.011,65.689-45.713,79.66-27.33,44-61.89,95.592-78.19,116.549l-5.883,7.6L50.022-228.8c2.206,6.863,4.289,12.255,4.657,12.133.49-.245,6.74-8.089,14.094-17.525C76-243.627,83.724-253.554,85.93-256.373c9.069-11.4,61.645-82.234,81.131-109.441,15.809-22.06,34.805-48.777,44.365-62.748,6.25-9.069,13.726-19.731,16.545-23.775,13.726-19.976,22.182-32.232,34.07-49.88l13.726-20.589C276.5-523.908,255.913-524.276,246.353-523.3Zm21.692,6.25c-3.309,5.392-18.506,27.82-28.8,42.649-5.147,7.353-14.829,21.447-21.57,31.251S201.5-419.86,196.842-413.119c-4.78,6.74-9.682,13.6-10.785,15.319-1.226,1.716-7.721,10.785-14.584,20.221-6.74,9.437-14.461,20.221-17.035,23.9-31.5,44.242-96.573,129.907-98.656,129.907-.858,0-5.515-14.094-5.515-16.545,0-.735,4.289-7.108,9.559-14.094,8.7-11.888,15.2-21.079,28.8-40.688,18.015-26.1,50.982-79.17,69.12-111.279,4.412-7.721,10.417-18.261,13.236-23.285,7.476-12.991,11.643-21.079,29.168-55.149,8.334-16.545,15.319-30.148,15.442-30.271a26.667,26.667,0,0,1,3.8-.858,13.553,13.553,0,0,0,3.677-.735c0-.98,23.9-3.309,35.786-3.554l11.4-.122Z" transform="translate(9.704 8.349)" fill="#2c5364"/>
    <path id="Path_121" data-name="Path 121" d="M164-497.515a7.026,7.026,0,0,0,2.206,2.083c1.838,1.593,1.961,1.471.368-.49S164-498.5,164-497.515Z" transform="translate(36.295 14.188)" fill="#2c5364"/>
    <path id="Path_122" data-name="Path 122" d="M365.124-482.124c-.245.49-2.206,5.883-4.289,12.01-3.554,10.295-16.3,47.306-22.918,66.057-1.716,4.657-4.657,13.236-6.618,19s-6.986,20.1-11.03,31.864c-4.167,11.765-8.334,23.653-9.192,26.349-.98,2.7-3.431,9.559-5.515,15.319-2.206,5.76-4.289,12.01-4.9,14.094-.49,1.961-2.7,8.334-4.78,14.094-4.044,10.785-11.03,30.761-17.28,49.022-1.961,5.76-5.025,14.216-6.74,19-1.716,4.657-3.677,9.927-4.167,11.643-.613,1.716-2.206,6.128-3.8,9.8-1.471,3.677-3.432,8.7-4.289,11.03-3.309,8.456-16.055,41.423-26.962,69.243C227.005-99.388,221-83.333,221-82.721c0,.245,2.941.368,6.5.368l6.373-.123,9.069-21.079c18.383-42.4,40.811-84.317,51.473-95.837,9.8-10.662,20.467-32.967,34.805-73.532,8.824-24.756,20.589-62.625,25.981-83.092.858-3.554,2.819-10.785,4.289-16.177,6.373-23.9,17.4-69.978,19-79.538.245-1.961,1.1-6.618,1.961-10.417l1.348-6.618-5.883-5.637C367.7-482.124,365.982-483.35,365.124-482.124Zm8.211,9.682c2.574,2.451,4.535,5.025,4.535,5.76,0,2.941-7.231,37.624-8.211,39.095a22.859,22.859,0,0,0-1.226,4.9c-1.716,11.888-20.344,81.866-29.413,110.544-10.662,33.947-21.079,62.5-30.393,83.337a152.275,152.275,0,0,1-19.609,31.619c-4.167,5.147-8.334,10.907-9.314,12.868-.858,1.838-2.941,5.392-4.534,7.966-5.392,8.946-20.712,39.462-28.923,57.846C230.927-84.191,231.785-86.03,228.721-86.03c-1.593,0-2.819-.368-2.819-.98,0-.49,4.78-12.991,10.54-27.82,25.859-66.3,37.869-97.676,40.933-107.235,1.226-3.677,5.025-14.706,8.579-24.511,11.03-31.006,13.6-38.482,15.932-45.345,1.226-3.677,4.535-13.113,7.353-20.834s5.76-16.3,6.74-19c1.961-6.128,9.8-28.433,11.4-32.477A29.7,29.7,0,0,0,328.6-367.9c0-.368,1.471-4.535,3.064-9.192,3.186-8.824,4.044-11.4,22.3-63.728,13.481-38.359,12.623-36.153,13.849-36.153C368.433-476.977,370.884-475.016,373.335-472.443Z" transform="translate(49.151 17.671)" fill="#2c5364"/>
    <path id="Path_123" data-name="Path 123" d="M119.717-464.187c-8.824,3.922-28.923,28.065-53.8,64.954-13.849,20.467-17.893,27.575-19.118,33.7-.368,1.716-.858,4.412-1.226,6.128-2.329,10.785-3.309,16.055-3.8,21.447-.858,7.6-1.838,37.869-1.348,37.256.245-.245,6.618-12.623,14.216-27.452,14.216-27.82,17.648-34.193,19.609-37.379,1.226-2.083,8.7-15.074,13.236-23.285,1.716-3.064,4.044-6.986,5.27-8.824a12.146,12.146,0,0,0,2.329-4.044,55,55,0,0,1,4.657-7.721c2.574-3.922,5.025-7.843,5.515-8.824s2.451-4.289,4.534-7.353c1.961-3.064,5.27-8.334,7.231-11.765a43.8,43.8,0,0,1,5.637-7.844c.98-.858,1.838-1.961,1.838-2.574,0-.49,1.348-3.064,3.064-5.515,3.677-5.392,3.922-9.8.735-11.52C125.232-466.393,124.741-466.271,119.717-464.187Zm7.843,3.064c.858,1.471-2.7,8.579-4.289,8.579a1.228,1.228,0,0,0-1.226,1.226c0,1.1-4.167,7.843-14.584,23.775-1.716,2.574-3.677,5.76-4.412,6.986-3.677,6.74-17.035,28.8-17.77,29.29a41.972,41.972,0,0,0-3.432,6.128c-1.471,3.064-3.677,7.108-4.9,9.192-10.172,17.525-13.236,23.285-24.266,44.732-8.211,16.055-8.456,16.422-8.824,11.765-.49-6.373,2.941-33.7,5.637-44.242,1.838-7.231,4.657-12.378,18.873-33.7,9.192-13.849,17.77-26.349,19.241-27.82s2.574-3.064,2.574-3.554c0-2.574,24.633-29.168,29.413-31.741C123.393-462.472,126.58-462.717,127.56-461.124Z" transform="translate(8.394 21.426)" fill="#2c5364"/>
    <path id="Path_124" data-name="Path 124" d="M279.035-433.179c-17.035,5.392-53.188,31.619-79.415,57.6-14.829,14.706-38.6,41.791-50.982,58.213-4.289,5.76-8.211,10.662-8.579,11.03s-3.432,4.412-6.74,9.192c-3.309,4.657-6.373,8.824-6.74,9.192-.613.49-14.829,21.324-19.609,28.678-17.158,26.594-18.506,28.8-31.619,51.228L69.1-197.263l4.412,6.74c2.451,3.677,4.78,6.74,5.27,6.74s1.471-1.226,2.206-2.819c2.574-4.9,32.722-49.634,37.747-56.007.858-.98,7.108-9.314,13.971-18.383s14.829-19.364,17.648-22.673c20.957-24.511,28.555-32.844,35.908-39.953,8.7-8.334,20.344-18.261,26.717-22.672,5.392-3.8,19.976-11.52,22.427-11.888a8.1,8.1,0,0,0,3.309-1.1c.735-.368,4.78-.49,9.069-.368,9.437.368,16.3,4.657,20.834,12.868,2.574,4.534,2.941,6.863,2.941,15.932a148.131,148.131,0,0,1-2.083,20.834c-.98,5.76-2.206,12.378-2.451,14.829a98.327,98.327,0,0,1-2.574,11.152c-.98,3.8-2.083,8.456-2.451,10.662-.368,3.677-3.677,16.055-7.476,28.433a79.036,79.036,0,0,0-2.329,8.456,67.093,67.093,0,0,1-2.451,8.579,72.447,72.447,0,0,0-2.329,8.089c-.613,2.574-3.554,11.152-7.108,20.712a68.985,68.985,0,0,0-2.7,8.824,69.318,69.318,0,0,1-3.064,8.334c-1.348,3.064-2.206,5.515-1.961,5.515.368,0-.735,3.064-2.451,6.74-1.593,3.677-2.7,6.74-2.328,6.74.245,0-.49,2.083-1.838,4.534a33.652,33.652,0,0,0-2.329,5.637,78.292,78.292,0,0,1-3.309,9.192c-8.456,20.712-11.03,27.084-14.216,34.56-1.838,4.289-3.186,8.211-2.941,8.7.49.735,11.152,3.186,17.158,4.044,1.838.245,2.819-.98,4.412-5.27,1.1-3.064,2.941-7.843,3.922-10.54,4.78-12.378,8.579-22.427,10.049-26.962.98-2.7,3.922-11.03,6.5-18.383,2.7-7.476,5.76-16.3,6.986-19.609,1.226-3.432,2.941-8.089,3.922-10.417a50.371,50.371,0,0,0,2.083-6.863,44.932,44.932,0,0,1,2.451-7.108,42.45,42.45,0,0,0,2.451-7.353c.49-2.451,1.348-4.9,7.231-21.57a91.58,91.58,0,0,0,2.819-9.559,80.5,80.5,0,0,1,2.941-8.824c1.348-3.432,2.206-6.128,1.838-6.128-.245,0,.858-4.044,2.574-8.946,1.593-4.78,2.941-8.946,2.941-9.192-.122-.368,3.186-12.5,5.638-20.957a80.313,80.313,0,0,0,2.451-9.8c.368-1.716,1.348-5.638,2.328-8.7s1.961-6.863,2.329-8.579c.98-4.657,1.716-8.456,3.677-17.158,5.883-26.349,7.353-38.482,7.476-61.277,0-17.158-.123-18.015-3.554-24.756C298.644-434.527,291.413-437.1,279.035-433.179Zm15.074,2.451c9.314,4.412,12.01,18.506,9.559,50.86-1.348,19.364-11.275,66.915-18.628,89.587-.98,3.064-1.838,6.373-2.083,7.353-.123.98-1.226,4.78-2.328,8.456-2.083,7.108-6.005,20.957-6.128,22.06-.123.368-6.128,18.261-13.358,39.83-7.353,21.57-13.481,40.075-13.849,41.056-.245.98-1.961,5.637-3.677,10.417-1.838,4.657-5.883,16.055-9.192,25.124-9.069,25.491-12.255,33.58-13.849,35.173-1.1,1.1-2.941,1.1-7.231.123-3.309-.735-5.883-1.838-5.883-2.329,0-2.083,5.147-14.094,6.863-15.932.98-1.1,1.471-2.206.98-2.574-.368-.368,2.083-7.476,5.515-15.81C232.1-165.4,244.107-198.611,249.867-218.1c1.838-6.373,3.922-11.888,4.412-12.01a.937.937,0,0,0,.49-1.348c-.368-.49.245-3.677,1.226-6.986,1.1-3.309,2.083-7.108,2.451-8.456,1.593-7.966,1.961-9.192,3.064-8.579.613.49.735,0,.368-.98s.613-5.76,1.961-10.785a116.346,116.346,0,0,0,3.064-12.746c.245-2.083,1.348-8.089,2.451-13.481,8.089-38.972,7.231-51.6-3.922-62.257-7.966-7.6-22.3-9.437-32.722-4.412a32.85,32.85,0,0,1-6.005,2.329c-2.329,0-17.648,10.417-27.207,18.506-9.927,8.334-33.58,32.354-40.443,41.056-1.961,2.574-5.637,6.863-8.089,9.559-13.481,15.564-39.34,50.37-58.581,79.17C85.4-199.1,79.395-190.277,79.149-189.909c-1.226,1.348-6.373-6.25-5.637-8.334.613-1.716,4.534-8.456,16.667-29.045,1.838-3.186,9.927-16.055,16.545-26.349,2.819-4.412,6.373-9.559,7.843-11.52a26.068,26.068,0,0,0,3.309-4.78c.735-1.838,5.392-8.579,19.731-27.7,7.108-9.559,14.094-19.118,15.687-21.2,1.593-2.206,5.76-7.353,9.314-11.4s10.662-12.378,15.687-18.383c14.952-17.893,48.286-49.022,63.483-59.439,1.471-.98,5.883-4.167,9.927-7.108,3.922-2.819,7.6-5.147,7.966-5.147.49,0,3.554-1.593,6.74-3.677,3.309-1.961,6.005-3.309,6.005-2.941s1.226-.245,2.7-1.226a10.763,10.763,0,0,1,5.515-1.961,5.024,5.024,0,0,0,3.309-.98C284.918-432.811,290.065-432.566,294.109-430.728Z" transform="translate(14.892 28.409)" fill="#2c5364"/>
    <path id="Path_125" data-name="Path 125" d="M399.985-429.117c-1.471,3.186-7.108,15.687-12.623,27.82-5.392,12.133-10.417,23.163-11.03,24.511-3.677,8.089-11.275,26.227-17.158,41.056-1.226,3.064-3.677,9.069-5.515,13.481-2.941,7.353-10.907,28.187-16.79,44.119-1.348,3.677-3.186,8.7-4.167,11.03-2.819,7.108-19.731,57.968-29.29,88.239-3.677,11.275-11.765,38.972-12.378,42.159a55.38,55.38,0,0,1-1.716,6.128c-.613,2.083-2.206,7.6-3.554,12.378-1.226,4.657-2.7,9.682-3.186,10.907-.858,2.083-.613,2.206,2.574,1.471,4.412-1.1,25.369-10.172,30.761-13.358,3.064-1.716,4.044-3.309,4.657-7.353,1.348-7.843,19-76.841,25.124-98.288,1.348-4.78,3.064-11.03,3.8-14.094s2.451-9.069,3.677-13.481c1.348-4.412,3.186-10.785,4.167-14.094,15.809-53.679,33.457-104.906,48.654-141.55l5.27-12.868-3.677-6.986c-1.961-3.922-3.922-7.108-4.289-7.108C402.926-434.877,401.456-432.3,399.985-429.117Zm6.005,5.515c1.348,2.819,1.593,4.78.735,6.128-1.961,3.554-18.261,44.977-22.673,57.846-22.918,65.934-40.565,126.476-59.806,204.665-3.8,15.442-7.231,29.168-7.6,30.516-.613,2.206-19.241,11.643-26.594,13.481-2.941.735-3.432.49-2.7-1.1.368-1.1,1.1-3.554,1.471-5.27,2.329-9.682,11.275-40.075,22.182-75,22.182-71.2,52.821-151.109,82.724-215.7,3.064-6.373,6.25-13.481,7.231-15.687.858-2.083,1.961-3.922,2.451-3.922C403.784-427.647,404.887-425.808,405.99-423.6Z" transform="translate(62.944 28.392)" fill="#2c5364"/>
    <path id="Path_126" data-name="Path 126" d="M407.507-358.177c-.368.49-1.225,4.289-2.083,8.334s-2.451,10.417-3.432,14.094a88.522,88.522,0,0,0-2.083,9.191c-.245,1.348-1.593,6.863-3.064,12.255s-3.8,13.971-5.147,19-3.432,12.746-4.657,17.158-3.186,11.52-4.412,15.932c-1.1,4.412-3.309,11.765-4.657,16.545a105.535,105.535,0,0,0-2.819,10.417,62.936,62.936,0,0,1-2.819,8.824c-1.348,3.922-2.206,7.108-1.961,7.108.368,0-.735,3.554-2.451,7.966-1.593,4.412-2.7,7.966-2.451,7.966.368,0-.858,3.677-2.451,8.211-1.716,4.534-2.941,8.946-2.819,9.927.49,2.329,17.648-20.344,26.594-35.418,3.677-6.128,14.706-28.065,14.216-28.065-.368,0,.123-1.471,1.1-3.432,2.083-3.922,7.721-20.712,8.7-25.614.368-1.838,1.716-7.6,2.941-12.623,1.716-6.986,2.206-12.746,1.838-23.9-.49-18.383-.98-23.04-4.289-34.683C408.488-359.158,408.243-359.771,407.507-358.177Zm3.309,19.609c.613,3.922,1.1,15.687,1.1,26.1,0,15.809-.368,20.834-2.7,30.026-5.515,22.06-17.893,50.737-28.065,65.2-1.593,2.083-2.819,4.167-2.819,4.657,0,.98-9.927,14.094-10.662,14.094-.368,0-.245-.98.245-2.206a100.977,100.977,0,0,0,2.941-10.049c1.226-4.412,3.677-12.746,5.515-18.751a120.41,120.41,0,0,0,3.186-12.378,5.893,5.893,0,0,1,1.593-3.432,7.566,7.566,0,0,0,1.716-4.044c0-3.554,1.1-7.966,3.309-14.584a37.207,37.207,0,0,0,1.961-7.476,48.2,48.2,0,0,1,2.451-8.824c1.961-5.76,17.158-64.341,17.158-66.179,0-.245.49-.245,1.1.123C409.346-345.922,410.326-342.49,410.816-338.569Z" transform="translate(80.545 45.568)" fill="#2c5364"/>
    <path id="Path_127" data-name="Path 127" d="M211.271-334.851c-7.6,3.8-25.981,20.957-37.869,35.3-4.535,5.515-8.456,10.172-8.824,10.54s-3.432,4.167-6.74,8.579-6.373,8.211-6.74,8.579c-1.593,1.226-37.5,52.453-48.777,69.611L90.8-184.722l7.721,7.231a86.666,86.666,0,0,0,8.579,7.353c.368,0,3.677-3.677,7.353-8.211,12.868-15.809,44-39.708,49.267-37.747,4.412,1.716,5.883,17.035,3.186,33.7-2.083,13.6-2.329,14.952-5.025,27.575-4.167,19.854-4.167,18.138.858,20.589,2.574,1.226,4.78,1.961,5.147,1.716.49-.613,4.535-11.03,7.231-18.628,2.7-8.089,6.25-17.77,10.295-28.8,10.907-29.781,31.742-95.592,33.7-106.867.368-1.716,1.716-8.089,3.186-13.971a120.635,120.635,0,0,0,2.7-22.182c.245-10.049,0-11.52-2.206-13.113C219.482-338.65,218.746-338.527,211.271-334.851Zm9.437,1.961c1.716,1.716,1.961,12.746.245,21.937-.613,3.677-1.471,8.211-1.838,10.294-.49,3.186-4.78,20.221-7.476,30.026-5.025,18.261-22.06,70.346-32.354,98.656-4.167,11.4-8.7,24.021-10.049,27.82-3.8,11.03-8.824,8.946-5.883-2.451.735-3.186,1.716-7.108,1.961-8.824.368-1.716,1.348-6.986,2.329-11.643,2.819-13.6,4.534-32.354,3.677-39.34-.735-6.618-4.9-12.746-8.456-12.746-7.721,0-33.335,19-48.286,35.908a102.268,102.268,0,0,1-7.721,7.966c-1.471.613-10.907-8.456-10.907-10.417,0-1.838,32.722-50.982,34.438-51.6a1.888,1.888,0,0,0,1.1-1.593c0-.98,12.5-18.751,17.525-25,.49-.735,4.044-5.392,7.966-10.54,26.962-35.786,49.757-57.968,61.645-59.806C218.992-334.361,219.849-333.748,220.707-332.89Z" transform="translate(19.786 50.306)" fill="#2c5364"/>
    <path id="Path_128" data-name="Path 128" d="M135.862-210.47c-2.329,1.471-7.966,7.476-12.623,13.236-7.231,8.946-8.211,10.662-6.618,11.765,1.1.613,6.373,4.044,11.643,7.6l9.682,6.25,1.838-5.025c4.044-11.765,6.128-21.079,6.128-28.187.123-7.231,0-7.6-2.941-7.966C141.254-212.921,138.068-211.818,135.862-210.47Zm7.108,7.231a31.668,31.668,0,0,1-1.1,8.824c-.613,1.593-1.961,6.005-3.064,9.8-1.226,3.922-2.574,7.108-3.309,7.108-1.593,0-15.687-8.946-15.809-10.049,0-.49,2.819-4.289,6.128-8.579,6.618-8.211,14.339-14.829,16.055-13.726C142.48-209.489,142.97-206.548,142.97-203.239Z" transform="translate(25.461 78.505)" fill="#2c5364"/>
    <path id="Path_129" data-name="Path 129" d="M273.622-165.02c-.368.613.123,1.1,1.1,1.1s1.471-.49,1.1-1.1c-.368-.49-.858-.98-1.1-.98S273.99-165.51,273.622-165.02Z" transform="translate(60.992 89.062)" fill="#2c5364"/>
  </g>
</svg>
