<svg xmlns="http://www.w3.org/2000/svg" width="1066.664" height="1066.664" viewBox="0 0 1066.664 1066.664">
  <g id="g10" transform="translate(85 1293.664)">
    <g id="g12" transform="translate(-85 -227)">
      <path id="path16" d="M513.079-558.145a43.448,43.448,0,0,0-5.455,14.073,33.45,33.45,0,0,0-.167,10.74h21.425a14.723,14.723,0,0,1-2.052-7.616,17.065,17.065,0,0,1,2.553-8.211,16.222,16.222,0,0,1,3.948-4.671v-23.013c-7.988,3.043-14.749,9.251-20.253,18.7"/>
      <path id="path18" d="M385.992-539.776q-4.368-.692-16.857,5.335c-.764.368-1.493.739-2.232,1.109h26.221c-1.911-3.837-4.287-5.993-7.132-6.444"/>
      <path id="path20" d="M42.384-546.191A61.913,61.913,0,0,0,40.72-556a32.387,32.387,0,0,0-5.244-10.737,31.473,31.473,0,0,0-8.979-7.421q-12.75-7.428-25.438-3.108c-.36.123-.7.289-1.059.424v23.013a12.352,12.352,0,0,1,4.808-2.328q5.433-1.3,11.328,2.137,6.855,4,8.975,17.589c.181,1.148.353,2.157.521,3.1H46.1a14.473,14.473,0,0,1-1.724-3.027,40.371,40.371,0,0,1-2-9.832"/>
      <path id="path22" d="M524.455-929.034a7.711,7.711,0,0,0,.021,6.367,40.288,40.288,0,0,0,2.373,4.359q1.57,2.566,5.952,8.823c.169.241.359.48.531.721v-28.231a17.054,17.054,0,0,0-3.991,2.141,13.227,13.227,0,0,0-4.887,5.82"/>
      <path id="path24" d="M508.031-1063.521a30.946,30.946,0,0,0,4.259,10.292,20.887,20.887,0,0,0,6.847,6.736,10.311,10.311,0,0,0,7.543,1.563,8.849,8.849,0,0,0,5.709-4.569,10.791,10.791,0,0,0,.944-2.192v-6.439a19.752,19.752,0,0,0-2.509-5.327q-1.27-1.942-1.805-2.94c-.052-.088-.085-.177-.135-.267H507.457c.148,1.044.328,2.091.573,3.143"/>
      <path id="path26" d="M70.882-845.031a12.074,12.074,0,0,0-8.9,3.745,12.171,12.171,0,0,0-3.708,8.861,12.321,12.321,0,0,0,3.745,8.972,12.057,12.057,0,0,0,8.861,3.783,12.324,12.324,0,0,0,8.973-3.745,12.222,12.222,0,0,0,3.782-9.009,12.1,12.1,0,0,0-3.708-8.936,12.374,12.374,0,0,0-9.047-3.671"/>
      <path id="path28" d="M47.325-660.8a12.074,12.074,0,0,0-8.9,3.745,12.172,12.172,0,0,0-3.707,8.861,12.32,12.32,0,0,0,3.745,8.972,12.055,12.055,0,0,0,8.861,3.783,12.317,12.317,0,0,0,8.972-3.745,12.221,12.221,0,0,0,3.782-9.009,12.1,12.1,0,0,0-3.708-8.936,12.372,12.372,0,0,0-9.046-3.671"/>
      <path id="path30" d="M260.851-974.742a12.078,12.078,0,0,0-8.9,3.745,12.17,12.17,0,0,0-3.708,8.861,12.315,12.315,0,0,0,3.745,8.972,12.052,12.052,0,0,0,8.861,3.781,12.316,12.316,0,0,0,8.972-3.744,12.223,12.223,0,0,0,3.783-9.009,12.1,12.1,0,0,0-3.708-8.936,12.375,12.375,0,0,0-9.047-3.671"/>
      <path id="path32" d="M435.254-664.133a12.1,12.1,0,0,0-3.708-8.935,12.366,12.366,0,0,0-9.047-3.671,12.074,12.074,0,0,0-8.9,3.744,12.174,12.174,0,0,0-3.708,8.861,12.322,12.322,0,0,0,3.744,8.973,12.056,12.056,0,0,0,8.861,3.781,12.318,12.318,0,0,0,8.973-3.745,12.219,12.219,0,0,0,3.781-9.009"/>
      <path id="path34" d="M296.546-594.688a12.075,12.075,0,0,0-8.9,3.745,12.172,12.172,0,0,0-3.708,8.861,12.322,12.322,0,0,0,3.745,8.972,12.055,12.055,0,0,0,8.861,3.783,12.315,12.315,0,0,0,8.972-3.745,12.223,12.223,0,0,0,3.783-9.009,12.1,12.1,0,0,0-3.708-8.936,12.373,12.373,0,0,0-9.047-3.671"/>
      <path id="path36" d="M225.146-837.3a9.266,9.266,0,0,0-.556,2.781,7.311,7.311,0,0,0,2.669,5.487,8.661,8.661,0,0,0,6.007,2.448,5.419,5.419,0,0,0,3.151-1,13.464,13.464,0,0,0,3.077-3.3l9.121-13.051,8.38,12.9a8.966,8.966,0,0,0,2.892,2.892,6.627,6.627,0,0,0,3.485,1.039,8.318,8.318,0,0,0,5.857-2.448,7.326,7.326,0,0,0,2.6-5.413,7.124,7.124,0,0,0-.52-2.595,9.494,9.494,0,0,0-1.556-2.6l-9.715-12.087,14.089-3.856a8.325,8.325,0,0,0,4.412-2.521,6.611,6.611,0,0,0,1.52-4.449,9.328,9.328,0,0,0-2.076-6.192,6.35,6.35,0,0,0-5.043-2.484,8.209,8.209,0,0,0-1.743.223,20.97,20.97,0,0,0-2.113.593l-13.2,4.968.3-14.237v-.445a8.316,8.316,0,0,0-2-6.007,7.563,7.563,0,0,0-5.709-2.076,8.1,8.1,0,0,0-5.859,2,7.563,7.563,0,0,0-2.076,5.709v.816l.668,14.237-14.016-4.968q-1.334-.446-2.076-.631a5.794,5.794,0,0,0-1.409-.185,6.493,6.493,0,0,0-5.191,2.484,9.328,9.328,0,0,0-2.076,6.192,6.467,6.467,0,0,0,1.52,4.412,8.947,8.947,0,0,0,4.56,2.559l14.683,3.856-10.6,12.607a6.977,6.977,0,0,0-1.445,2.335"/>
      <path id="path38" d="M40.429-685.118q1.409-1.372,1.928-5.3l4.375-38.561q.3-2.742.482-6.413t.185-7.676q0-13.866-2.521-17.5T35.683-764.2a13.23,13.23,0,0,0-7.342,1.965,7.705,7.705,0,0,0-3.633,5.228,40,40,0,0,0-.556,4.931q-.185,3-.185,10.641,0,3.04.148,6.155t.445,6.3l4.449,38.561q.445,3.854,1.928,5.264t4.746,1.409q3.337,0,4.746-1.372"/>
      <path id="path40" d="M7.1-899.62l25.762,29.035q2.576,2.9,4.6,3.207t4.7-1.568q2.734-1.914,3.1-3.847T43.8-878.242l-18.533-34.1q-1.331-2.418-3.284-5.532t-4.251-6.392q-7.953-11.36-12.1-12.891A8.053,8.053,0,0,0,0-937v28.231c1.007,1.416,2.034,2.831,3.121,4.236q1.908,2.466,3.98,4.908"/>
      <path id="path42" d="M226.873-1009.395l38.72,2.744q3.87.274,5.529-.923t2.261-4.405q.616-3.28-.473-4.917t-4.855-2.873l-37.091-11.416q-2.642-.8-6.215-1.657t-7.509-1.6q-13.628-2.56-17.665-.752t-5.268,8.367a13.232,13.232,0,0,0,.577,7.577,7.705,7.705,0,0,0,4.467,4.536,40.147,40.147,0,0,0,4.744,1.457q2.918.736,10.424,2.145,2.988.562,6.077.991t6.276.725"/>
      <path id="path44" d="M356.735-1061.051l-32.828,20.7q-3.314,2.176-3.937,4.041t.827,4.871q1.418,2.938,3.332,3.661t5.579-.551l36.663-12.749q3-1.118,5.871-2.337t5.608-2.541q6.88-3.32,9.5-4.791a40.205,40.205,0,0,0,4.2-2.644,7.707,7.707,0,0,0,3.129-5.545,13.22,13.22,0,0,0-1.42-7.465c-.044-.091-.092-.169-.136-.259H366.9c-1.585.795-3.133,1.591-4.6,2.392q-3.226,1.762-5.568,3.221"/>
      <path id="path46" d="M147.4-618.788a11.389,11.389,0,0,0-8.453,3.56,11.842,11.842,0,0,0-3.485,8.6,11.485,11.485,0,0,0,3.521,8.416,11.486,11.486,0,0,0,8.417,3.523,11.842,11.842,0,0,0,8.6-3.485,11.389,11.389,0,0,0,3.56-8.453,11.813,11.813,0,0,0-3.485-8.639,11.715,11.715,0,0,0-8.676-3.523"/>
      <path id="path48" d="M174.2-699.282q-10.122-8.786-27.252-8.787a43.437,43.437,0,0,0-14.9,2.373,33.941,33.941,0,0,0-11.791,7.341,30.932,30.932,0,0,0-6.748,8.861,20.872,20.872,0,0,0-2.373,9.305,10.32,10.32,0,0,0,2.447,7.305,8.857,8.857,0,0,0,6.822,2.632q7.045,0,11.271-8.38,1.038-2.076,1.632-3.04a14.808,14.808,0,0,1,5.709-5.857,17.071,17.071,0,0,1,8.38-1.929q6.6,0,10.456,4.043t3.856,10.863q0,7.934-10.679,16.611-3.634,2.966-5.413,4.672a27.129,27.129,0,0,0-5.859,7.787,18.741,18.741,0,0,0-2.076,8.3,9.523,9.523,0,0,0,2.744,7.268q2.744,2.6,7.787,2.595a9.972,9.972,0,0,0,5.339-1.372,8.765,8.765,0,0,0,3.411-4.041q.148-.3,1.149-3.411a16.5,16.5,0,0,1,2.559-5.116,40.318,40.318,0,0,1,7.489-6.675,61.938,61.938,0,0,0,7.639-6.377,32.38,32.38,0,0,0,6.636-9.936,31.439,31.439,0,0,0,1.891-11.495q0-14.756-10.121-23.544"/>
      <path id="path50" d="M134.2-876.143a30.954,30.954,0,0,0,10.893-2.327,20.876,20.876,0,0,0,7.863-5.515,10.311,10.311,0,0,0,2.9-7.136,8.856,8.856,0,0,0-3.46-6.441q-5.346-4.59-14.011-.985-2.14.9-3.219,1.244a14.819,14.819,0,0,1-8.148.724,17.071,17.071,0,0,1-7.613-4q-5.007-4.3-5.3-9.877t4.152-10.755q5.169-6.02,18.923-5.645,4.688.116,7.149-.017a27.134,27.134,0,0,0,9.517-2.091,18.759,18.759,0,0,0,6.985-4.949,9.521,9.521,0,0,0,2.653-7.3q-.392-3.758-4.217-7.043a9.983,9.983,0,0,0-4.944-2.437,8.774,8.774,0,0,0-5.22.844q-.306.13-3.095,1.84a16.5,16.5,0,0,1-5.275,2.215,40.342,40.342,0,0,1-10.029.184,62.086,62.086,0,0,0-9.949-.137,32.413,32.413,0,0,0-11.508,3.216,31.425,31.425,0,0,0-8.922,7.488q-9.613,11.2-7.658,24.456t14.951,24.42a43.465,43.465,0,0,0,12.854,7.911,33.972,33.972,0,0,0,13.727,2.111"/>
      <path id="path52" d="M181.142-972.475a11.845,11.845,0,0,0-8.8-2.959,11.392,11.392,0,0,0-8.208,4.095,11.818,11.818,0,0,0-2.984,8.824,11.71,11.71,0,0,0,4.288,8.324,11.4,11.4,0,0,0,8.733,2.808,11.843,11.843,0,0,0,8.247-4.256,11.483,11.483,0,0,0,2.811-8.68,11.48,11.48,0,0,0-4.091-8.156"/>
      <path id="path54" d="M61.607-1030.472a11.486,11.486,0,0,0,9.045,1.195,11.489,11.489,0,0,0,7.281-5.5,11.848,11.848,0,0,0,1.32-9.187,11.4,11.4,0,0,0-5.512-7.332,11.811,11.811,0,0,0-9.219-1.339,11.715,11.715,0,0,0-7.412,5.723,11.394,11.394,0,0,0-1.181,9.1,11.845,11.845,0,0,0,5.678,7.343"/>
      <path id="path56" d="M26.421-1062.733a27.126,27.126,0,0,0,3.778,8.981,18.75,18.75,0,0,0,6.131,5.976,9.52,9.52,0,0,0,7.66,1.288q3.624-1.064,6.163-5.42a9.978,9.978,0,0,0,1.5-5.3,8.776,8.776,0,0,0-1.775-4.983q-.182-.276-2.369-2.709a21.019,21.019,0,0,1-1.408-1.76H25.632c.283,1.593.548,2.927.79,3.931"/>
      <path id="path58" d="M0-1058.131v6.439a10.969,10.969,0,0,0,0-6.439"/>
      <path id="path60" d="M348.4-870.338a12.074,12.074,0,0,0-8.9,3.744,12.175,12.175,0,0,0-3.708,8.861,12.322,12.322,0,0,0,3.744,8.973,12.056,12.056,0,0,0,8.861,3.781,12.322,12.322,0,0,0,8.973-3.744,12.224,12.224,0,0,0,3.781-9.011,12.1,12.1,0,0,0-3.707-8.935,12.371,12.371,0,0,0-9.048-3.671"/>
      <path id="path62" d="M353.494-984.984a12.222,12.222,0,0,0,3.781-9.009,12.1,12.1,0,0,0-3.708-8.936,12.371,12.371,0,0,0-9.047-3.671,12.075,12.075,0,0,0-8.9,3.745,12.177,12.177,0,0,0-3.707,8.861,12.321,12.321,0,0,0,3.744,8.972,12.058,12.058,0,0,0,8.861,3.783,12.323,12.323,0,0,0,8.973-3.745"/>
      <path id="path64" d="M521.233-738.058a12.172,12.172,0,0,0-3.708,8.861,12.321,12.321,0,0,0,3.744,8.972,12.057,12.057,0,0,0,8.861,3.783,12.827,12.827,0,0,0,3.2-.405v-24.576a13.619,13.619,0,0,0-3.2-.38,12.075,12.075,0,0,0-8.9,3.745"/>
      <path id="path66" d="M289.442-674.138q2.872-2.292,5.872-4.945,10.388-9.186,11.439-13.483t-3.369-9.295a13.229,13.229,0,0,0-6.335-4.2,7.708,7.708,0,0,0-6.324.741,39.884,39.884,0,0,0-4.061,2.851q-2.374,1.85-8.095,6.909-2.278,2.014-4.512,4.189t-4.427,4.508l-25.939,28.879q-2.594,2.886-2.667,4.932t2.089,4.488q2.21,2.5,4.171,2.647t5.249-2.068l31.784-22.268q2.252-1.6,5.124-3.888"/>
      <path id="path68" d="M323.87-922.568q-.544-2.992-1.247-6.029t-1.565-6.121l-11.277-37.143q-1.128-3.714-2.84-4.835t-4.921-.537q-3.282.6-4.423,2.2t-.949,5.561l2.6,38.72q.2,2.752.673,6.4t1.191,7.584q2.482,13.644,5.613,16.767t9.7,1.929a13.225,13.225,0,0,0,6.872-3.247,7.713,7.713,0,0,0,2.639-5.793,40.085,40.085,0,0,0-.335-4.952q-.356-2.988-1.723-10.5"/>
      <path id="path70" d="M437.412-714.882q12.824-3.9,21.932-18.409a43.439,43.439,0,0,0,5.916-13.884,33.973,33.973,0,0,0,.051-13.889,30.923,30.923,0,0,0-3.917-10.427,20.86,20.86,0,0,0-6.62-6.959,10.309,10.309,0,0,0-7.487-1.811,8.851,8.851,0,0,0-5.857,4.379q-3.746,5.966,1.1,14,1.206,1.982,1.708,3a14.832,14.832,0,0,1,1.925,7.951,17.071,17.071,0,0,1-2.823,8.123q-3.51,5.59-8.983,6.707t-11.251-2.511q-6.72-4.22-8.391-17.876-.58-4.654-1.077-7.068a27.113,27.113,0,0,0-3.48-9.1,18.745,18.745,0,0,0-5.931-6.175,9.519,9.519,0,0,0-7.613-1.54q-3.656.944-6.337,5.215a9.964,9.964,0,0,0-1.677,5.251,8.767,8.767,0,0,0,1.609,5.037q.172.284,2.277,2.788a16.5,16.5,0,0,1,2.973,4.887,40.4,40.4,0,0,1,1.671,9.892,61.894,61.894,0,0,0,1.34,9.86,32.382,32.382,0,0,0,4.887,10.9,31.44,31.44,0,0,0,8.729,7.712q12.5,7.846,25.321,3.947"/>
      <path id="path72" d="M379.54-796.962a11.488,11.488,0,0,0-9-1.492,11.484,11.484,0,0,0-7.457,5.255,11.849,11.849,0,0,0-1.623,9.139,11.394,11.394,0,0,0,5.268,7.509,11.807,11.807,0,0,0,9.169,1.641,11.71,11.71,0,0,0,7.6-5.475,11.389,11.389,0,0,0,1.48-9.052,11.838,11.838,0,0,0-5.432-7.525"/>
      <path id="path74" d="M460.084-923.066a11.39,11.39,0,0,0,8.732,2.807,11.849,11.849,0,0,0,8.248-4.256,11.488,11.488,0,0,0,2.811-8.68,11.487,11.487,0,0,0-4.091-8.155,11.843,11.843,0,0,0-8.8-2.96,11.389,11.389,0,0,0-8.207,4.095,11.807,11.807,0,0,0-2.984,8.824,11.711,11.711,0,0,0,4.288,8.325"/>
      <path id="path76" d="M402.258-855.041a43.459,43.459,0,0,0,12.855,7.911,33.97,33.97,0,0,0,13.728,2.111,30.948,30.948,0,0,0,10.892-2.327,20.863,20.863,0,0,0,7.863-5.515A10.319,10.319,0,0,0,450.5-860a8.854,8.854,0,0,0-3.461-6.441q-5.344-4.59-14.011-.985-2.14.9-3.219,1.244a14.818,14.818,0,0,1-8.148.724,17.076,17.076,0,0,1-7.613-4q-5.006-4.3-5.3-9.877t4.152-10.755q5.17-6.018,18.923-5.645,4.688.116,7.151-.017a27.127,27.127,0,0,0,9.516-2.091,18.749,18.749,0,0,0,6.987-4.949,9.52,9.52,0,0,0,2.652-7.3q-.39-3.758-4.216-7.041a9.985,9.985,0,0,0-4.944-2.439,8.779,8.779,0,0,0-5.221.844q-.306.13-3.095,1.84a16.507,16.507,0,0,1-5.273,2.215,40.286,40.286,0,0,1-10.031.184,62.079,62.079,0,0,0-9.949-.137,32.383,32.383,0,0,0-11.508,3.216,31.419,31.419,0,0,0-8.923,7.488q-9.614,11.2-7.659,24.456t14.951,24.42"/>
      <path id="path78" d="M425.578-974.742a13.47,13.47,0,0,0,10.069-3.993,14.258,14.258,0,0,0,3.905-10.416q0-6.162-3.255-9.723a11.356,11.356,0,0,0-8.811-3.559,8.571,8.571,0,0,0-3.168.564,11.224,11.224,0,0,0-3,1.867,2.271,2.271,0,0,1-.216-.824q-.044-.478-.044-1.433a12.076,12.076,0,0,1,2.3-7.205,16.658,16.658,0,0,1,6.381-5.208q1.734-.866,4.427-1.909,5.728-2.344,5.729-5.643a5.78,5.78,0,0,0-1.216-3.863,4.2,4.2,0,0,0-3.385-1.432q-10.33,0-18.576,9.115a30.917,30.917,0,0,0-8.247,21.44q0,10.244,4.6,16.233a14.917,14.917,0,0,0,12.5,5.989"/>
      <path id="path80" d="M249.727-736.971a30.917,30.917,0,0,0,8.247-21.44q0-10.244-4.6-16.233a14.92,14.92,0,0,0-12.5-5.989,13.468,13.468,0,0,0-10.069,3.993,14.259,14.259,0,0,0-3.907,10.416q0,6.164,3.255,9.723a11.357,11.357,0,0,0,8.812,3.559,8.576,8.576,0,0,0,3.168-.564,11.219,11.219,0,0,0,2.995-1.867,2.271,2.271,0,0,1,.217.825c.029.317.043.795.043,1.432a12.077,12.077,0,0,1-2.3,7.205,16.664,16.664,0,0,1-6.38,5.208q-1.734.866-4.427,1.909-5.73,2.344-5.729,5.643a5.779,5.779,0,0,0,1.215,3.863,4.2,4.2,0,0,0,3.385,1.432q10.332,0,18.576-9.115"/>
      <path id="path82" d="M471.139-604.379a14.26,14.26,0,0,0-11.088.905q-5.574,2.628-7.408,7.089a11.35,11.35,0,0,0,.536,9.487,8.54,8.54,0,0,0,1.861,2.625A11.181,11.181,0,0,0,458-582.357a2.276,2.276,0,0,1-.653.548q-.412.242-1.277.649a12.066,12.066,0,0,1-7.5.989,16.652,16.652,0,0,1-7.432-3.552q-1.522-1.2-3.613-3.191-4.562-4.184-7.547-2.779a5.783,5.783,0,0,0-2.976,2.747,4.2,4.2,0,0,0,.147,3.673q4.4,9.344,16.163,12.92a30.918,30.918,0,0,0,22.911-1.679q9.266-4.366,12.724-11.08a14.92,14.92,0,0,0,.091-13.861,13.469,13.469,0,0,0-7.9-7.407"/>
      <path id="path84" d="M9.554-729.2a12.1,12.1,0,0,0-3.707-8.936A12.254,12.254,0,0,0,0-741.424v24.576a12.5,12.5,0,0,0,5.772-3.34A12.222,12.222,0,0,0,9.554-729.2"/>
      <path id="path86" d="M1046.411-558.145a43.451,43.451,0,0,0-5.455,14.073,33.45,33.45,0,0,0-.167,10.74h21.425a14.724,14.724,0,0,1-2.052-7.616,17.065,17.065,0,0,1,2.553-8.211,16.222,16.222,0,0,1,3.948-4.671v-23.013c-7.988,3.043-14.749,9.251-20.253,18.7"/>
      <path id="path88" d="M919.324-539.776q-4.368-.692-16.857,5.335c-.764.368-1.493.739-2.232,1.109h26.221c-1.911-3.837-4.287-5.993-7.132-6.444"/>
      <path id="path90" d="M575.716-546.191A61.846,61.846,0,0,0,574.052-556a32.407,32.407,0,0,0-5.244-10.737,31.475,31.475,0,0,0-8.979-7.421q-12.75-7.428-25.439-3.108c-.36.123-.7.289-1.059.424v23.013a12.35,12.35,0,0,1,4.808-2.328q5.432-1.3,11.327,2.137,6.856,4,8.976,17.589c.181,1.148.353,2.157.521,3.1h20.472a14.526,14.526,0,0,1-1.724-3.027,40.419,40.419,0,0,1-2-9.832"/>
      <path id="path92" d="M1057.787-929.034a7.711,7.711,0,0,0,.021,6.367,40.3,40.3,0,0,0,2.373,4.359q1.57,2.566,5.952,8.823c.169.241.36.48.531.721v-28.231a17.055,17.055,0,0,0-3.991,2.141,13.219,13.219,0,0,0-4.887,5.82"/>
      <path id="path94" d="M1041.363-1063.521a30.947,30.947,0,0,0,4.259,10.292,20.886,20.886,0,0,0,6.847,6.736,10.311,10.311,0,0,0,7.543,1.563,8.852,8.852,0,0,0,5.709-4.569,10.8,10.8,0,0,0,.944-2.192v-6.439a19.755,19.755,0,0,0-2.509-5.327q-1.272-1.942-1.805-2.94c-.052-.088-.085-.177-.135-.267H1040.79c.148,1.044.328,2.091.573,3.143"/>
      <path id="path96" d="M604.215-845.031a12.073,12.073,0,0,0-8.9,3.745,12.17,12.17,0,0,0-3.708,8.861,12.317,12.317,0,0,0,3.745,8.972,12.056,12.056,0,0,0,8.861,3.783,12.322,12.322,0,0,0,8.972-3.745,12.223,12.223,0,0,0,3.783-9.009,12.1,12.1,0,0,0-3.708-8.936,12.375,12.375,0,0,0-9.047-3.671"/>
      <path id="path98" d="M580.657-660.8a12.073,12.073,0,0,0-8.9,3.745,12.17,12.17,0,0,0-3.708,8.861,12.317,12.317,0,0,0,3.745,8.972,12.053,12.053,0,0,0,8.861,3.783,12.317,12.317,0,0,0,8.972-3.745,12.221,12.221,0,0,0,3.781-9.009,12.1,12.1,0,0,0-3.707-8.936,12.375,12.375,0,0,0-9.047-3.671"/>
      <path id="path100" d="M794.183-974.742a12.078,12.078,0,0,0-8.9,3.745,12.17,12.17,0,0,0-3.708,8.861,12.315,12.315,0,0,0,3.745,8.972,12.052,12.052,0,0,0,8.861,3.781,12.316,12.316,0,0,0,8.972-3.744,12.223,12.223,0,0,0,3.783-9.009,12.1,12.1,0,0,0-3.708-8.936,12.375,12.375,0,0,0-9.047-3.671"/>
      <path id="path102" d="M968.586-664.133a12.1,12.1,0,0,0-3.708-8.935,12.366,12.366,0,0,0-9.047-3.671,12.079,12.079,0,0,0-8.9,3.744,12.178,12.178,0,0,0-3.707,8.861,12.322,12.322,0,0,0,3.744,8.973,12.056,12.056,0,0,0,8.861,3.781,12.318,12.318,0,0,0,8.973-3.745,12.219,12.219,0,0,0,3.781-9.009"/>
      <path id="path104" d="M829.878-594.688a12.075,12.075,0,0,0-8.9,3.745,12.172,12.172,0,0,0-3.708,8.861,12.323,12.323,0,0,0,3.745,8.972,12.056,12.056,0,0,0,8.861,3.783,12.315,12.315,0,0,0,8.972-3.745,12.223,12.223,0,0,0,3.783-9.009,12.1,12.1,0,0,0-3.708-8.936,12.373,12.373,0,0,0-9.047-3.671"/>
      <path id="path106" d="M758.478-837.3a9.263,9.263,0,0,0-.556,2.781,7.311,7.311,0,0,0,2.669,5.487,8.661,8.661,0,0,0,6.007,2.448,5.418,5.418,0,0,0,3.151-1,13.463,13.463,0,0,0,3.077-3.3l9.121-13.051,8.38,12.9a8.966,8.966,0,0,0,2.892,2.892,6.627,6.627,0,0,0,3.485,1.039,8.318,8.318,0,0,0,5.857-2.448,7.326,7.326,0,0,0,2.6-5.413,7.123,7.123,0,0,0-.52-2.595,9.494,9.494,0,0,0-1.556-2.6l-9.715-12.087,14.089-3.856a8.325,8.325,0,0,0,4.412-2.521,6.612,6.612,0,0,0,1.52-4.449,9.328,9.328,0,0,0-2.076-6.192,6.35,6.35,0,0,0-5.043-2.484,8.209,8.209,0,0,0-1.743.223,20.97,20.97,0,0,0-2.113.593l-13.2,4.968.3-14.237v-.445a8.316,8.316,0,0,0-2-6.007,7.562,7.562,0,0,0-5.709-2.076,8.1,8.1,0,0,0-5.859,2,7.563,7.563,0,0,0-2.076,5.709v.816l.668,14.237-14.016-4.968q-1.334-.446-2.076-.631a5.8,5.8,0,0,0-1.409-.185,6.493,6.493,0,0,0-5.191,2.484,9.328,9.328,0,0,0-2.076,6.192,6.467,6.467,0,0,0,1.52,4.412,8.947,8.947,0,0,0,4.56,2.559l14.683,3.856-10.6,12.607a6.976,6.976,0,0,0-1.445,2.335"/>
      <path id="path108" d="M573.76-685.118q1.41-1.372,1.928-5.3l4.376-38.561q.3-2.742.481-6.413t.185-7.676q0-13.866-2.521-17.5t-9.195-3.633a13.228,13.228,0,0,0-7.341,1.965,7.7,7.7,0,0,0-3.633,5.228,39.667,39.667,0,0,0-.556,4.931q-.186,3-.185,10.641,0,3.04.148,6.155t.445,6.3l4.449,38.561q.444,3.854,1.928,5.264t4.745,1.409q3.336,0,4.745-1.372"/>
      <path id="path110" d="M540.432-899.62l25.763,29.035q2.576,2.9,4.6,3.207t4.7-1.568q2.734-1.914,3.1-3.847t-1.463-5.448l-18.533-34.1q-1.33-2.418-3.284-5.532t-4.251-6.392q-7.954-11.36-12.1-12.891a8.054,8.054,0,0,0-5.625.157v28.231c1.007,1.416,2.033,2.831,3.121,4.236q1.908,2.466,3.979,4.908"/>
      <path id="path112" d="M760.2-1009.395l38.72,2.744q3.87.274,5.529-.923t2.261-4.405q.616-3.28-.473-4.917t-4.855-2.873L764.3-1031.185q-2.642-.8-6.215-1.657t-7.509-1.6q-13.628-2.56-17.665-.752t-5.268,8.367a13.232,13.232,0,0,0,.577,7.577,7.705,7.705,0,0,0,4.467,4.536,40.145,40.145,0,0,0,4.744,1.457q2.918.736,10.424,2.145,2.988.562,6.077.991t6.276.725"/>
      <path id="path114" d="M890.067-1061.051l-32.828,20.7q-3.314,2.176-3.937,4.041t.827,4.871q1.418,2.938,3.332,3.661t5.579-.551l36.664-12.749q3-1.118,5.869-2.337t5.608-2.541q6.878-3.32,9.5-4.791a40.193,40.193,0,0,0,4.2-2.644,7.707,7.707,0,0,0,3.129-5.545,13.22,13.22,0,0,0-1.42-7.465c-.044-.091-.092-.169-.136-.259H900.235c-1.585.795-3.133,1.591-4.6,2.392q-3.226,1.762-5.568,3.221"/>
      <path id="path116" d="M680.728-618.788a11.389,11.389,0,0,0-8.453,3.56,11.842,11.842,0,0,0-3.485,8.6,11.485,11.485,0,0,0,3.521,8.416,11.486,11.486,0,0,0,8.417,3.523,11.841,11.841,0,0,0,8.6-3.485,11.389,11.389,0,0,0,3.56-8.453,11.813,11.813,0,0,0-3.485-8.639,11.715,11.715,0,0,0-8.676-3.523"/>
      <path id="path118" d="M707.534-699.282q-10.122-8.786-27.252-8.787a43.442,43.442,0,0,0-14.905,2.373,33.941,33.941,0,0,0-11.789,7.341,30.9,30.9,0,0,0-6.748,8.861,20.863,20.863,0,0,0-2.373,9.305,10.322,10.322,0,0,0,2.447,7.305,8.857,8.857,0,0,0,6.823,2.632q7.044,0,11.271-8.38,1.038-2.076,1.632-3.04a14.809,14.809,0,0,1,5.709-5.857,17.071,17.071,0,0,1,8.38-1.929q6.6,0,10.456,4.043t3.856,10.863q0,7.934-10.679,16.611-3.634,2.966-5.413,4.672a27.129,27.129,0,0,0-5.859,7.787,18.74,18.74,0,0,0-2.076,8.3,9.523,9.523,0,0,0,2.744,7.268q2.744,2.6,7.787,2.595a9.972,9.972,0,0,0,5.339-1.372,8.765,8.765,0,0,0,3.411-4.041q.148-.3,1.149-3.411A16.5,16.5,0,0,1,694-641.256a40.317,40.317,0,0,1,7.489-6.675,61.947,61.947,0,0,0,7.639-6.377,32.381,32.381,0,0,0,6.636-9.936,31.44,31.44,0,0,0,1.891-11.495q0-14.756-10.121-23.544"/>
      <path id="path120" d="M667.53-876.143a30.955,30.955,0,0,0,10.893-2.327,20.887,20.887,0,0,0,7.863-5.515,10.31,10.31,0,0,0,2.9-7.136,8.857,8.857,0,0,0-3.46-6.441q-5.346-4.59-14.011-.985-2.14.9-3.219,1.244a14.818,14.818,0,0,1-8.148.724,17.068,17.068,0,0,1-7.613-4q-5.008-4.3-5.3-9.877t4.152-10.755q5.168-6.02,18.923-5.645,4.688.116,7.149-.017a27.133,27.133,0,0,0,9.517-2.091,18.758,18.758,0,0,0,6.985-4.949,9.521,9.521,0,0,0,2.653-7.3q-.392-3.758-4.217-7.043a9.983,9.983,0,0,0-4.944-2.437,8.774,8.774,0,0,0-5.22.844q-.306.13-3.095,1.84a16.5,16.5,0,0,1-5.275,2.215,40.341,40.341,0,0,1-10.029.184,62.085,62.085,0,0,0-9.949-.137,32.423,32.423,0,0,0-11.509,3.216,31.435,31.435,0,0,0-8.921,7.488q-9.614,11.2-7.659,24.456t14.951,24.42a43.459,43.459,0,0,0,12.855,7.911,33.967,33.967,0,0,0,13.727,2.111"/>
      <path id="path122" d="M714.474-972.475a11.845,11.845,0,0,0-8.8-2.959,11.392,11.392,0,0,0-8.208,4.095,11.817,11.817,0,0,0-2.984,8.824,11.71,11.71,0,0,0,4.288,8.324,11.4,11.4,0,0,0,8.733,2.808,11.843,11.843,0,0,0,8.247-4.256,11.482,11.482,0,0,0,2.811-8.68,11.48,11.48,0,0,0-4.091-8.156"/>
      <path id="path124" d="M594.939-1030.472a11.486,11.486,0,0,0,9.045,1.195,11.49,11.49,0,0,0,7.281-5.5,11.846,11.846,0,0,0,1.319-9.187,11.388,11.388,0,0,0-5.512-7.332,11.81,11.81,0,0,0-9.219-1.339,11.71,11.71,0,0,0-7.411,5.723,11.392,11.392,0,0,0-1.181,9.1,11.845,11.845,0,0,0,5.677,7.343"/>
      <path id="path126" d="M559.753-1062.733a27.1,27.1,0,0,0,3.779,8.981,18.754,18.754,0,0,0,6.129,5.976,9.524,9.524,0,0,0,7.661,1.288q3.624-1.064,6.163-5.42a9.986,9.986,0,0,0,1.5-5.3,8.774,8.774,0,0,0-1.775-4.983q-.182-.276-2.368-2.709a20.772,20.772,0,0,1-1.409-1.76H558.964c.283,1.593.548,2.927.789,3.931"/>
      <path id="path128" d="M533.332-1058.131v6.439a10.971,10.971,0,0,0,0-6.439"/>
      <path id="path130" d="M881.737-870.338a12.073,12.073,0,0,0-8.9,3.744,12.175,12.175,0,0,0-3.708,8.861,12.322,12.322,0,0,0,3.744,8.973,12.056,12.056,0,0,0,8.861,3.781,12.322,12.322,0,0,0,8.973-3.744,12.224,12.224,0,0,0,3.781-9.011,12.1,12.1,0,0,0-3.707-8.935,12.371,12.371,0,0,0-9.048-3.671"/>
      <path id="path132" d="M886.826-984.984a12.222,12.222,0,0,0,3.781-9.009,12.1,12.1,0,0,0-3.708-8.936,12.371,12.371,0,0,0-9.047-3.671,12.075,12.075,0,0,0-8.9,3.745,12.177,12.177,0,0,0-3.707,8.861,12.321,12.321,0,0,0,3.744,8.972,12.058,12.058,0,0,0,8.861,3.783,12.323,12.323,0,0,0,8.973-3.745"/>
      <path id="path134" d="M1054.565-738.058a12.173,12.173,0,0,0-3.708,8.861,12.321,12.321,0,0,0,3.744,8.972,12.057,12.057,0,0,0,8.861,3.783,12.826,12.826,0,0,0,3.2-.405v-24.576a13.617,13.617,0,0,0-3.2-.38,12.076,12.076,0,0,0-8.9,3.745"/>
      <path id="path136" d="M822.774-674.138q2.872-2.292,5.872-4.945,10.388-9.186,11.439-13.483t-3.369-9.295a13.23,13.23,0,0,0-6.335-4.2,7.708,7.708,0,0,0-6.324.741A39.884,39.884,0,0,0,820-702.466q-2.374,1.85-8.095,6.909-2.278,2.014-4.512,4.189t-4.427,4.508l-25.939,28.879q-2.594,2.886-2.667,4.932t2.089,4.488q2.21,2.5,4.171,2.647t5.249-2.068L817.65-670.25q2.252-1.6,5.124-3.888"/>
      <path id="path138" d="M857.2-922.568q-.544-2.992-1.247-6.029t-1.565-6.121l-11.277-37.143q-1.128-3.714-2.84-4.835t-4.921-.537q-3.282.6-4.423,2.2t-.948,5.561l2.595,38.72q.2,2.752.673,6.4t1.191,7.584q2.482,13.644,5.613,16.767t9.7,1.929a13.225,13.225,0,0,0,6.872-3.247,7.713,7.713,0,0,0,2.639-5.793,40.091,40.091,0,0,0-.335-4.952q-.356-2.988-1.723-10.5"/>
      <path id="path140" d="M970.744-714.882q12.824-3.9,21.932-18.409a43.444,43.444,0,0,0,5.916-13.884,33.975,33.975,0,0,0,.051-13.889,30.925,30.925,0,0,0-3.917-10.427,20.862,20.862,0,0,0-6.62-6.959,10.309,10.309,0,0,0-7.487-1.811,8.851,8.851,0,0,0-5.857,4.379q-3.746,5.966,1.1,14,1.206,1.982,1.708,3a14.831,14.831,0,0,1,1.925,7.951,17.071,17.071,0,0,1-2.823,8.123q-3.51,5.59-8.983,6.707t-11.251-2.511q-6.72-4.22-8.391-17.876-.58-4.654-1.079-7.068a27.083,27.083,0,0,0-3.479-9.1,18.745,18.745,0,0,0-5.931-6.175,9.519,9.519,0,0,0-7.613-1.54q-3.656.944-6.337,5.215a9.963,9.963,0,0,0-1.677,5.251,8.767,8.767,0,0,0,1.609,5.037q.172.284,2.277,2.788A16.5,16.5,0,0,1,928.8-757.2a40.4,40.4,0,0,1,1.671,9.892,61.91,61.91,0,0,0,1.34,9.86,32.382,32.382,0,0,0,4.887,10.9,31.422,31.422,0,0,0,8.729,7.712q12.5,7.846,25.321,3.947"/>
      <path id="path142" d="M912.872-796.962a11.488,11.488,0,0,0-9-1.492,11.485,11.485,0,0,0-7.457,5.255,11.849,11.849,0,0,0-1.623,9.139,11.394,11.394,0,0,0,5.268,7.509,11.807,11.807,0,0,0,9.169,1.641,11.711,11.711,0,0,0,7.6-5.475,11.389,11.389,0,0,0,1.48-9.052,11.842,11.842,0,0,0-5.432-7.525"/>
      <path id="path144" d="M993.416-923.066a11.39,11.39,0,0,0,8.732,2.807,11.848,11.848,0,0,0,8.248-4.256,11.488,11.488,0,0,0,2.811-8.68,11.487,11.487,0,0,0-4.091-8.155,11.843,11.843,0,0,0-8.8-2.96,11.389,11.389,0,0,0-8.207,4.095,11.806,11.806,0,0,0-2.984,8.824,11.71,11.71,0,0,0,4.288,8.325"/>
      <path id="path146" d="M935.59-855.041a43.458,43.458,0,0,0,12.855,7.911,33.97,33.97,0,0,0,13.728,2.111,30.948,30.948,0,0,0,10.892-2.327,20.863,20.863,0,0,0,7.863-5.515,10.319,10.319,0,0,0,2.9-7.136,8.853,8.853,0,0,0-3.461-6.441q-5.344-4.59-14.011-.985-2.14.9-3.219,1.244a14.818,14.818,0,0,1-8.148.724,17.076,17.076,0,0,1-7.613-4q-5.006-4.3-5.3-9.877t4.152-10.755q5.17-6.018,18.923-5.645,4.688.116,7.151-.017a27.127,27.127,0,0,0,9.516-2.091,18.75,18.75,0,0,0,6.987-4.949,9.52,9.52,0,0,0,2.652-7.3q-.39-3.758-4.216-7.041a9.986,9.986,0,0,0-4.944-2.439,8.779,8.779,0,0,0-5.221.844q-.306.13-3.095,1.84a16.507,16.507,0,0,1-5.273,2.215,40.286,40.286,0,0,1-10.031.184,62.078,62.078,0,0,0-9.949-.137A32.384,32.384,0,0,0,937.22-911.4a31.42,31.42,0,0,0-8.923,7.488q-9.614,11.2-7.659,24.456t14.951,24.42"/>
      <path id="path148" d="M958.91-974.742a13.47,13.47,0,0,0,10.069-3.993,14.258,14.258,0,0,0,3.905-10.416q0-6.162-3.255-9.723a11.356,11.356,0,0,0-8.811-3.559,8.571,8.571,0,0,0-3.168.564,11.224,11.224,0,0,0-3,1.867,2.27,2.27,0,0,1-.216-.824q-.044-.478-.044-1.433a12.077,12.077,0,0,1,2.3-7.205,16.659,16.659,0,0,1,6.381-5.208q1.734-.866,4.427-1.909,5.728-2.344,5.729-5.643a5.78,5.78,0,0,0-1.216-3.863,4.2,4.2,0,0,0-3.385-1.432q-10.33,0-18.576,9.115a30.917,30.917,0,0,0-8.247,21.44q0,10.244,4.6,16.233a14.917,14.917,0,0,0,12.5,5.989"/>
      <path id="path150" d="M783.059-736.971a30.917,30.917,0,0,0,8.247-21.44q0-10.244-4.6-16.233a14.92,14.92,0,0,0-12.5-5.989,13.468,13.468,0,0,0-10.069,3.993,14.259,14.259,0,0,0-3.907,10.416q0,6.164,3.255,9.723a11.357,11.357,0,0,0,8.812,3.559,8.575,8.575,0,0,0,3.168-.564,11.218,11.218,0,0,0,2.995-1.867,2.271,2.271,0,0,1,.217.825c.029.317.043.795.043,1.432a12.077,12.077,0,0,1-2.3,7.205,16.663,16.663,0,0,1-6.38,5.208q-1.734.866-4.427,1.909-5.73,2.344-5.729,5.643a5.78,5.78,0,0,0,1.215,3.863,4.2,4.2,0,0,0,3.385,1.432q10.332,0,18.576-9.115"/>
      <path id="path152" d="M1004.471-604.379a14.26,14.26,0,0,0-11.088.905q-5.574,2.628-7.408,7.089a11.35,11.35,0,0,0,.536,9.487,8.542,8.542,0,0,0,1.861,2.625,11.183,11.183,0,0,0,2.964,1.915,2.277,2.277,0,0,1-.653.548q-.412.242-1.277.649a12.066,12.066,0,0,1-7.5.989,16.653,16.653,0,0,1-7.432-3.552q-1.522-1.2-3.613-3.191-4.562-4.184-7.547-2.779a5.783,5.783,0,0,0-2.976,2.747,4.2,4.2,0,0,0,.147,3.673q4.4,9.344,16.163,12.92a30.918,30.918,0,0,0,22.911-1.679q9.266-4.366,12.724-11.08a14.92,14.92,0,0,0,.091-13.861,13.469,13.469,0,0,0-7.9-7.407"/>
      <path id="path154" d="M542.885-729.2a12.1,12.1,0,0,0-3.707-8.936,12.254,12.254,0,0,0-5.847-3.291v24.576a12.5,12.5,0,0,0,5.772-3.34,12.222,12.222,0,0,0,3.781-9.009"/>
      <path id="path156" d="M513.079-24.814a43.455,43.455,0,0,0-5.455,14.073A33.452,33.452,0,0,0,507.457,0h21.425a14.725,14.725,0,0,1-2.052-7.616,17.064,17.064,0,0,1,2.553-8.21,16.217,16.217,0,0,1,3.948-4.671V-43.511c-7.988,3.043-14.749,9.251-20.253,18.7"/>
      <path id="path158" d="M385.992-6.444q-4.368-.691-16.857,5.335c-.764.368-1.493.739-2.232,1.109h26.221c-1.911-3.837-4.287-5.993-7.132-6.444"/>
      <path id="path160" d="M42.384-12.859a61.926,61.926,0,0,0-1.665-9.809,32.387,32.387,0,0,0-5.244-10.737A31.466,31.466,0,0,0,26.5-40.826q-12.75-7.428-25.438-3.108c-.36.123-.7.29-1.059.424V-20.5a12.35,12.35,0,0,1,4.808-2.328q5.433-1.3,11.328,2.137,6.855,4,8.975,17.59c.181,1.148.353,2.157.521,3.1H46.1A14.472,14.472,0,0,1,44.38-3.027a40.375,40.375,0,0,1-2-9.832"/>
      <path id="path162" d="M524.455-395.7a7.711,7.711,0,0,0,.021,6.367,40.285,40.285,0,0,0,2.373,4.359q1.57,2.566,5.952,8.823c.169.241.359.48.531.721v-28.231a17.051,17.051,0,0,0-3.991,2.141,13.227,13.227,0,0,0-4.887,5.82"/>
      <path id="path164" d="M508.031-530.189a30.945,30.945,0,0,0,4.259,10.292,20.886,20.886,0,0,0,6.847,6.736,10.311,10.311,0,0,0,7.543,1.563,8.852,8.852,0,0,0,5.709-4.568,10.836,10.836,0,0,0,.944-2.193V-524.8a19.713,19.713,0,0,0-2.509-5.327q-1.27-1.944-1.805-2.941c-.052-.088-.085-.177-.135-.267H507.457c.148,1.044.328,2.091.573,3.143"/>
      <path id="path166" d="M70.882-311.7a12.074,12.074,0,0,0-8.9,3.745,12.171,12.171,0,0,0-3.708,8.861,12.321,12.321,0,0,0,3.745,8.972,12.057,12.057,0,0,0,8.861,3.783,12.324,12.324,0,0,0,8.973-3.745,12.222,12.222,0,0,0,3.782-9.009,12.1,12.1,0,0,0-3.708-8.936,12.374,12.374,0,0,0-9.047-3.671"/>
      <path id="path168" d="M47.325-127.469a12.074,12.074,0,0,0-8.9,3.745,12.172,12.172,0,0,0-3.707,8.861,12.32,12.32,0,0,0,3.745,8.972,12.055,12.055,0,0,0,8.861,3.783,12.321,12.321,0,0,0,8.972-3.746,12.221,12.221,0,0,0,3.782-9.009,12.1,12.1,0,0,0-3.708-8.936,12.373,12.373,0,0,0-9.046-3.67"/>
      <path id="path170" d="M260.851-441.41a12.073,12.073,0,0,0-8.9,3.745,12.172,12.172,0,0,0-3.708,8.861,12.317,12.317,0,0,0,3.745,8.972,12.053,12.053,0,0,0,8.861,3.783,12.317,12.317,0,0,0,8.972-3.745,12.223,12.223,0,0,0,3.783-9.009,12.1,12.1,0,0,0-3.708-8.936,12.375,12.375,0,0,0-9.047-3.671"/>
      <path id="path172" d="M435.254-130.8a12.1,12.1,0,0,0-3.708-8.934,12.366,12.366,0,0,0-9.047-3.671,12.074,12.074,0,0,0-8.9,3.744,12.174,12.174,0,0,0-3.708,8.861,12.322,12.322,0,0,0,3.744,8.973,12.056,12.056,0,0,0,8.861,3.781,12.318,12.318,0,0,0,8.973-3.745,12.219,12.219,0,0,0,3.781-9.009"/>
      <path id="path174" d="M296.546-61.356a12.077,12.077,0,0,0-8.9,3.745,12.174,12.174,0,0,0-3.708,8.861,12.322,12.322,0,0,0,3.745,8.972,12.056,12.056,0,0,0,8.861,3.783,12.314,12.314,0,0,0,8.972-3.745,12.223,12.223,0,0,0,3.783-9.009,12.1,12.1,0,0,0-3.708-8.936,12.373,12.373,0,0,0-9.047-3.671"/>
      <path id="path176" d="M225.146-303.971a9.266,9.266,0,0,0-.556,2.781,7.311,7.311,0,0,0,2.669,5.487,8.661,8.661,0,0,0,6.007,2.448,5.419,5.419,0,0,0,3.151-1,13.465,13.465,0,0,0,3.077-3.3l9.121-13.051L257-297.7a8.966,8.966,0,0,0,2.892,2.892,6.627,6.627,0,0,0,3.485,1.039,8.318,8.318,0,0,0,5.857-2.448,7.326,7.326,0,0,0,2.6-5.413,7.123,7.123,0,0,0-.52-2.595,9.492,9.492,0,0,0-1.556-2.6l-9.715-12.087,14.089-3.856a8.325,8.325,0,0,0,4.412-2.521,6.611,6.611,0,0,0,1.52-4.449,9.328,9.328,0,0,0-2.076-6.192,6.35,6.35,0,0,0-5.043-2.484,8.211,8.211,0,0,0-1.743.223,21,21,0,0,0-2.113.593l-13.2,4.968.3-14.237v-.445a8.316,8.316,0,0,0-2-6.007,7.563,7.563,0,0,0-5.709-2.076,8.1,8.1,0,0,0-5.859,2,7.563,7.563,0,0,0-2.076,5.709v.816l.668,14.237L227.185-337.6q-1.334-.446-2.076-.631a5.8,5.8,0,0,0-1.409-.185,6.493,6.493,0,0,0-5.191,2.484,9.328,9.328,0,0,0-2.076,6.192,6.467,6.467,0,0,0,1.52,4.412,8.947,8.947,0,0,0,4.56,2.559l14.683,3.856-10.6,12.607a6.976,6.976,0,0,0-1.445,2.335"/>
      <path id="path178" d="M40.429-151.786q1.409-1.372,1.928-5.3l4.375-38.561q.3-2.742.482-6.413t.185-7.676q0-13.866-2.521-17.5t-9.195-3.633a13.23,13.23,0,0,0-7.342,1.965,7.705,7.705,0,0,0-3.633,5.228,40,40,0,0,0-.556,4.931q-.185,3-.185,10.641,0,3.04.148,6.155t.445,6.3l4.449,38.561q.445,3.856,1.928,5.264t4.746,1.409q3.337,0,4.746-1.372"/>
      <path id="path180" d="M7.1-366.288l25.762,29.035q2.576,2.9,4.6,3.207t4.7-1.568q2.734-1.914,3.1-3.847T43.8-344.91l-18.533-34.1q-1.331-2.418-3.284-5.532t-4.251-6.392q-7.953-11.36-12.1-12.889A8.045,8.045,0,0,0,0-403.663v28.231c1.007,1.416,2.034,2.831,3.121,4.236q1.908,2.466,3.98,4.908"/>
      <path id="path182" d="M226.873-476.063l38.72,2.744q3.87.274,5.529-.924t2.261-4.4q.616-3.28-.473-4.917t-4.855-2.873l-37.091-11.416q-2.642-.8-6.215-1.657t-7.509-1.6q-13.628-2.56-17.665-.752t-5.268,8.367a13.232,13.232,0,0,0,.577,7.577,7.705,7.705,0,0,0,4.467,4.536,39.924,39.924,0,0,0,4.744,1.457q2.918.736,10.424,2.145,2.988.562,6.077.991t6.276.725"/>
      <path id="path184" d="M356.735-527.719l-32.828,20.7q-3.314,2.174-3.937,4.04t.827,4.871q1.418,2.938,3.332,3.661t5.579-.551l36.663-12.749q3-1.118,5.871-2.337t5.608-2.541q6.88-3.32,9.5-4.791a39.761,39.761,0,0,0,4.2-2.644,7.7,7.7,0,0,0,3.129-5.544,13.222,13.222,0,0,0-1.42-7.467c-.044-.091-.092-.169-.136-.259H366.9c-1.585.795-3.133,1.591-4.6,2.392q-3.226,1.762-5.568,3.221"/>
      <path id="path186" d="M147.4-85.456a11.389,11.389,0,0,0-8.453,3.56,11.841,11.841,0,0,0-3.485,8.6,11.485,11.485,0,0,0,3.521,8.416,11.486,11.486,0,0,0,8.417,3.522,11.841,11.841,0,0,0,8.6-3.485,11.39,11.39,0,0,0,3.56-8.454,11.813,11.813,0,0,0-3.485-8.639,11.716,11.716,0,0,0-8.676-3.523"/>
      <path id="path188" d="M174.2-165.95q-10.122-8.786-27.252-8.787a43.434,43.434,0,0,0-14.9,2.373,33.941,33.941,0,0,0-11.791,7.341,30.931,30.931,0,0,0-6.748,8.861,20.872,20.872,0,0,0-2.373,9.305,10.32,10.32,0,0,0,2.447,7.305,8.857,8.857,0,0,0,6.822,2.632q7.045,0,11.271-8.38,1.038-2.076,1.632-3.04a14.808,14.808,0,0,1,5.709-5.857,17.057,17.057,0,0,1,8.38-1.929q6.6,0,10.456,4.043t3.856,10.863q0,7.934-10.679,16.611-3.634,2.966-5.413,4.672a27.131,27.131,0,0,0-5.859,7.787,18.739,18.739,0,0,0-2.076,8.3,9.524,9.524,0,0,0,2.744,7.268q2.744,2.6,7.787,2.595a9.968,9.968,0,0,0,5.339-1.372,8.763,8.763,0,0,0,3.411-4.041q.148-.3,1.149-3.411a16.5,16.5,0,0,1,2.559-5.116,40.359,40.359,0,0,1,7.489-6.674,61.938,61.938,0,0,0,7.639-6.378,32.374,32.374,0,0,0,6.636-9.936,31.439,31.439,0,0,0,1.891-11.495q0-14.756-10.121-23.544"/>
      <path id="path190" d="M134.2-342.811a30.957,30.957,0,0,0,10.893-2.327,20.876,20.876,0,0,0,7.863-5.515,10.311,10.311,0,0,0,2.9-7.136,8.856,8.856,0,0,0-3.46-6.441q-5.346-4.59-14.011-.985-2.14.9-3.219,1.244a14.819,14.819,0,0,1-8.148.724,17.072,17.072,0,0,1-7.613-4q-5.007-4.3-5.3-9.877t4.152-10.755q5.169-6.02,18.923-5.645,4.688.116,7.149-.017a27.105,27.105,0,0,0,9.517-2.092,18.741,18.741,0,0,0,6.985-4.948,9.522,9.522,0,0,0,2.653-7.3q-.392-3.756-4.217-7.041a9.983,9.983,0,0,0-4.944-2.437,8.774,8.774,0,0,0-5.22.844q-.306.13-3.095,1.84a16.5,16.5,0,0,1-5.275,2.215,40.277,40.277,0,0,1-10.029.184,62.1,62.1,0,0,0-9.949-.137,32.386,32.386,0,0,0-11.508,3.216,31.425,31.425,0,0,0-8.922,7.488q-9.613,11.2-7.658,24.456t14.951,24.42a43.464,43.464,0,0,0,12.854,7.911,33.973,33.973,0,0,0,13.727,2.111"/>
      <path id="path192" d="M181.142-439.143a11.844,11.844,0,0,0-8.8-2.959,11.387,11.387,0,0,0-8.208,4.095,11.817,11.817,0,0,0-2.984,8.824,11.715,11.715,0,0,0,4.288,8.325,11.4,11.4,0,0,0,8.733,2.807,11.843,11.843,0,0,0,8.247-4.256,11.483,11.483,0,0,0,2.811-8.68,11.48,11.48,0,0,0-4.091-8.156"/>
      <path id="path194" d="M61.607-497.14a11.486,11.486,0,0,0,9.045,1.195,11.488,11.488,0,0,0,7.281-5.5,11.847,11.847,0,0,0,1.32-9.187,11.4,11.4,0,0,0-5.512-7.332,11.811,11.811,0,0,0-9.219-1.339,11.716,11.716,0,0,0-7.412,5.723,11.4,11.4,0,0,0-1.181,9.1,11.845,11.845,0,0,0,5.678,7.343"/>
      <path id="path196" d="M26.421-529.4A27.125,27.125,0,0,0,30.2-520.42a18.75,18.75,0,0,0,6.131,5.976,9.52,9.52,0,0,0,7.66,1.288q3.624-1.064,6.163-5.42a9.978,9.978,0,0,0,1.5-5.3,8.779,8.779,0,0,0-1.775-4.983q-.182-.276-2.369-2.709a20.842,20.842,0,0,1-1.408-1.76H25.632c.283,1.593.548,2.927.79,3.931"/>
      <path id="path198" d="M0-524.8v6.437A10.965,10.965,0,0,0,0-524.8"/>
      <path id="path200" d="M348.4-337.006a12.074,12.074,0,0,0-8.9,3.744A12.175,12.175,0,0,0,335.8-324.4a12.322,12.322,0,0,0,3.744,8.973,12.057,12.057,0,0,0,8.861,3.781,12.322,12.322,0,0,0,8.973-3.744,12.224,12.224,0,0,0,3.781-9.011,12.1,12.1,0,0,0-3.707-8.935,12.371,12.371,0,0,0-9.048-3.671"/>
      <path id="path202" d="M353.494-451.652a12.222,12.222,0,0,0,3.781-9.009,12.1,12.1,0,0,0-3.708-8.936,12.371,12.371,0,0,0-9.047-3.671,12.075,12.075,0,0,0-8.9,3.745,12.176,12.176,0,0,0-3.707,8.861,12.321,12.321,0,0,0,3.744,8.972,12.058,12.058,0,0,0,8.861,3.783,12.318,12.318,0,0,0,8.973-3.745"/>
      <path id="path204" d="M521.233-204.726a12.172,12.172,0,0,0-3.708,8.861,12.321,12.321,0,0,0,3.744,8.972,12.058,12.058,0,0,0,8.861,3.783,12.824,12.824,0,0,0,3.2-.405v-24.576a13.62,13.62,0,0,0-3.2-.38,12.075,12.075,0,0,0-8.9,3.745"/>
      <path id="path206" d="M289.442-140.806q2.872-2.292,5.872-4.945,10.388-9.186,11.439-13.483t-3.369-9.295a13.229,13.229,0,0,0-6.335-4.2,7.708,7.708,0,0,0-6.324.741,39.879,39.879,0,0,0-4.061,2.851q-2.374,1.85-8.095,6.909-2.278,2.014-4.512,4.189t-4.427,4.508l-25.939,28.878q-2.594,2.886-2.667,4.932t2.089,4.488q2.21,2.5,4.171,2.646t5.249-2.068l31.784-22.268q2.252-1.6,5.124-3.888"/>
      <path id="path208" d="M323.87-389.236q-.544-2.992-1.247-6.029t-1.565-6.123L309.781-438.53q-1.128-3.714-2.84-4.835t-4.921-.537q-3.282.6-4.423,2.2t-.949,5.561l2.6,38.72q.2,2.752.673,6.4t1.191,7.584q2.482,13.644,5.613,16.767t9.7,1.929a13.225,13.225,0,0,0,6.872-3.247,7.712,7.712,0,0,0,2.639-5.793,40.086,40.086,0,0,0-.335-4.952q-.356-2.988-1.723-10.5"/>
      <path id="path210" d="M437.412-181.552q12.824-3.9,21.932-18.408a43.439,43.439,0,0,0,5.916-13.884,33.973,33.973,0,0,0,.051-13.889,30.923,30.923,0,0,0-3.917-10.427,20.86,20.86,0,0,0-6.62-6.959,10.309,10.309,0,0,0-7.487-1.811,8.851,8.851,0,0,0-5.857,4.379q-3.746,5.966,1.1,14,1.206,1.982,1.708,3a14.832,14.832,0,0,1,1.925,7.951,17.071,17.071,0,0,1-2.823,8.123q-3.51,5.59-8.983,6.707t-11.251-2.511q-6.72-4.22-8.391-17.876-.58-4.654-1.077-7.068a27.112,27.112,0,0,0-3.48-9.1,18.745,18.745,0,0,0-5.931-6.175,9.519,9.519,0,0,0-7.613-1.54q-3.656.944-6.337,5.215a9.963,9.963,0,0,0-1.677,5.251,8.767,8.767,0,0,0,1.609,5.037q.172.284,2.277,2.788a16.494,16.494,0,0,1,2.973,4.887,40.4,40.4,0,0,1,1.671,9.892,61.893,61.893,0,0,0,1.34,9.86,32.4,32.4,0,0,0,4.887,10.9,31.441,31.441,0,0,0,8.729,7.712q12.5,7.846,25.321,3.945"/>
      <path id="path212" d="M379.54-263.63a11.488,11.488,0,0,0-9-1.492,11.485,11.485,0,0,0-7.457,5.255,11.849,11.849,0,0,0-1.623,9.139,11.394,11.394,0,0,0,5.268,7.509,11.807,11.807,0,0,0,9.169,1.641,11.71,11.71,0,0,0,7.6-5.475,11.389,11.389,0,0,0,1.48-9.052,11.838,11.838,0,0,0-5.432-7.525"/>
      <path id="path214" d="M460.084-389.734a11.39,11.39,0,0,0,8.732,2.807,11.848,11.848,0,0,0,8.248-4.256,11.488,11.488,0,0,0,2.811-8.68,11.492,11.492,0,0,0-4.091-8.156,11.847,11.847,0,0,0-8.8-2.959,11.385,11.385,0,0,0-8.207,4.095,11.807,11.807,0,0,0-2.984,8.824,11.71,11.71,0,0,0,4.288,8.325"/>
      <path id="path216" d="M402.258-321.709a43.457,43.457,0,0,0,12.855,7.911,33.97,33.97,0,0,0,13.728,2.111,30.948,30.948,0,0,0,10.892-2.327,20.862,20.862,0,0,0,7.863-5.515,10.319,10.319,0,0,0,2.9-7.136,8.856,8.856,0,0,0-3.461-6.441q-5.344-4.59-14.011-.985-2.14.9-3.219,1.244a14.818,14.818,0,0,1-8.148.724,17.075,17.075,0,0,1-7.613-4q-5.006-4.3-5.3-9.877t4.152-10.755q5.17-6.018,18.923-5.645,4.688.116,7.151-.017a27.126,27.126,0,0,0,9.516-2.091,18.749,18.749,0,0,0,6.987-4.949,9.52,9.52,0,0,0,2.652-7.3q-.39-3.758-4.216-7.041a9.986,9.986,0,0,0-4.944-2.439,8.78,8.78,0,0,0-5.221.844q-.306.13-3.095,1.84a16.507,16.507,0,0,1-5.273,2.215,40.289,40.289,0,0,1-10.031.184,62.1,62.1,0,0,0-9.949-.137,32.38,32.38,0,0,0-11.508,3.216,31.42,31.42,0,0,0-8.923,7.488q-9.614,11.2-7.659,24.456t14.951,24.42"/>
      <path id="path218" d="M425.578-441.41a13.47,13.47,0,0,0,10.069-3.993,14.258,14.258,0,0,0,3.905-10.416q0-6.162-3.255-9.723a11.356,11.356,0,0,0-8.811-3.559,8.57,8.57,0,0,0-3.168.564,11.223,11.223,0,0,0-3,1.867,2.271,2.271,0,0,1-.216-.825q-.044-.476-.044-1.432a12.07,12.07,0,0,1,2.3-7.2,16.648,16.648,0,0,1,6.381-5.209q1.734-.866,4.427-1.909,5.728-2.344,5.729-5.643a5.779,5.779,0,0,0-1.216-3.863,4.2,4.2,0,0,0-3.385-1.432q-10.33,0-18.576,9.115a30.918,30.918,0,0,0-8.247,21.441q0,10.242,4.6,16.232a14.917,14.917,0,0,0,12.5,5.989"/>
      <path id="path220" d="M249.727-203.64a30.917,30.917,0,0,0,8.247-21.44q0-10.244-4.6-16.233a14.92,14.92,0,0,0-12.5-5.989,13.468,13.468,0,0,0-10.069,3.993,14.259,14.259,0,0,0-3.907,10.416q0,6.164,3.255,9.723a11.357,11.357,0,0,0,8.812,3.559,8.575,8.575,0,0,0,3.168-.564,11.216,11.216,0,0,0,2.995-1.867,2.272,2.272,0,0,1,.217.825c.029.317.043.795.043,1.432a12.077,12.077,0,0,1-2.3,7.205,16.663,16.663,0,0,1-6.38,5.208q-1.734.866-4.427,1.909-5.73,2.344-5.729,5.643a5.779,5.779,0,0,0,1.215,3.863,4.2,4.2,0,0,0,3.385,1.432q10.332,0,18.576-9.115"/>
      <path id="path222" d="M471.139-71.047a14.26,14.26,0,0,0-11.088.906q-5.574,2.627-7.408,7.089a11.35,11.35,0,0,0,.536,9.487,8.535,8.535,0,0,0,1.861,2.625A11.168,11.168,0,0,0,458-49.025a2.282,2.282,0,0,1-.653.548q-.412.241-1.277.649a12.064,12.064,0,0,1-7.5.99,16.657,16.657,0,0,1-7.432-3.552q-1.522-1.2-3.613-3.191-4.562-4.184-7.547-2.779a5.782,5.782,0,0,0-2.976,2.746,4.2,4.2,0,0,0,.147,3.672q4.4,9.345,16.163,12.921A30.917,30.917,0,0,0,466.228-38.7q9.266-4.366,12.724-11.08a14.92,14.92,0,0,0,.091-13.861,13.469,13.469,0,0,0-7.9-7.407"/>
      <path id="path224" d="M9.554-195.865A12.1,12.1,0,0,0,5.846-204.8,12.254,12.254,0,0,0,0-208.092v24.576a12.5,12.5,0,0,0,5.772-3.34,12.222,12.222,0,0,0,3.782-9.009"/>
      <path id="path226" d="M1046.411-24.814a43.458,43.458,0,0,0-5.455,14.073A33.45,33.45,0,0,0,1040.789,0h21.425a14.725,14.725,0,0,1-2.052-7.616,17.063,17.063,0,0,1,2.553-8.21,16.216,16.216,0,0,1,3.948-4.671V-43.511c-7.988,3.043-14.749,9.251-20.253,18.7"/>
      <path id="path228" d="M919.324-6.444q-4.368-.691-16.857,5.335c-.764.368-1.493.739-2.232,1.109h26.221c-1.911-3.837-4.287-5.993-7.132-6.444"/>
      <path id="path230" d="M575.716-12.859a61.859,61.859,0,0,0-1.664-9.809,32.407,32.407,0,0,0-5.244-10.737,31.468,31.468,0,0,0-8.979-7.421q-12.75-7.428-25.439-3.108c-.36.123-.7.29-1.059.424V-20.5a12.349,12.349,0,0,1,4.808-2.328q5.432-1.3,11.327,2.137,6.856,4,8.976,17.59c.181,1.148.353,2.157.521,3.1h20.472a14.525,14.525,0,0,1-1.724-3.027,40.423,40.423,0,0,1-2-9.832"/>
      <path id="path232" d="M1057.787-395.7a7.711,7.711,0,0,0,.021,6.367,40.294,40.294,0,0,0,2.373,4.359q1.57,2.566,5.952,8.823c.169.241.36.48.531.721v-28.231a17.052,17.052,0,0,0-3.991,2.141,13.219,13.219,0,0,0-4.887,5.82"/>
      <path id="path234" d="M1041.363-530.189a30.946,30.946,0,0,0,4.259,10.292,20.884,20.884,0,0,0,6.847,6.736,10.311,10.311,0,0,0,7.543,1.563,8.854,8.854,0,0,0,5.709-4.568,10.844,10.844,0,0,0,.944-2.193V-524.8a19.716,19.716,0,0,0-2.509-5.327q-1.272-1.944-1.805-2.941c-.052-.088-.085-.177-.135-.267H1040.79c.148,1.044.328,2.091.573,3.143"/>
      <path id="path236" d="M604.215-311.7a12.073,12.073,0,0,0-8.9,3.745,12.17,12.17,0,0,0-3.708,8.861,12.317,12.317,0,0,0,3.745,8.972,12.056,12.056,0,0,0,8.861,3.783,12.322,12.322,0,0,0,8.972-3.745,12.223,12.223,0,0,0,3.783-9.009,12.1,12.1,0,0,0-3.708-8.936,12.375,12.375,0,0,0-9.047-3.671"/>
      <path id="path238" d="M580.657-127.469a12.073,12.073,0,0,0-8.9,3.745,12.17,12.17,0,0,0-3.708,8.861,12.317,12.317,0,0,0,3.745,8.972,12.054,12.054,0,0,0,8.861,3.783,12.321,12.321,0,0,0,8.972-3.746,12.221,12.221,0,0,0,3.781-9.009A12.1,12.1,0,0,0,589.7-123.8a12.376,12.376,0,0,0-9.047-3.67"/>
      <path id="path240" d="M794.183-441.41a12.073,12.073,0,0,0-8.9,3.745,12.172,12.172,0,0,0-3.708,8.861,12.317,12.317,0,0,0,3.745,8.972,12.054,12.054,0,0,0,8.861,3.783,12.317,12.317,0,0,0,8.972-3.745,12.223,12.223,0,0,0,3.783-9.009,12.1,12.1,0,0,0-3.708-8.936,12.376,12.376,0,0,0-9.047-3.671"/>
      <path id="path242" d="M968.586-130.8a12.1,12.1,0,0,0-3.708-8.934,12.366,12.366,0,0,0-9.047-3.671,12.079,12.079,0,0,0-8.9,3.744,12.178,12.178,0,0,0-3.707,8.861,12.322,12.322,0,0,0,3.744,8.973,12.056,12.056,0,0,0,8.861,3.781,12.317,12.317,0,0,0,8.973-3.745,12.219,12.219,0,0,0,3.781-9.009"/>
      <path id="path244" d="M829.878-61.356a12.077,12.077,0,0,0-8.9,3.745,12.174,12.174,0,0,0-3.708,8.861,12.322,12.322,0,0,0,3.745,8.972,12.056,12.056,0,0,0,8.861,3.783,12.314,12.314,0,0,0,8.972-3.745,12.223,12.223,0,0,0,3.783-9.009,12.1,12.1,0,0,0-3.708-8.936,12.373,12.373,0,0,0-9.047-3.671"/>
      <path id="path246" d="M758.478-303.971a9.263,9.263,0,0,0-.556,2.781,7.311,7.311,0,0,0,2.669,5.487,8.661,8.661,0,0,0,6.007,2.448,5.418,5.418,0,0,0,3.151-1,13.464,13.464,0,0,0,3.077-3.3l9.121-13.051,8.38,12.9a8.966,8.966,0,0,0,2.892,2.892,6.627,6.627,0,0,0,3.485,1.039,8.318,8.318,0,0,0,5.857-2.448,7.326,7.326,0,0,0,2.6-5.413,7.123,7.123,0,0,0-.52-2.595,9.492,9.492,0,0,0-1.556-2.6l-9.715-12.087,14.089-3.856a8.325,8.325,0,0,0,4.412-2.521,6.611,6.611,0,0,0,1.52-4.449,9.328,9.328,0,0,0-2.076-6.192,6.35,6.35,0,0,0-5.043-2.484,8.211,8.211,0,0,0-1.743.223,21,21,0,0,0-2.113.593l-13.2,4.968.3-14.237v-.445a8.316,8.316,0,0,0-2-6.007A7.563,7.563,0,0,0,781.8-355.4a8.1,8.1,0,0,0-5.859,2,7.563,7.563,0,0,0-2.076,5.709v.816l.668,14.237L760.517-337.6q-1.334-.446-2.076-.631a5.8,5.8,0,0,0-1.409-.185,6.493,6.493,0,0,0-5.191,2.484,9.328,9.328,0,0,0-2.076,6.192,6.467,6.467,0,0,0,1.52,4.412,8.947,8.947,0,0,0,4.56,2.559l14.683,3.856-10.6,12.607a6.975,6.975,0,0,0-1.445,2.335"/>
      <path id="path248" d="M573.76-151.786q1.41-1.372,1.928-5.3l4.376-38.561q.3-2.742.481-6.413t.185-7.676q0-13.866-2.521-17.5t-9.195-3.633a13.228,13.228,0,0,0-7.341,1.965,7.7,7.7,0,0,0-3.633,5.228,39.666,39.666,0,0,0-.556,4.931q-.186,3-.185,10.641,0,3.04.148,6.155t.445,6.3l4.449,38.561q.444,3.856,1.928,5.264t4.745,1.409q3.336,0,4.745-1.372"/>
      <path id="path250" d="M540.432-366.288l25.763,29.035q2.576,2.9,4.6,3.207t4.7-1.568q2.734-1.914,3.1-3.847t-1.463-5.448l-18.533-34.1q-1.33-2.418-3.284-5.532t-4.251-6.392q-7.954-11.36-12.1-12.889a8.046,8.046,0,0,0-5.625.156v28.231c1.007,1.416,2.033,2.831,3.121,4.236q1.908,2.466,3.979,4.908"/>
      <path id="path252" d="M760.2-476.063l38.72,2.744q3.87.274,5.529-.924t2.261-4.4q.616-3.28-.473-4.917t-4.855-2.873L764.3-497.853q-2.642-.8-6.215-1.657t-7.509-1.6q-13.628-2.56-17.665-.752t-5.268,8.367a13.231,13.231,0,0,0,.577,7.577,7.705,7.705,0,0,0,4.467,4.536,39.922,39.922,0,0,0,4.744,1.457q2.918.736,10.424,2.145,2.988.562,6.077.991t6.276.725"/>
      <path id="path254" d="M890.067-527.719l-32.828,20.7q-3.314,2.174-3.937,4.04t.827,4.871q1.418,2.938,3.332,3.661t5.579-.551L899.7-507.749q3-1.118,5.869-2.337t5.608-2.541q6.878-3.32,9.5-4.791a39.749,39.749,0,0,0,4.2-2.644,7.7,7.7,0,0,0,3.129-5.544,13.222,13.222,0,0,0-1.42-7.467c-.044-.091-.092-.169-.136-.259H900.235c-1.585.795-3.133,1.591-4.6,2.392q-3.226,1.762-5.568,3.221"/>
      <path id="path256" d="M680.728-85.456a11.389,11.389,0,0,0-8.453,3.56,11.841,11.841,0,0,0-3.485,8.6,11.484,11.484,0,0,0,3.521,8.416,11.486,11.486,0,0,0,8.417,3.522,11.841,11.841,0,0,0,8.6-3.485,11.389,11.389,0,0,0,3.56-8.454,11.813,11.813,0,0,0-3.485-8.639,11.716,11.716,0,0,0-8.676-3.523"/>
      <path id="path258" d="M707.534-165.95q-10.122-8.786-27.252-8.787a43.44,43.44,0,0,0-14.905,2.373,33.941,33.941,0,0,0-11.789,7.341,30.9,30.9,0,0,0-6.748,8.861,20.862,20.862,0,0,0-2.373,9.305,10.322,10.322,0,0,0,2.447,7.305,8.857,8.857,0,0,0,6.823,2.632q7.044,0,11.271-8.38,1.038-2.076,1.632-3.04a14.809,14.809,0,0,1,5.709-5.857,17.057,17.057,0,0,1,8.38-1.929q6.6,0,10.456,4.043t3.856,10.863q0,7.934-10.679,16.611-3.634,2.966-5.413,4.672a27.131,27.131,0,0,0-5.859,7.787,18.738,18.738,0,0,0-2.076,8.3,9.523,9.523,0,0,0,2.744,7.268q2.744,2.6,7.787,2.595a9.968,9.968,0,0,0,5.339-1.372,8.763,8.763,0,0,0,3.411-4.041q.148-.3,1.149-3.411A16.5,16.5,0,0,1,694-107.924a40.358,40.358,0,0,1,7.489-6.674,61.946,61.946,0,0,0,7.639-6.378,32.374,32.374,0,0,0,6.636-9.936,31.44,31.44,0,0,0,1.891-11.495q0-14.756-10.121-23.544"/>
      <path id="path260" d="M667.53-342.811a30.958,30.958,0,0,0,10.893-2.327,20.887,20.887,0,0,0,7.863-5.515,10.31,10.31,0,0,0,2.9-7.136,8.856,8.856,0,0,0-3.46-6.441q-5.346-4.59-14.011-.985-2.14.9-3.219,1.244a14.818,14.818,0,0,1-8.148.724,17.069,17.069,0,0,1-7.613-4q-5.008-4.3-5.3-9.877t4.152-10.755q5.168-6.02,18.923-5.645,4.688.116,7.149-.017a27.1,27.1,0,0,0,9.517-2.092,18.741,18.741,0,0,0,6.985-4.948,9.522,9.522,0,0,0,2.653-7.3q-.392-3.756-4.217-7.041a9.983,9.983,0,0,0-4.944-2.437,8.774,8.774,0,0,0-5.22.844q-.306.13-3.095,1.84a16.5,16.5,0,0,1-5.275,2.215,40.276,40.276,0,0,1-10.029.184,62.1,62.1,0,0,0-9.949-.137,32.4,32.4,0,0,0-11.509,3.216,31.435,31.435,0,0,0-8.921,7.488q-9.614,11.2-7.659,24.456t14.951,24.42a43.458,43.458,0,0,0,12.855,7.911,33.968,33.968,0,0,0,13.727,2.111"/>
      <path id="path262" d="M714.474-439.143a11.844,11.844,0,0,0-8.8-2.959,11.388,11.388,0,0,0-8.208,4.095,11.817,11.817,0,0,0-2.984,8.824,11.715,11.715,0,0,0,4.288,8.325,11.4,11.4,0,0,0,8.733,2.807,11.843,11.843,0,0,0,8.247-4.256,11.482,11.482,0,0,0,2.811-8.68,11.479,11.479,0,0,0-4.091-8.156"/>
      <path id="path264" d="M594.939-497.14a11.486,11.486,0,0,0,9.045,1.195,11.49,11.49,0,0,0,7.281-5.5,11.846,11.846,0,0,0,1.319-9.187,11.388,11.388,0,0,0-5.512-7.332,11.81,11.81,0,0,0-9.219-1.339,11.711,11.711,0,0,0-7.411,5.723,11.393,11.393,0,0,0-1.181,9.1,11.845,11.845,0,0,0,5.677,7.343"/>
      <path id="path266" d="M559.753-529.4a27.1,27.1,0,0,0,3.779,8.981,18.754,18.754,0,0,0,6.129,5.976,9.524,9.524,0,0,0,7.661,1.288q3.624-1.064,6.163-5.42a9.986,9.986,0,0,0,1.5-5.3,8.778,8.778,0,0,0-1.775-4.983q-.182-.276-2.368-2.709a20.6,20.6,0,0,1-1.409-1.76H558.964c.283,1.593.548,2.927.789,3.931"/>
      <path id="path268" d="M533.332-524.8v6.437a10.967,10.967,0,0,0,0-6.437"/>
      <path id="path270" d="M881.737-337.006a12.074,12.074,0,0,0-8.9,3.744,12.175,12.175,0,0,0-3.708,8.861,12.322,12.322,0,0,0,3.744,8.973,12.057,12.057,0,0,0,8.861,3.781,12.322,12.322,0,0,0,8.973-3.744,12.224,12.224,0,0,0,3.781-9.011,12.1,12.1,0,0,0-3.707-8.935,12.371,12.371,0,0,0-9.048-3.671"/>
      <path id="path272" d="M886.826-451.652a12.222,12.222,0,0,0,3.781-9.009A12.1,12.1,0,0,0,886.9-469.6a12.371,12.371,0,0,0-9.047-3.671,12.075,12.075,0,0,0-8.9,3.745,12.176,12.176,0,0,0-3.707,8.861,12.321,12.321,0,0,0,3.744,8.972,12.058,12.058,0,0,0,8.861,3.783,12.318,12.318,0,0,0,8.973-3.745"/>
      <path id="path274" d="M1054.565-204.726a12.173,12.173,0,0,0-3.708,8.861,12.321,12.321,0,0,0,3.744,8.972,12.057,12.057,0,0,0,8.861,3.783,12.823,12.823,0,0,0,3.2-.405v-24.576a13.619,13.619,0,0,0-3.2-.38,12.075,12.075,0,0,0-8.9,3.745"/>
      <path id="path276" d="M822.774-140.806q2.872-2.292,5.872-4.945,10.388-9.186,11.439-13.483t-3.369-9.295a13.23,13.23,0,0,0-6.335-4.2,7.708,7.708,0,0,0-6.324.741A39.879,39.879,0,0,0,820-169.134q-2.374,1.85-8.095,6.909-2.278,2.014-4.512,4.189t-4.427,4.508l-25.939,28.878q-2.594,2.886-2.667,4.932t2.089,4.488q2.21,2.5,4.171,2.646t5.249-2.068l31.784-22.268q2.252-1.6,5.124-3.888"/>
      <path id="path278" d="M857.2-389.236q-.544-2.992-1.247-6.029t-1.565-6.123L843.112-438.53q-1.128-3.714-2.84-4.835t-4.921-.537q-3.282.6-4.423,2.2t-.948,5.561l2.595,38.72q.2,2.752.673,6.4t1.191,7.584q2.482,13.644,5.613,16.767t9.7,1.929a13.225,13.225,0,0,0,6.872-3.247,7.712,7.712,0,0,0,2.639-5.793,40.092,40.092,0,0,0-.335-4.952q-.356-2.988-1.723-10.5"/>
      <path id="path280" d="M970.744-181.552q12.824-3.9,21.932-18.408a43.444,43.444,0,0,0,5.916-13.884,33.975,33.975,0,0,0,.051-13.889,30.925,30.925,0,0,0-3.917-10.427,20.862,20.862,0,0,0-6.62-6.959,10.309,10.309,0,0,0-7.487-1.811,8.851,8.851,0,0,0-5.857,4.379q-3.746,5.966,1.1,14,1.206,1.982,1.708,3A14.831,14.831,0,0,1,979.5-217.6a17.071,17.071,0,0,1-2.823,8.123q-3.51,5.59-8.983,6.707t-11.251-2.511q-6.72-4.22-8.391-17.876-.58-4.654-1.079-7.068a27.082,27.082,0,0,0-3.479-9.1,18.745,18.745,0,0,0-5.931-6.175,9.519,9.519,0,0,0-7.613-1.54q-3.656.944-6.337,5.215a9.963,9.963,0,0,0-1.677,5.251,8.767,8.767,0,0,0,1.609,5.037q.172.284,2.277,2.788a16.494,16.494,0,0,1,2.973,4.887,40.405,40.405,0,0,1,1.671,9.892,61.91,61.91,0,0,0,1.34,9.86,32.4,32.4,0,0,0,4.887,10.9,31.423,31.423,0,0,0,8.729,7.712q12.5,7.846,25.321,3.945"/>
      <path id="path282" d="M912.872-263.63a11.488,11.488,0,0,0-9-1.492,11.485,11.485,0,0,0-7.457,5.255,11.848,11.848,0,0,0-1.623,9.139,11.394,11.394,0,0,0,5.268,7.509,11.807,11.807,0,0,0,9.169,1.641,11.71,11.71,0,0,0,7.6-5.475,11.389,11.389,0,0,0,1.48-9.052,11.842,11.842,0,0,0-5.432-7.525"/>
      <path id="path284" d="M993.416-389.734a11.39,11.39,0,0,0,8.732,2.807,11.848,11.848,0,0,0,8.248-4.256,11.488,11.488,0,0,0,2.811-8.68,11.493,11.493,0,0,0-4.091-8.156,11.847,11.847,0,0,0-8.8-2.959,11.385,11.385,0,0,0-8.207,4.095,11.806,11.806,0,0,0-2.984,8.824,11.71,11.71,0,0,0,4.288,8.325"/>
      <path id="path286" d="M935.59-321.709a43.456,43.456,0,0,0,12.855,7.911,33.97,33.97,0,0,0,13.728,2.111,30.948,30.948,0,0,0,10.892-2.327,20.861,20.861,0,0,0,7.863-5.515,10.319,10.319,0,0,0,2.9-7.136,8.856,8.856,0,0,0-3.461-6.441q-5.344-4.59-14.011-.985-2.14.9-3.219,1.244a14.818,14.818,0,0,1-8.148.724,17.075,17.075,0,0,1-7.613-4q-5.006-4.3-5.3-9.877t4.152-10.755q5.17-6.018,18.923-5.645,4.688.116,7.151-.017a27.126,27.126,0,0,0,9.516-2.091,18.749,18.749,0,0,0,6.987-4.949,9.52,9.52,0,0,0,2.652-7.3q-.39-3.758-4.216-7.041a9.986,9.986,0,0,0-4.944-2.439,8.78,8.78,0,0,0-5.221.844q-.306.13-3.095,1.84a16.507,16.507,0,0,1-5.273,2.215,40.289,40.289,0,0,1-10.031.184,62.093,62.093,0,0,0-9.949-.137,32.38,32.38,0,0,0-11.508,3.216,31.421,31.421,0,0,0-8.923,7.488q-9.614,11.2-7.659,24.456t14.951,24.42"/>
      <path id="path288" d="M958.91-441.41a13.47,13.47,0,0,0,10.069-3.993,14.258,14.258,0,0,0,3.905-10.416q0-6.162-3.255-9.723a11.356,11.356,0,0,0-8.811-3.559,8.57,8.57,0,0,0-3.168.564,11.224,11.224,0,0,0-3,1.867,2.27,2.27,0,0,1-.216-.825q-.044-.476-.044-1.432a12.071,12.071,0,0,1,2.3-7.2,16.649,16.649,0,0,1,6.381-5.209q1.734-.866,4.427-1.909,5.728-2.344,5.729-5.643a5.779,5.779,0,0,0-1.216-3.863,4.2,4.2,0,0,0-3.385-1.432q-10.33,0-18.576,9.115a30.918,30.918,0,0,0-8.247,21.441q0,10.242,4.6,16.232a14.917,14.917,0,0,0,12.5,5.989"/>
      <path id="path290" d="M783.059-203.64a30.917,30.917,0,0,0,8.247-21.44q0-10.244-4.6-16.233a14.92,14.92,0,0,0-12.5-5.989,13.468,13.468,0,0,0-10.069,3.993,14.259,14.259,0,0,0-3.907,10.416q0,6.164,3.255,9.723a11.357,11.357,0,0,0,8.812,3.559,8.575,8.575,0,0,0,3.168-.564,11.215,11.215,0,0,0,2.995-1.867,2.272,2.272,0,0,1,.217.825c.029.317.043.795.043,1.432a12.077,12.077,0,0,1-2.3,7.205,16.663,16.663,0,0,1-6.38,5.208q-1.734.866-4.427,1.909-5.73,2.344-5.729,5.643a5.78,5.78,0,0,0,1.215,3.863,4.2,4.2,0,0,0,3.385,1.432q10.332,0,18.576-9.115"/>
      <path id="path292" d="M1004.471-71.047a14.26,14.26,0,0,0-11.088.906q-5.574,2.627-7.408,7.089a11.35,11.35,0,0,0,.536,9.487,8.537,8.537,0,0,0,1.861,2.625,11.17,11.17,0,0,0,2.964,1.915,2.283,2.283,0,0,1-.653.548q-.412.241-1.277.649a12.064,12.064,0,0,1-7.5.99,16.657,16.657,0,0,1-7.432-3.552q-1.522-1.2-3.613-3.191-4.562-4.184-7.547-2.779a5.782,5.782,0,0,0-2.976,2.746,4.2,4.2,0,0,0,.147,3.672q4.4,9.345,16.163,12.921A30.917,30.917,0,0,0,999.56-38.7q9.266-4.366,12.724-11.08a14.92,14.92,0,0,0,.091-13.861,13.47,13.47,0,0,0-7.9-7.407"/>
      <path id="path294" d="M542.885-195.865a12.1,12.1,0,0,0-3.707-8.936,12.255,12.255,0,0,0-5.847-3.291v24.576a12.5,12.5,0,0,0,5.772-3.34,12.221,12.221,0,0,0,3.781-9.009"/>
    </g>
  </g>
</svg>
