<svg xmlns="http://www.w3.org/2000/svg" width="267.12" height="828.958" viewBox="0 0 267.12 828.958">
  <g id="_148444" data-name="148444" transform="translate(526.8 829.666) rotate(-90)">
    <path id="Path_17" data-name="Path 17" d="M142.828-526.022c-4.018.843-3.953.843-16.526,7.777-12.962,7.194-16.656,11.277-15.554,17.109.518,2.916,1.555,4.99,4.472,8.814,2.981,3.824,4.018,9.656,2.981,16.137-1.361,8.62-4.99,15.23-15.684,28.84C91.305-433.152,88-427.513,85.991-418.894l-1.037,4.537L74.52-408.2c-5.768,3.435-15.23,8.944-21.128,12.184-5.9,3.305-14.647,8.231-19.443,11.017a107.625,107.625,0,0,1-11.342,5.833c-9.721,3.111-17.758,9.592-20.415,16.526-1.75,4.6-1.879,8.555-.778,31.108.389,8.166.972,20.609,1.361,27.544a184.711,184.711,0,0,1,0,19.119C1.351-267.825,1.351-267.5,2.712-265.1a10.543,10.543,0,0,0,4.407,3.888c3.046,1.555,3.564,1.62,14.841,1.491,71.743-.648,472.973-.907,631.884-.324,137.718.518,124.238.648,129.552-1.1,8.036-2.592,11.6-5.7,16.267-14.323,3.305-5.962,6.286-10.045,13.934-19.119,9.851-11.666,13.934-18.665,14.582-25.146.194-1.815.454-12.119.648-22.813.13-10.693.454-24.822.713-31.432.454-12.9-.324-23.914-2.2-31.627l-1.1-4.342-3.565-.778c-5.7-1.231-18.017-1.62-33.376-.972-8.814.324-17.369.324-22.359,0-4.472-.324-8.36-.648-8.749-.648-.324,0-4.277.454-8.749,1.037-10.888,1.361-22.748,1.491-66.429.454-20.285-.454-88.269-1.037-151-1.231l-114.063-.454-3.629-1.815c-5.444-2.657-9.592-7.323-17.887-19.831a174.483,174.483,0,0,0-10.5-14.582,27.8,27.8,0,0,1-4.537-6.546c-2.657-6.027-6.675-8.684-11.99-7.842-1.426.259-5.12,1.231-8.1,2.139-6.027,1.815-10.629,2.139-12.832.972a18.481,18.481,0,0,1-4.083-4.666A69.443,69.443,0,0,0,328.764-480.2c-5.638-3.759-10.434-5.444-15.813-5.509-5.509-.065-8.166,1.167-13.415,6.222-1.944,1.879-4.925,4.537-6.546,5.9a20.55,20.55,0,0,0-5.055,6.611c-1.815,3.694-2.074,4.925-2.074,9.592-.065,11.73,5.833,23.072,18.406,35.45,7.647,7.583,8.555,9.138,6.481,11.277-1.3,1.231-2.2,1.361-10.3,1.555-4.861.065-12.832-.259-17.628-.713l-8.684-.778-1.879-2.787c-2.722-4.018-8.3-15.554-13.739-28.321-8.684-20.35-12.962-28.062-20.48-37.071-7.647-9.073-10.3-10.369-25.535-12.508-5.249-.778-11.147-1.944-13.091-2.722a19.3,19.3,0,0,1-9.981-8.425c-1.879-3.694-9.981-11.471-16.137-15.489-7.064-4.666-12.508-7-18.665-8.1C148.661-527.059,147.494-527.059,142.828-526.022Zm12.314,5.509c8.944,2.268,17.563,6.87,19.767,10.564,1.426,2.463.843,4.6-1.685,6.416-2.852,2.009-6.092,1.361-12.184-2.4-8.944-5.574-10.175-6.092-15.23-6.092-7.712,0-12.184-1.879-10.758-4.6.972-1.75,3.305-3.176,6.935-4.148C146.393-522,149.568-521.939,155.142-520.514Zm-30.59,14.452c2.333,9.4,2.657,21.063,1.491,64.355-.389,16.2-.454,30.071-.065,38.561.324,7.323.648,13.48.648,13.739a.589.589,0,0,0,.648.518c.389,0,.648-1.167.648-2.592,0-3.111.648-3.305,1.815-.648,1.3,2.787,3.889,4.407,9.268,5.509a25.492,25.492,0,0,1,5.574,1.685,5.568,5.568,0,0,1,.842,3.24v2.463l-5.379-.389a49.2,49.2,0,0,0-9.916.389c-6.286,1.167-18.535.972-23.266-.259-8.62-2.268-14.712-6.675-17.369-12.573-2.074-4.731-2.139-10.693-.194-20.35,2.009-9.916,3.111-12.767,4.861-12.767,2.2,0,2.916,3.694,2.528,13.934-.194,4.99-.194,11.536.065,14.582.324,4.342.518,1.555.972-12.638.259-9.981.713-20.026.907-22.359.454-3.953.583-4.213,2.2-4.407,1.3-.13,2.009.259,2.916,1.555.972,1.555,1.167,3.24,1.167,10.953,0,4.99-.259,14.517-.583,21.128-.389,8.036-.324,12.443.065,13.221,1.361,2.333,1.815-4.342,1.62-22.748-.194-16.267.518-30.2,1.62-33.052a1.226,1.226,0,0,1,1.361-.778c1.815.389,3.5,3.564,3.953,7.453l.454,3.759.454-5.509c.259-3.046.648-6.74.907-8.3.324-2.657.389-2.722,1.3-1.426.518.713,1.231,1.3,1.555,1.3,1.1,0,2.4-4.083,3.111-9.721a85.807,85.807,0,0,1,1.685-9.073c1.426-4.666.907-13.286-1.3-23.59-2.074-9.851-2.139-14.776-.194-16.591C123-509.431,123.774-509.107,124.552-506.061Zm7.907,3.046a37.388,37.388,0,0,1,1.879,8.49l.454,4.861.518-6.481c.907-11.925,2.074-14.712,4.213-9.98,1.1,2.333,1.361,4.342,1.426,11.277.065,4.6.259,11.341.518,14.906l.389,6.481.583-6.157c.324-3.37.648-9.656.713-13.934.259-10.5,1.75-16.008,3.435-12.378,2.4,5.249,2.852,33.117.583,38.172-.843,2.009-1.361,2.463-2.528,2.268-1.167-.13-1.62-.842-2.2-3.111l-.713-2.916-.389,4.731c-.583,7.388-4.8,14.971-5.833,10.629-.13-.583-.324-7.518-.389-15.36s-.259-14.388-.454-14.517a48.367,48.367,0,0,0-.259,7.129c-.065,7.259-2.657,33.312-3.5,34.089-.907.907-2.528-5.055-2.916-10.823-.194-3.37-.13-16.721.194-29.682.583-22.748.583-23.461,1.75-22.424A15.218,15.218,0,0,1,132.459-503.015Zm21.128,1.037a42.567,42.567,0,0,1,1.75,7.259l.843,4.925,1.491-5.574c1.555-5.833,2.852-7.971,3.564-5.768.583,1.75,1.62,13.48,1.685,18.082,0,2.268.259,4.083.583,4.083s.583-3.111.518-7.129c-.13-5.638.065-7.259.907-8.1.907-.907,1.1-.843,2.333.454a12.881,12.881,0,0,1,2.2,4.731c1.037,4.083,1.037,4.083,2.2,2.528.907-1.231.907-1.231,2.268.13,2.333,2.333,3.824,9.656,2.852,14.452-.389,2.009-.454,2.009-4.731,2.009-7.518,0-12.443-2.268-14.776-6.675l-1.1-2.074-.454,2.722c-.778,4.148-2.333,6.8-3.953,6.546-1.944-.259-2.528-3.046-2.074-9.268.194-2.852.389-9.4.454-14.582s.389-9.786.648-10.24C151.707-504.83,152.549-504.376,153.586-501.978Zm30.071-1.3c0,.778-7.453,3.564-9.462,3.564-3.37,0-2.592-1.167,1.555-2.268,2.009-.583,4.018-1.167,4.342-1.3C181.13-503.663,183.657-503.6,183.657-503.274Zm.259,6.416c-.324.778-4.8,3.629-5.7,3.629-.842,0-.324-2.463.778-3.37C180.936-498.414,184.565-498.543,183.917-496.858Zm40.57,10.758c.583,1.037.518,1.426-.259,1.685-1.361.518-2.333-.194-2.333-1.75C221.895-487.785,223.58-487.785,224.487-486.1Zm-9.462.065c9.4,2.592,17.887,8.814,22.424,16.461,1.879,3.176,2.268,4.472,2.268,7.583,0,2.074.13,3.759.324,3.694a10.181,10.181,0,0,0,1.62-.518c3.37-1.361,4.8,2.722,2.139,6.092l-1.426,1.815,1.815-.454c3.953-.972,5.638,1.361,2.852,3.953-2.139,1.944-8.62,5.444-9.138,4.925-.778-.713-.518-5.055.324-5.9.648-.648.389-.713-1.167-.389-2.657.518-5.314-1.815-11.6-10.11-8.684-11.406-11.6-13.545-22.683-16.785-5.962-1.75-8.749-3.5-8.749-5.444,0-3.37,4.99-5.509,12.962-5.574A36.125,36.125,0,0,1,215.025-486.035ZM186.25-482.86c0,.324-.13.648-.259.648-.194,0-.518-.324-.713-.648-.194-.389-.065-.648.259-.648A.666.666,0,0,1,186.25-482.86Zm-3.176,5.314c.454.842.972,4.8,1.1,8.749.259,6.481.194,7.323-.778,7.323-3.564,0-6.61-5.314-5.9-10.369.454-3.5,2.463-7.129,3.889-7.129A2.484,2.484,0,0,1,183.074-477.545Zm7.259,7.647a75.577,75.577,0,0,1,1.491,9.073l.583,5.509.389-6.8c.259-3.759.583-7.388.778-8.1a10.285,10.285,0,0,0,.389-1.815.644.644,0,0,1,.648-.454c.713,0,2.4,4.148,3.046,7.518l.518,2.528.648-3.176c.843-3.694,2.268-4.99,4.018-3.564,1.426,1.167,2.852,4.6,2.852,6.74,0,.972.259,1.555.648,1.3.389-.194.648-1.1.648-1.879a5.556,5.556,0,0,1,1.167-2.981c1.037-1.231,1.426-1.361,2.592-.713l1.491.778-.194,41.737c-.13,22.942-.389,41.931-.648,42.19-.648.648-2.333-.907-3.629-3.24-1.167-2.2-1.3-9.462-.778-36.034.194-8.3.065-14.323-.324-14.906-1.231-1.944-1.491,2.528-1.555,27.673-.065,16.008-.324,25.535-.713,25.794-1.037.648-3.694-2.528-4.472-5.249a23.324,23.324,0,0,1-.778-5.12c-.13-2.592-.13-2.592-.583.648a49.163,49.163,0,0,0-.583,7.259c-.065,2.2-.324,4.213-.713,4.407-1.231.778-3.111-.972-4.277-3.888-.972-2.657-1.037-4.342-.518-16.4a367.753,367.753,0,0,0,0-39.663c-.972-21.387-1.75-11.471-1.555,20.739.194,25.34.065,28.71-.972,33.376-2.139,9.2-3.37,9.851-4.018,2.074-.194-2.916-.324-23.72-.194-46.144.13-31.562.389-41.283,1.037-42.709.713-1.62.972-1.815,1.75-.972A13.979,13.979,0,0,1,190.333-469.9Zm132.339-3.435c-.518,2.333-1.3,3.046-2.592,2.592-.907-.389-.907-.583,0-2.4C321.376-475.666,323.32-475.8,322.672-473.333Zm-5.9,1.1c-.648.518-1.361.778-1.555.583-.194-.13.259-.713.907-1.231.713-.454,1.426-.778,1.62-.583C317.876-473.268,317.487-472.685,316.774-472.231ZM301.8-470.546c-.324,1.3-1.361,2.333-1.75,1.879a3.047,3.047,0,0,1,.324-1.75C301.026-472.166,302.257-472.3,301.8-470.546Zm21.452,2.2a1.61,1.61,0,0,1-1.426,1.037c-.843,0-.778-.194.194-1.3C323.32-470.092,323.9-469.963,323.255-468.343Zm-10.823,1.815c-.194.518-.389.324-.389-.389-.065-.713.13-1.1.324-.843A1.313,1.313,0,0,1,312.432-466.528Zm-16.4,3.564c.907,1.361,3.759,7,6.286,12.508,5.7,12.184,8.036,15.813,12.962,20.35,3.824,3.435,5.185,4.213,19.572,11.017l7.647,3.694,13.869,13.286c13.48,12.9,18.794,18.535,20.35,21.452.972,1.944.907,2.139-.842,2.139-.843,0-3.564-1.62-6.481-3.889-2.722-2.139-4.925-3.824-4.925-3.759,0,.13.713,1.944,1.62,4.083,1.944,4.731,2.139,7.453.518,7.453-.648,0-4.8-3.888-9.2-8.62-9.527-10.045-29.358-29.942-40.959-40.959-8.749-8.3-11.406-11.86-15.813-21.452-1.555-3.176-3.953-8.231-5.444-11.212-2.592-5.185-3.111-7.129-2.2-8.036C293.832-465.75,294.48-465.361,296.036-462.964Zm20.48-1.1a.71.71,0,0,1-.713.648c-.324,0-.454-.324-.259-.648.194-.389.518-.648.713-.648C316.386-464.713,316.515-464.454,316.515-464.065Zm-139.339,2.333c0,1.037-1.685,1.231-2.268.259a2.294,2.294,0,0,1-.065-1.75c.324-.778.583-.842,1.361-.194A2.867,2.867,0,0,1,177.177-461.732Zm-7.129-1.426c0,.194-.259.518-.648.713-.324.194-.648.065-.648-.259a.71.71,0,0,1,.648-.713C169.788-463.417,170.048-463.288,170.048-463.158Zm162.281.778c1.815,1.815,1.3,2.852-1.491,2.852-3.176,0-4.018-1.1-2.009-2.722C330.579-463.676,331.032-463.676,332.328-462.38Zm-84.9,2.981c-.583.907-1.555-.13-1.555-1.62.065-1.361.065-1.361.972-.194C247.364-460.566,247.624-459.723,247.429-459.4Zm56.189-1.685c.713.907.648.972-.713.778a2.3,2.3,0,0,1-1.815-1.037C300.767-462.445,302.581-462.315,303.618-461.084Zm3.889,2.657c-.583.972-.648.778-.648-1.1s.065-2.074.648-1.167A2.06,2.06,0,0,1,307.507-458.427Zm15.23-2.528c-.648,1.037-5.574,4.213-5.962,3.824-.648-.648.389-1.685,2.852-3.046Q323.514-462.218,322.737-460.954Zm16.721.454c.194.518.065.972-.259.972-.389,0-.648-.454-.648-.972s.13-.972.259-.972S339.2-461.019,339.457-460.5Zm-45.949,6.092c2.463,4.99,4.861,12.314,4.861,15.036,0,1.426-.324,1.879-1.231,1.879s-1.555-.843-2.268-2.787a146.942,146.942,0,0,1-5.379-17.5c-.389-2.528-.324-2.657.713-1.815A22.382,22.382,0,0,1,293.508-454.409Zm-73.558-3.37c3.37,3.176,8.231,12.314,13.286,25.081,3.889,9.981,4.861,13.027,4.861,15.878,0,6.222,2.592,10.369,13.934,22.1,7,7.259,10.045,10.953,10.369,12.378.583,2.463-.583,3.953-1.75,2.333a9.562,9.562,0,0,0-2.722-2.009c-1.685-.843-2.139-.843-4.407.065s-2.657.907-3.564.065a8.067,8.067,0,0,1-1.3-3.694c-.518-3.564-1.231-3.37-1.685.583a15.124,15.124,0,0,1-1.167,4.6l-.778,1.491-.778-1.62c-.454-.842-1.426-5.185-2.2-9.592-.713-4.407-1.426-8.1-1.555-8.231A35.063,35.063,0,0,0,240.3-392c0,6.8-.713,9.592-2.528,9.592-.518,0-1.426-.972-2.074-2.139-1.037-1.815-1.167-3.824-1.167-14.841,0-7-.194-12.9-.389-13.091-.194-.259-.583,5.638-.778,13.026-.518,16.785-1.62,21.646-3.889,16.85-.843-1.75-1.1-6.286-1.491-24.951-.259-12.573-.648-22.683-.843-22.424-.194.194-.518,11.277-.713,24.562s-.583,24.433-.842,24.757c-.648.583-1.555-.778-3.305-4.99-1.815-4.277-2.074-16.2-.713-33.96.972-13.48.972-19.119-.13-24.692l-.389-1.944-.648,1.62c-.454,1.037-.778,12.443-.907,31.756-.13,16.591-.389,30.784-.518,31.562-.389,1.75-2.981,2.009-4.277.454-1.231-1.491-1.426-73.558-.194-76.6C215.543-460.047,217.293-460.177,219.95-457.779Zm-42.126,4.407c2.009,3.953,2.268,5.055,2.528,10.564.324,10.3-2.981,20.48-11.86,36.034-6.092,10.693-6.61,11.406-7.518,10.11-.389-.648-.648-.713-.648-.194,0,.583-1.1.843-3.24.843-3.111,0-3.305-.13-4.925-2.722a33.2,33.2,0,0,1-3.629-25.6c3.111-12.378,11.6-24.3,22.489-31.691,1.75-1.231,3.5-2.139,3.889-2.009A19.289,19.289,0,0,1,177.825-453.372Zm151.652-3.305c0,.194-.259.518-.648.713-.324.194-.648.065-.648-.259a.71.71,0,0,1,.648-.713C329.218-456.936,329.477-456.807,329.477-456.677Zm44.977,1.167c.907.842,10.564,12.962,21.452,27.025,12.962,16.721,19.572,25.729,19.248,26.247-.778.972-1.62,6.416-.907,5.962.324-.194,1.037.583,1.555,1.75a52.789,52.789,0,0,0,5.185,6.935c5.509,6.481,6.351,7.777,6.351,9.786,0,2.528-1.426,3.435-4.6,2.916-6.222-.972-15.943-7.518-22.035-14.841-4.861-5.9-8.425-9.656-8.749-9.332-.972.972,12.832,16.008,14.776,16.008.454,0,.389.324-.13.972-1.037,1.231-4.731,1.231-7,.065-2.463-1.3-8.555-7.842-15.554-16.656a110.055,110.055,0,0,0-9.462-10.758c-3.435-3.176-6.222-4.666-6.222-3.305,0,.389,4.472,5.12,9.981,10.5,10.24,10.11,15.295,16.656,15.295,19.9,0,2.074-.972,2.528-5.379,2.657-6.222.13-11.471-3.953-22.424-17.239-8.684-10.5-14-15.619-16.85-16.267-3.111-.648-7.518-5.25-8.49-8.749-1.62-5.833,1.426-13.286,6.222-15.295a7.571,7.571,0,0,1,7.259.842c1.491.907,1.555.907,1.037-.583-2.009-5.574,2.463-13.869,9.721-18.082C368.816-457.39,372.186-457.52,374.454-455.511Zm-17.693,2.916c-.843,1.685-13.61,15.36-18.665,20.091-4.666,4.342-6.027,4.925-6.027,2.592,0-.972,2.722-4.083,9.2-10.434C352.484-451.168,358.641-456.094,356.761-452.594Zm-9.786.454c0,.194-.259.518-.648.713-.324.194-.648.065-.648-.259a.71.71,0,0,1,.648-.713C346.716-452.4,346.975-452.27,346.975-452.141Zm-202.138,2.333c1.491,1.231,1.491,1.231.194,1.3a4.157,4.157,0,0,1-2.528-1.3c-.972-1.1-1.037-1.3-.194-1.3A5.2,5.2,0,0,1,144.837-449.807Zm10.629,0c0,1.167-3.435,1.685-4.407.713-.454-.454-.194-.842.907-1.3C154.04-451.233,155.466-450.974,155.466-449.807Zm175.761.713c1.426,2.657,1.037,4.925-.778,5.379-3.824.972-5.7-2.981-2.852-6.027C329.153-451.428,330.125-451.233,331.227-449.095Zm-191.315-.713c.194.324.065.648-.259.648a.71.71,0,0,1-.713-.648c0-.389.13-.648.259-.648C139.393-450.455,139.717-450.2,139.912-449.807Zm175.048.972a6.076,6.076,0,0,1,0,2.657c-.389.972-.518.972-1.685-.065-1.3-1.167-1.685-2.981-.842-3.759C313.34-450.974,314.571-450.391,314.96-448.835Zm-8.684,1.75c-.454.454-.778.518-.778.13a1.564,1.564,0,0,1,.454-1.1.545.545,0,0,1,.778-.13C306.859-447.993,306.664-447.474,306.275-447.085Zm15.749-.065a2,2,0,0,1,0,1.75c-.454.454-1.62-1.1-1.62-2.333C320.4-449.03,321.57-448.641,322.024-447.15ZM145.939-444.1c.13.454-.194.778-.778.778a1.024,1.024,0,0,1-1.037-1.037C144.124-445.465,145.55-445.271,145.939-444.1Zm85.483.518a1.313,1.313,0,0,1-1.231.065c-.518-.194-.324-.389.389-.389C231.292-443.975,231.681-443.78,231.421-443.586ZM323-442.03c0,.324-.972.648-2.074.583-1.815,0-1.944-.13-.843-.583C321.894-442.808,323-442.808,323-442.03Zm11.8,2.333c-.389,2.009-1.3,2.592-1.815,1.231-.583-1.426.972-4.8,1.62-3.629A3.975,3.975,0,0,1,334.791-439.7Zm-85.288-1.62c.583,1.037-1.361,2.722-6.157,5.444-3.176,1.75-4.277,2.139-4.731,1.491-.778-1.3-.648-2.139.778-3.888C241.726-441.317,248.272-443.262,249.5-441.317Zm63.836,2.981c-.518.972-.648.972-.713.13,0-1.1.648-2.074,1.167-1.62C313.923-439.632,313.728-438.984,313.34-438.336Zm-57.744-.194c0,1.3-1.231,2.009-2.074,1.167a1.221,1.221,0,0,1-.259-1.361C253.91-439.762,255.6-439.568,255.6-438.531Zm-108.878.972c0,.842-7.712,4.6-9.462,4.6-2.074,0-3.5-.648-3.5-1.62,0-.713,1.944-1.685,6.481-3.176C141.986-438.271,146.717-438.142,146.717-437.559Zm178.872-.194c0,.648-4.6,2.2-5.379,1.75-.454-.259-.065-.713,1.167-1.231C323.385-438.142,325.588-438.4,325.588-437.753Zm-20.739,2.2c0,.324-.13.648-.259.648-.194,0-.518-.324-.713-.648-.194-.389-.065-.648.259-.648A.666.666,0,0,1,304.85-435.549Zm20.091,1.231a1.232,1.232,0,0,1-.648,1.037c-.324.194-.648-.065-.648-.583,0-.583.324-1.037.648-1.037A.6.6,0,0,1,324.94-434.318Zm-74.66,3.629c-2.333,2.2-3.564,2.916-5.12,2.916-2.074,0-2.074,0-.842-1.361,1.426-1.555,6.546-4.407,8.036-4.407C252.873-433.54,251.966-432.309,250.281-430.689Zm-107.842-1.3c.194.518.065.972-.259.972-.389,0-.648-.454-.648-.972s.13-.972.259-.972S142.18-432.5,142.439-431.985Zm113.48,2.268a1.39,1.39,0,0,1-1.037.648.639.639,0,0,1-.583-.648c0-.389.454-.648,1.037-.648C255.854-430.365,256.113-430.106,255.919-429.717Zm-111.73,2.852c-1.361,1.62-8.944,4.925-11.406,4.925-4.666,0-.907-2.916,6.351-4.861C143.671-428.032,145.161-428.032,144.189-426.865Zm183.02,1.037c.194.324.13.648-.259.648a1.513,1.513,0,0,1-1.037-.648c-.194-.389-.13-.648.259-.648A1.322,1.322,0,0,1,327.209-425.828Zm-182.76,2.592a1.513,1.513,0,0,1-1.037.648c-.389,0-.454-.324-.259-.648a1.322,1.322,0,0,1,1.037-.648C144.578-423.884,144.643-423.625,144.448-423.236Zm172,3.889c0,1.879-.13,2.009-.583.972a9.639,9.639,0,0,1-.583-3.24c-.065-1.491.13-1.685.583-.972A8.028,8.028,0,0,1,316.45-419.347ZM137-419.283c0,.389-.259.454-.648.259a1.514,1.514,0,0,1-.648-1.037c0-.389.324-.454.648-.259A1.322,1.322,0,0,1,137-419.283Zm46.144,2.592c.778,3.37,1.361,26.96.713,31.3-.454,3.5-.778,4.018-2.722,5.185-3.046,1.75-10.434,2.074-18.341.778a75.824,75.824,0,0,0-9.332-1.037,11.241,11.241,0,0,1-4.213-.713c-1.815-.907-.713-2.074,4.213-4.6a56.588,56.588,0,0,0,5.638-3.176l1.75-1.231.713,2.916c1.1,4.277,1.815,4.018,2.333-.843.454-4.277,1.75-7.907,2.852-7.907,1.944,0,2.657.972,2.722,3.5.194,6.481.972,6.351,1.361-.259.454-9.008,2.4-13.61,4.731-11.666.778.648.972,2.463.972,7.647s.194,6.675.778,6.092c.454-.454.778-4.083.907-9.851.194-8.49.583-11.277,2.333-16.721C181.324-419.931,182.491-419.671,183.139-416.69Zm65.327-1.361a.649.649,0,0,1-.648.648.7.7,0,0,1-.648-.648.649.649,0,0,1,.648-.648A.612.612,0,0,1,248.466-418.051ZM142.18-416.885c0,1.685-5.574,4.666-8.684,4.666-4.861,0-2.787-2.463,3.5-4.148C141.208-417.468,142.18-417.6,142.18-416.885Zm123.136.13c0,.324-.13.648-.259.648-.194,0-.518-.324-.713-.648-.194-.389-.065-.648.259-.648A.666.666,0,0,1,265.316-416.755Zm5.185,4.537a.71.71,0,0,1-.713.648c-.324,0-.454-.324-.259-.648.194-.389.518-.648.713-.648C270.371-412.866,270.5-412.607,270.5-412.218Zm55.735,1.944a2.2,2.2,0,0,1-.583,1.62c-.778.454-2.2-2.074-1.685-2.916C324.551-412.542,326.236-411.57,326.236-410.274Zm-63.9,1.167c-.259,1.167-.648,2.074-.972,2.074-.778,0-.713-.842.065-2.981C262.335-412.283,262.854-411.7,262.335-409.108Zm60.337.194a1.374,1.374,0,0,1-1.1,1.1c-1.167.194-1.62-1.167-.713-2.074A1.122,1.122,0,0,1,322.672-408.913Zm-181.659,1.167c4.537,2.852,8.231,9.073,8.3,13.739,0,2.916-.972,3.37-4.99,2.528-3.694-.843-4.861-1.491-7.971-4.277a8.956,8.956,0,0,1-3.24-5.833C131.551-409.108,134.792-411.7,141.013-407.747Zm412.248.324c54.115.065,81.464-.13,81.464-.583,0-.324.324-.194.648.324.518.842,11.147.972,88.269,1.167,63.448.13,88.2.389,89.5.907,3.37,1.361,3.37,4.342-.065,9.916-.907,1.426-7.518,8.555-14.776,15.878l-13.221,13.286H717.551c-37.2,0-91.186-.13-120.09-.324-43.746-.259-53.143-.194-56.383.583-4.925,1.167-6.675,1.167-12.638-.13a88.73,88.73,0,0,0-12.638-1.167c-9.138-.194-47.051.583-54.115,1.167-6.481.454-9.073-.648-9.073-4.083,0-3.953,1.879-7.194,12.573-21.97,4.277-5.9,5.055-8.1,3.629-10.693-.713-1.361-3.888-2.592-6.61-2.592-2.916,0-10.369,1.685-21.581,4.861-5.638,1.62-11.082,2.916-12.184,2.916-1.555,0-2.722-.778-5.444-3.564-5.9-6.092-6.74-5.833,18.082-6.027,11.86-.13,21.711-.389,21.905-.583s2.2-.13,4.537.194C469.852-407.682,508.413-407.423,553.261-407.423Zm-230.913,1.3c0,.194-.259.518-.648.713-.324.194-.648.065-.648-.259a.71.71,0,0,1,.648-.713C322.089-406.386,322.348-406.256,322.348-406.126Zm-53.791,1.361c0,1.62-10.434,8.231-11.406,7.259-.518-.518,1.361-3.824,3.111-5.444C263.048-405.543,268.557-406.774,268.557-404.765Zm47.31,1.037a32.187,32.187,0,0,1,6.935,1.879c4.407,1.944,3.5,3.824-2.528,5.833l-3.37,1.1,6.416.389c6.87.454,13.739,1.944,15.1,3.305,1.3,1.231.324,2.657-3.046,4.537-2.916,1.555-3.565,1.685-9.2,1.361-6.675-.324-5.574.583,1.555,1.361,2.4.259,3.5.648,2.916.972-2.2,1.361,3.176,3.046,10.045,3.111,3.305.065,3.435.13,2.268,1.944-.907,1.491,0,2.852,2.722,4.277,2.4,1.231,11.017,2.916,15.036,2.916a28.081,28.081,0,0,1,6.61.972,25.232,25.232,0,0,0,13.351.065c1.62-.454,5.962-2.268,9.721-3.953,6.157-2.787,7.129-3.046,10.369-2.657,8.3.842,14.712,1.555,16.2,1.944.907.194,6.61,1.361,12.638,2.657,15.554,3.24,14.712,2.981,11.99,3.759-2.074.583-72.326,1.167-133.506,1.167-23.526,0-28.645.389-31.238,2.463-1.361,1.167-.518,1.231,25.794,1.62,14.906.259,54.569.194,88.075-.065,86.455-.778,238.107-.583,261.5.389,11.86.454,39.533.713,72.91.583,53.532-.194,53.791-.194,56.708,1.167,4.472,2.074,5.509,3.629,5.509,7.971a16.577,16.577,0,0,1-1.491,6.87l-1.491,3.305-6.286-.194c-5.12-.13-5.768,0-3.5.454,11.73,2.463,16.915,12.378,11.73,22.424-1.555,3.046-1.75,3.176-4.861,3.5-2.981.389-3.046.454-1.555,1.1,2.528,1.1,4.925,4.083,6.157,7.647,1.3,3.759,1.555,11.925.713,25.729l-.518,8.944H737.706c-26.7,0-48.542.259-48.542.583,0,.907,7.129,1.361,20.415,1.361,6.8,0,25.6.194,41.737.454,31.043.454,33.83.713,29.293,3.046-2.009,1.037-11.277,1.1-134.931,1.1-73.039,0-133.052-.13-133.376-.324s-11.212-.13-24.174.259c-15.749.454-25.794.454-30.33,0-3.759-.389-7.064-.648-7.453-.648-.324,0-50.227.13-110.823.324-112.184.324-122.229.518-123.072,2.722-.194.518-.648.778-.972.518a.974.974,0,0,1-.324-1.231c.259-.648-9.138-.907-50.356-1.231-27.868-.259-61.633-.454-75.048-.454-13.934,0-26.183-.324-28.581-.713-3.37-.518-7.194-.389-19.119.713-19.183,1.815-25.729,1.3-30.071-2.333-2.463-2.074-4.083-6.351-3.824-10.045l.194-2.852,5.833-.194,5.768-.194-3.24-1.491c-3.953-1.815-6.222-4.407-8.036-9.268-1.231-3.24-1.361-4.666-1.1-10.24a44.145,44.145,0,0,1,1.491-10.045c1.231-3.5,1.3-3.564,3.953-3.759l2.722-.194-2.787-2.722a20.213,20.213,0,0,1-4.342-6.61c-1.361-3.435-1.491-4.925-1.491-12.638,0-7.388.194-9.4,1.491-12.9,1.555-4.537,4.666-9.462,6.416-10.3.583-.259,18.73-.324,40.311-.065,32.34.324,112.184.194,156.189-.259,5.509-.065,18.795.13,29.488.454,25.275.778,27.09.713,29.942-.713,7.453-3.694,3.24-3.889-68.5-3.564-54.374.194-126.053-.389-138.366-1.231a130.729,130.729,0,0,0-21.711.389c-12.7,1.037-19.961,1.231-21.646.583C17.035-368.019,23-373.139,33.3-377.481c8.749-3.694,11.406-5.314,14.323-8.684a19.059,19.059,0,0,1,3.694-3.305c4.472-2.333,26.118-.843,31.562,2.139.972.518-1.3.778-10.045,1.037l-11.342.324,8.1.842c12.573,1.3,18.146,2.333,18.146,3.37,0,1.231-5.314,2.009-11.147,1.685-8.036-.454-5.185.324,8.879,2.592,10.758,1.685,11.99,1.685,56.383,2.333,45.82.583,65.975.389,70.577-.842,1.879-.518,3.889-.454,8.166.324,4.731.907,9.851,1.037,33.441.778l27.868-.259,5.185-2.009c5.962-2.333,11.406-5.9,14-9.138,4.342-5.509,2.463-9.462-5.444-11.341a52.676,52.676,0,0,1-7.259-2.4c-2.139-1.1-2.4-1.426-1.62-2.2a12.461,12.461,0,0,1,4.472-1.491C296.295-404.506,310.877-404.571,315.867-403.728Zm-39.533,1.167a13.744,13.744,0,0,1-1.62,4.213c-1.879,3.564-2.009,4.083-.518,2.916,1.685-1.426,12.9-1.231,15.619.259,6.935,3.824,6.027,8.62-2.333,12.184-3.564,1.555-5.185,1.555-11.082-.065-5.9-1.685-9.073-3.305-12.378-6.286-3.953-3.5-3.111-6.74,2.2-8.944a26.666,26.666,0,0,0,4.861-3.176C274.13-404.053,276.334-404.506,276.334-402.562Zm-195.4,2.009c-.778,1.231-8.036,4.537-10.045,4.537-3.046,0-2.333-1.167,2.139-3.24C76.918-401.136,81.778-401.914,80.936-400.553Zm375.242,2.528c-.518,1.1-1.426,2.009-1.944,2.009-1.426,0-1.167-.907.778-3.305C457.02-401.719,457.733-400.942,456.178-398.025ZM81.519-398.22a1.253,1.253,0,0,1,0,2.463c-3.176,1.231-5.7-.583-2.981-2.139C79.834-398.673,80.158-398.738,81.519-398.22Zm351.327,2.852a1.513,1.513,0,0,1-1.037.648c-.389,0-.454-.324-.259-.648a1.322,1.322,0,0,1,1.037-.648C432.976-396.016,433.041-395.757,432.847-395.368ZM82.815-392.841a5.591,5.591,0,0,1,2.2,1.944c.259.778-.778.843-6.222.518-9.2-.583-11.73-2.2-5.638-3.629A14.622,14.622,0,0,1,82.815-392.841Zm-19.054-.583a.649.649,0,0,1-.648.648.7.7,0,0,1-.648-.648.649.649,0,0,1,.648-.648A.612.612,0,0,1,63.762-393.424Zm390.213,2.787c-.518.518-.713.259-.713-.907,0-2.139.907-3.046,1.167-1.231A2.8,2.8,0,0,1,453.974-390.637Zm-7.842-1.491a.649.649,0,0,1-.648.648.7.7,0,0,1-.648-.648.649.649,0,0,1,.648-.648A.612.612,0,0,1,446.132-392.128Zm369.085,1.944a1.825,1.825,0,0,1-1.361.648c-.518,0-.778-.324-.583-.648a1.631,1.631,0,0,1,1.361-.648C815.153-390.832,815.412-390.572,815.217-390.183Zm-364.289.583c.194.324-.065.713-.583.972-.972.389-1.879-.454-1.167-1.167A1.034,1.034,0,0,1,450.928-389.6Zm-188.852.713a.649.649,0,0,1-.648.648.7.7,0,0,1-.648-.648.649.649,0,0,1,.648-.648A.612.612,0,0,1,262.076-388.887Zm182.76.648a.71.71,0,0,1-.713.648c-.324,0-.454-.324-.259-.648.194-.389.518-.648.713-.648C444.707-388.887,444.836-388.628,444.836-388.239Zm1.944.648a.71.71,0,0,1-.713.648c-.324,0-.454-.324-.259-.648.194-.389.518-.648.713-.648C446.651-388.239,446.78-387.98,446.78-387.591Zm-12.7.518a2.5,2.5,0,0,0-.648,2.009c.065,1.815-1.815,3.305-2.852,2.268-.907-.907.389-3.953,1.879-4.342C434.208-387.656,434.856-387.591,434.078-387.073Zm376.473,2.916a2.277,2.277,0,0,1-.259,1.815c-.389.648-.583.454-.583-.907C809.709-385.128,810.033-385.517,810.551-384.156Zm6.61,1.426a21.922,21.922,0,0,0,2.916,4.472c2.463,2.787,1.555,3.564-1.944,1.555-2.528-1.426-2.592-1.62-2.592-4.925,0-1.815.13-3.37.389-3.37A5.5,5.5,0,0,1,817.162-382.73ZM446.845-379.62c.389,1.426.259,1.75-.713,1.75-1.555,0-2.139-.972-1.62-2.657C445.1-382.277,446.262-381.823,446.845-379.62Zm356.642,4.8c-1.426,8.684-4.342,17.563-6.027,18.6-1.3.842-.778-2.528,1.491-9.073,1.231-3.5,2.722-8.231,3.305-10.5.648-2.2,1.361-4.018,1.62-4.018S803.941-377.546,803.487-374.824Zm5.574-3.435c0,1.555-1.037,2.787-1.75,2.074-.518-.518.389-3.629,1.1-3.629C808.8-379.814,809.061-379.1,809.061-378.259Zm-581.657.324a.788.788,0,0,1-.324,1.037c-.324.194-.648-.065-.648-.583C226.431-378.648,226.82-378.842,227.4-377.935Zm50.227-.324c0,.194-.259.518-.648.713-.324.194-.648.065-.648-.259a.71.71,0,0,1,.648-.713C277.371-378.518,277.63-378.388,277.63-378.259Zm106.934,2.333c0,.324-.13.648-.259.648-.194,0-.519-.324-.713-.648-.194-.389-.065-.648.259-.648A.666.666,0,0,1,384.564-375.926Zm440.115,2.139c-.518.518-.713.324-.713-.583,0-1.75.907-2.657,1.167-1.231A2.222,2.222,0,0,1,824.679-373.787Zm-460.53.389c-.583,1.037-1.62.194-1.167-.972q.389-.972.972-.389A1.1,1.1,0,0,1,364.149-373.4Zm9.073.065c.259.389-.324.648-1.3.648s-1.555-.259-1.3-.648a1.509,1.509,0,0,1,1.3-.648A1.509,1.509,0,0,1,373.223-373.333Zm65.457,0c.194.324-.065.648-.648.648s-.842-.324-.648-.648c.194-.389.518-.648.648-.648S438.485-373.722,438.679-373.333Zm383.019,1.1c-.454,1.944-1.815,3.176-2.2,2.074-.259-.907,1.3-3.824,2.074-3.824C821.893-373.981,821.958-373.2,821.7-372.232Zm-461.113-.454c0,.324-.13.648-.259.648-.194,0-.518-.324-.713-.648-.194-.389-.065-.648.259-.648A.666.666,0,0,1,360.585-372.685Zm436.486,1.426c-1.231,4.277-2.009,5.7-3.37,6.416-2.009,1.1-2.463.389-1.491-2.074C793.9-370.935,798.043-374.629,797.071-371.259Zm17.3.194c.583,1.231.454,2.528-.454,5.833-.583,2.333-1.361,4.083-1.62,3.888-.842-.518-1.491-7-.972-9.332C811.847-373.074,813.338-373.268,814.375-371.065Zm-7.907,4.6a30.968,30.968,0,0,1-.972,6.027c-.518,2.009-1.815,8.749-2.852,14.971a110.777,110.777,0,0,1-4.083,17.174,39.525,39.525,0,0,0-1.944,6.416c.324.907-1.3,2.333-2.592,2.333-.972,0-1.167-.259-.843-1.167.843-2.2,3.565-12.962,6.481-25.729,3.435-15.1,5.444-22.359,6.222-22.359C806.209-368.8,806.468-367.76,806.468-366.464Zm-14.906,6.675a1.232,1.232,0,0,1-.648,1.037c-.324.194-.648-.065-.648-.583,0-.583.324-1.037.648-1.037A.6.6,0,0,1,791.562-359.788Zm2.981,2.268c.389,1.037-.583,3.24-2.2,5.12-1.167,1.361-2.074.454-2.074-2.074C790.266-357.326,793.7-359.723,794.543-357.52Zm14.517.389c0,.324-.13.648-.259.648-.194,0-.518-.324-.713-.648-.194-.389-.065-.648.259-.648A.666.666,0,0,1,809.061-357.131Zm9.073,12.962c-.778,6.027-1.75,9.721-2.592,9.721-1.62,0-1.75-6.481-.065-10.045a26.631,26.631,0,0,0,1.62-6.157,50.586,50.586,0,0,1,.907-5.185C818.782-358.751,818.912-350.132,818.134-344.169Zm-6.675-6.027a107.121,107.121,0,0,1-2.981,17.628c-.713,2.268-2.4,4.6-3.435,4.6-.843,0-.583-5.25.518-9.073.583-1.944,1.62-5.768,2.268-8.425.713-2.657,1.62-6.092,2.009-7.647C811.07-357.844,811.912-356.353,811.459-350.2Zm-12.9-2.528c.13.454-.389.778-1.1.778-1.361,0-1.75-.713-.907-1.555C797.136-354.085,798.238-353.631,798.562-352.724Zm-1.491,6.416a27.1,27.1,0,0,1-2.333,6.222,21.857,21.857,0,0,0-1.879,4.6,1.747,1.747,0,0,1-2.981,1.361c-.843-.648-1.037-1.1-.519-1.426.454-.324,1.62-2.787,2.722-5.574,1.944-4.99,3.564-7.583,4.861-7.583C797.265-348.706,797.33-347.734,797.071-346.308ZM821.7-326.217c-.194.842-.713,1.491-1.167,1.3-.907-.259-.648-3.435.389-5.314.713-1.231.778-1.167.972.583A10.14,10.14,0,0,1,821.7-326.217Zm-8.749,7.323c-.713,1.361-3.888,1.879-3.888.583,0-1.037,1.3-3.305,2.852-4.99l1.361-1.555.194,2.333A7.823,7.823,0,0,1,812.949-318.894ZM801.867-312.8c-.583,3.24-3.694,10.11-5.7,12.443-1.361,1.685-3.953,2.657-3.953,1.491a17.934,17.934,0,0,1,1.879-4.083,55.261,55.261,0,0,0,3.24-6.87,44.367,44.367,0,0,1,2.722-5.768C801.8-318.505,802.709-317.209,801.867-312.8Zm16.915-.259a.71.71,0,0,1-.713.648c-.324,0-.454-.324-.259-.648.194-.389.518-.648.713-.648C818.652-313.709,818.782-313.45,818.782-313.061Zm-9.332,11.925a23.287,23.287,0,0,1-.778,4.861c-.13.194-.907-.259-1.62-1.037-1.88-1.879-2.009-7.323-.259-9.268,1.231-1.3,1.3-1.361,2.139-.194C809.579-305.932,809.709-304.442,809.449-301.136Zm-9.2-1.944c-.389,1.1-2.2,1.944-2.2,1.037,0-.324.518-.907,1.167-1.231C800.635-304.118,800.635-304.118,800.247-303.081Zm-6.092,14a.649.649,0,0,1-.648.648.7.7,0,0,1-.648-.648.649.649,0,0,1,.648-.648A.612.612,0,0,1,794.155-289.082Zm4.213,3.305c.583,1.815-.907,2.852-2.2,1.555-.778-.713-.778-1.1-.065-1.879C797.2-287.527,797.849-287.4,798.367-285.777Zm-8.749,1.491c0,.194-.259.518-.648.713-.324.194-.648.065-.648-.259a.71.71,0,0,1,.648-.713C789.359-284.545,789.618-284.416,789.618-284.286ZM246.846-263.871a1.409,1.409,0,0,1-1.1.713c-.389,0-.389-.389.13-.972C246.781-265.232,247.559-264.973,246.846-263.871Zm395.462.454c-.583.583-1.815-.389-1.361-1.167.259-.389.648-.389,1.1.065C642.438-264.131,642.567-263.677,642.308-263.418Zm-404.859-.389a.649.649,0,0,1-.648.648.7.7,0,0,1-.648-.648.649.649,0,0,1,.648-.648A.612.612,0,0,1,237.449-263.807Zm149.06-.389c0,.713-1.231.972-1.62.389-.194-.324.065-.648.583-.648C386.055-264.455,386.508-264.325,386.508-264.2Zm147.116,1.62a1.232,1.232,0,0,1-.648,1.037c-.324.194-.648-.065-.648-.583,0-.583.324-1.037.648-1.037A.6.6,0,0,1,533.624-262.575Z" transform="translate(0 0)" fill="#2c5364"/>
    <path id="Path_18" data-name="Path 18" d="M259.7-499.627c-1.879,1.491-2.2,2.528-.713,2.528,1.1,0,3.564-2.268,3.564-3.24C262.556-501.377,261.583-501.118,259.7-499.627Z" transform="translate(-90.564 -9.091)" fill="#2c5364"/>
    <path id="Path_19" data-name="Path 19" d="M184.486-386.4c-.648,8.1-.454,49.384.259,46.986.972-3.176,1.3-21,.778-37.265C185.069-390.03,184.939-391.2,184.486-386.4Z" transform="translate(-64.535 -48.501)" fill="#2c5364"/>
    <path id="Path_20" data-name="Path 20" d="M173.46-368.617c0,2.139-.389,9.592-.778,16.526-.778,12.962-.389,21.192.842,17.174.907-2.916,1.3-23.785.648-31.108C173.654-371.469,173.589-371.858,173.46-368.617Z" transform="translate(-60.379 -54.943)" fill="#2c5364"/>
    <path id="Path_21" data-name="Path 21" d="M240.3-462.414c0,2.333.13,3.24.259,2.074a22.859,22.859,0,0,0,0-4.213C240.43-465.655,240.3-464.747,240.3-462.414Z" transform="translate(-84.316 -21.742)" fill="#2c5364"/>
    <path id="Path_22" data-name="Path 22" d="M262.3-455.987c0,1.62.13,2.268.259,1.426a10.983,10.983,0,0,0,0-2.916C262.43-458.256,262.3-457.608,262.3-455.987Z" transform="translate(-92.058 -24.28)" fill="#2c5364"/>
    <path id="Path_23" data-name="Path 23" d="M308-412.371a12.08,12.08,0,0,0,.972,4.018c.259.259.259-.518,0-1.75a30.013,30.013,0,0,1-.389-4.018c0-1.037-.259-1.879-.518-1.879C307.739-416,307.739-414.38,308-412.371Z" transform="translate(-108.074 -38.992)" fill="#2c5364"/>
    <path id="Path_24" data-name="Path 24" d="M316.55-412.468a4.479,4.479,0,0,0,.259,2.463c.518,1.879.518,1.879.583-.583C317.458-412.922,317.2-413.5,316.55-412.468Z" transform="translate(-111.117 -40.061)" fill="#2c5364"/>
    <path id="Path_25" data-name="Path 25" d="M307.067-372.63c-.194,4.6-.583,11.8-.778,16.073-.259,4.277-.259,7.647-.065,7.453.454-.389,2.009-31.043,1.62-31.5C307.651-380.731,307.327-377.167,307.067-372.63Z" transform="translate(-107.467 -51.448)" fill="#2c5364"/>
    <path id="Path_26" data-name="Path 26" d="M524.44-345.015c.778,1.1,4.148,5.055,7.583,8.814,6.481,7.194,12.638,12.508,13.026,11.342.389-1.1-4.342-6.416-13.026-14.647C524.246-346.96,521.783-348.71,524.44-345.015Z" transform="translate(-183.946 -63.314)" fill="#2c5364"/>
    <path id="Path_27" data-name="Path 27" d="M564.537-407.04c.194.583.713,1.037,1.037,1.037.843,0,.324-1.491-.648-1.815C564.472-407.947,564.278-407.688,564.537-407.04Z" transform="translate(-198.378 -41.86)" fill="#2c5364"/>
    <path id="Path_28" data-name="Path 28" d="M575-399.43c0,.324.454.842,1.037,1.037.648.259.907.065.778-.389C576.491-399.754,575-400.272,575-399.43Z" transform="translate(-202.101 -44.674)" fill="#2c5364"/>
    <path id="Path_29" data-name="Path 29" d="M556-398.4c0,.648,6.675,7.323,7.323,7.323.972,0,.389-1.3-1.426-3.37C559.888-396.716,556-399.308,556-398.4Z" transform="translate(-195.415 -45.12)" fill="#2c5364"/>
    <path id="Path_30" data-name="Path 30" d="M584-392.542c0,1.037,3.953,6.675,7.777,11.017,8.036,9.073,19.119,20.48,19.313,19.767.454-1.3-2.916-5.444-13.221-16.2-5.7-5.9-11.082-11.73-12.054-12.962S584.065-392.866,584-392.542Z" transform="translate(-205.269 -47.22)" fill="#2c5364"/>
    <path id="Path_31" data-name="Path 31" d="M539-380.4c0,1.1,6.87,7.323,8.1,7.323.972,0,.713-.518-1.491-2.787C542.824-378.715,539-381.307,539-380.4Z" transform="translate(-189.432 -51.455)" fill="#2c5364"/>
    <path id="Path_32" data-name="Path 32" d="M578-375.7c0,.648,5.314,6.157,5.9,6.157,1.231,0,.454-1.555-1.944-3.953C579.75-375.7,578-376.677,578-375.7Z" transform="translate(-203.157 -53.04)" fill="#2c5364"/>
    <path id="Path_33" data-name="Path 33" d="M537.183-365.221c3.694,4.8,11.406,12.184,12.638,12.184.842,0-1.231-2.463-6.222-7.453C535.951-368.2,533.489-369.952,537.183-365.221Z" transform="translate(-188.198 -55.941)" fill="#2c5364"/>
    <path id="Path_34" data-name="Path 34" d="M571.075-364.548c3.888,5.574,16.137,19.119,17.3,19.119,1.879,0,.195-2.074-8.749-10.953C574.445-361.567,570.556-365.261,571.075-364.548Z" transform="translate(-200.704 -57.068)" fill="#2c5364"/>
    <path id="Path_35" data-name="Path 35" d="M605.511-349.056c1.426,1.944,2.009,2.268,2.787,1.491.583-.583-2.139-3.435-3.24-3.435C604.344-351,604.474-350.482,605.511-349.056Z" transform="translate(-212.521 -61.866)" fill="#2c5364"/>
    <path id="Path_36" data-name="Path 36" d="M571.753-330.615c.972,1.815,9.332,10.564,12.443,13.026,4.472,3.5,2.592.778-4.731-6.87C572.6-331.651,570.2-333.531,571.753-330.615Z" transform="translate(-200.799 -68.577)" fill="#2c5364"/>
    <path id="Path_37" data-name="Path 37" d="M624-327.613c0,1.3,7.453,10.3,12.443,14.971,5.444,5.12,7.453,6.222,4.99,2.787C639.424-312.707,624.065-328.326,624-327.613Z" transform="translate(-219.345 -70.088)" fill="#2c5364"/>
    <path id="Path_38" data-name="Path 38" d="M509-403.205a2.013,2.013,0,0,0,.648,1.491c.843.518.843-.324,0-1.62C509.13-404.177,509-404.177,509-403.205Z" transform="translate(-178.875 -43.232)" fill="#2c5364"/>
    <path id="Path_39" data-name="Path 39" d="M272-308.32c0,1.491.324,2.657.648,2.657.389,0,.648-.972.648-2.2s-.259-2.463-.648-2.657C272.259-310.783,272-309.876,272-308.32Z" transform="translate(-95.471 -76.095)" fill="#2c5364"/>
    <path id="Path_40" data-name="Path 40" d="M212.749-338.666c-1.037,1.815-.907,2.009.972,2.009,1.3,0,1.62-.259,1.426-1.426C214.887-339.962,213.591-340.286,212.749-338.666Z" transform="translate(-74.392 -65.84)" fill="#2c5364"/>
    <path id="Path_41" data-name="Path 41" d="M779.092-336.338l-2.592.389,3.37.454c1.879.259,10.629.259,19.443,0,10.434-.259,14.906-.583,12.832-.842C808.127-336.921,782.657-336.921,779.092-336.338Z" transform="translate(-273.012 -66.872)" fill="#2c5364"/>
    <path id="Path_42" data-name="Path 42" d="M854.737-336.08c1.685.518,73.363,1.75,73.947,1.3.713-.583-1.231-.778-13.545-1.426C900.363-337.052,851.951-336.923,854.737-336.08Z" transform="translate(-300.504 -66.87)" fill="#2c5364"/>
    <path id="Path_43" data-name="Path 43" d="M1054.176-335.2c-28.71.194-52.43.583-52.689.778-.713.778,14.517,1.426,22.294.972,4.148-.194,35.645-.454,70.058-.519,34.413,0,61.568-.259,60.337-.518C1150.611-335.326,1110.106-335.585,1054.176-335.2Z" transform="translate(-352.18 -67.366)" fill="#2c5364"/>
    <path id="Path_44" data-name="Path 44" d="M978.681-334.322c2.333.778,6.481.778,6.481,0,0-.389-1.75-.648-4.018-.583C978.1-334.841,977.449-334.711,978.681-334.322Z" transform="translate(-343.955 -67.527)" fill="#2c5364"/>
    <path id="Path_45" data-name="Path 45" d="M1246-334.352c0,.324.454.648.972.648s.972-.324.972-.648c0-.389-.454-.648-.972-.648S1246-334.741,1246-334.352Z" transform="translate(-438.236 -67.497)" fill="#2c5364"/>
    <path id="Path_46" data-name="Path 46" d="M843.827-328.278c-.648.389-.648.648-.13,1.037.454.194,15.619.324,33.83.194,19.637-.13,32.145-.389,30.914-.713C905.654-328.537,844.928-328.926,843.827-328.278Z" transform="translate(-296.528 -69.748)" fill="#2c5364"/>
    <path id="Path_47" data-name="Path 47" d="M956.447-327.417c-.454.778.778,1.555,1.62,1.037.713-.454.259-1.62-.648-1.62A1.428,1.428,0,0,0,956.447-327.417Z" transform="translate(-336.304 -69.961)" fill="#2c5364"/>
    <path id="Path_48" data-name="Path 48" d="M963.45-327.352c-.194.324-.065.648.259.648a.71.71,0,0,0,.713-.648c0-.389-.13-.648-.259-.648C963.969-328,963.645-327.741,963.45-327.352Z" transform="translate(-338.77 -69.961)" fill="#2c5364"/>
    <path id="Path_49" data-name="Path 49" d="M974.493-326.125c-1.685.324,152.235,1.62,161.373,1.361,4.148-.13,5.573-1.361,1.555-1.426C1121.09-326.449,975.983-326.384,974.493-326.125Z" transform="translate(-342.684 -70.54)" fill="#2c5364"/>
    <path id="Path_50" data-name="Path 50" d="M962-320.975c0,.907,3.24,1.231,11.8,1.231a64.213,64.213,0,0,1,10.693.648,15.533,15.533,0,0,1,3.888,2.916c2.074,2.268,3.629,2.852,4.407,1.62.194-.324-.194-1.167-.843-1.815-1.231-1.231-1.167-1.3,4.99-1.815,3.435-.259,32.21-.518,64.031-.583,31.756,0,57.939-.194,58.2-.389.194-.259-17.174-.648-38.691-.842-21.516-.259-56.967-.648-78.807-.907C979.887-321.17,962-321.17,962-320.975Z" transform="translate(-338.292 -72.384)" fill="#2c5364"/>
    <path id="Path_51" data-name="Path 51" d="M1046.446-312.264c-1.037.194,6.222.454,16.2.454s17.3-.194,16.2-.454C1076.323-312.912,1048.974-312.912,1046.446-312.264Z" transform="translate(-367.975 -75.327)" fill="#2c5364"/>
    <path id="Path_52" data-name="Path 52" d="M1116.48-312.309c-.778.324,10.629.518,26.9.518,16.591,0,27.155-.259,25.6-.583C1165.54-313.086,1118.165-313.021,1116.48-312.309Z" transform="translate(-392.642 -75.283)" fill="#2c5364"/>
    <path id="Path_53" data-name="Path 53" d="M1168.542-306.465a6.793,6.793,0,0,0-1.75.713c-.648.648,21.387.907,24.109.324,2.074-.389,1.944-.518-1.944-.907C1184.1-306.854,1170.487-306.918,1168.542-306.465Z" transform="translate(-410.356 -77.432)" fill="#2c5364"/>
    <path id="Path_54" data-name="Path 54" d="M472.922-330.19c.907.583,10.953.972,10.3.389a42.066,42.066,0,0,0-5.768-.583C473.829-330.644,472.274-330.579,472.922-330.19Z" transform="translate(-166.128 -69.067)" fill="#2c5364"/>
    <path id="Path_55" data-name="Path 55" d="M483.416-316.788l-2.916,1.1,2.722.194c2.787.194,5.379-.713,5.379-1.815C488.6-318.214,486.786-318.02,483.416-316.788Z" transform="translate(-168.846 -73.525)" fill="#2c5364"/>
    <path id="Path_56" data-name="Path 56" d="M503.47-316.429A7.364,7.364,0,0,0,506-315.392c1.879.389,1.879.389.713-.583C505.349-317.077,502.368-317.466,503.47-316.429Z" transform="translate(-176.845 -73.819)" fill="#2c5364"/>
    <path id="Path_57" data-name="Path 57" d="M80.471-309.352c-.259.389.454.648,1.62.648s1.879-.259,1.62-.648a1.992,1.992,0,0,0-1.62-.648A1.992,1.992,0,0,0,80.471-309.352Z" transform="translate(-28.051 -76.295)" fill="#2c5364"/>
    <path id="Path_58" data-name="Path 58" d="M86.188-302.222c.324.972,4.407,1.555,4.407.648,0-.778-1.555-1.426-3.37-1.426C86.512-303,86.058-302.676,86.188-302.222Z" transform="translate(-30.074 -78.758)" fill="#2c5364"/>
    <path id="Path_59" data-name="Path 59" d="M516.532-294.417c-.648,1.037,1.361,1.3,2.657.389,1.1-.843,1.037-.907-.583-.972A2.913,2.913,0,0,0,516.532-294.417Z" transform="translate(-181.481 -81.574)" fill="#2c5364"/>
    <path id="Path_60" data-name="Path 60" d="M27.988-261.29c2.787,1.555,11.017,1.944,53.986,2.333,42.45.389,49.384.194,44.394-1.231C122.8-261.16,26.3-262.2,27.988-261.29Z" transform="translate(-9.593 -93.314)" fill="#2c5364"/>
    <path id="Path_61" data-name="Path 61" d="M744.148-261.526c-.194.259-57.809.518-127.932.583-70.123.13-128.321.259-129.423.324-1.037.065-7.518-.065-14.323-.389-13.739-.583-17.369,0-20.415,3.37l-1.555,1.685,1.62-.389c4.213-1.037,15.23-1.815,32.6-2.4,15.878-.518,244.393-1.167,269.409-.713,9.721.13,9.462-.907-.454-1.879C745.962-262.109,744.731-262.109,744.148-261.526Z" transform="translate(-158.288 -93.207)" fill="#2c5364"/>
    <path id="Path_62" data-name="Path 62" d="M203.863-260.474c-.907.13-2.592.454-3.824.648-5.055.843.065,1.555,11.147,1.555,10.823,0,14.517-.648,9.073-1.555C216.825-260.344,205.807-260.863,203.863-260.474Z" transform="translate(-69.46 -93.676)" fill="#2c5364"/>
    <path id="Path_63" data-name="Path 63" d="M292.343-260.519c-.259.259-10.175.454-22.035.518-15.749.065-21.905.259-22.877.842-1.037.648,4.018.778,24.951.713,14.452,0,32.4-.259,39.857-.454,12.314-.324,13.027-.454,7.777-.843C310.1-260.584,292.8-261.038,292.343-260.519Z" transform="translate(-86.781 -93.63)" fill="#2c5364"/>
    <path id="Path_64" data-name="Path 64" d="M380.444-259.338l-1.944.454,2.2.454c2.852.583,16.526.583,25.988,0l7.453-.518-5.509-.389C401.507-259.921,382.972-259.921,380.444-259.338Z" transform="translate(-132.95 -93.97)" fill="#2c5364"/>
    <path id="Path_65" data-name="Path 65" d="M945.892-259.067c-.389.194,6.935.648,16.332.907,21.387.518,145.819,1.491,146.921,1.1,2.592-.907-.843-1.3-14.258-1.685C1072.139-259.326,946.734-259.65,945.892-259.067Z" transform="translate(-332.618 -94.111)" fill="#2c5364"/>
    <path id="Path_66" data-name="Path 66" d="M751-255.289c0,1.361,1.037,2.852,1.491,2.139.259-.389,0-1.231-.518-1.879C751.259-256,751.065-256.067,751-255.289Z" transform="translate(-264.038 -95.361)" fill="#2c5364"/>
    <path id="Path_67" data-name="Path 67" d="M436.285-252.473a6.85,6.85,0,0,0-2.916.972c-.454.518-.259.583.518.259a21.762,21.762,0,0,1,4.407-.389c1.75,0,3.176-.324,3.176-.648C441.47-252.927,440.563-252.927,436.285-252.473Z" transform="translate(-152.175 -96.427)" fill="#2c5364"/>
    <path id="Path_68" data-name="Path 68" d="M475-250.352a.7.7,0,0,0,.648.648.649.649,0,0,0,.648-.648.612.612,0,0,0-.648-.648A.649.649,0,0,0,475-250.352Z" transform="translate(-166.91 -97.058)" fill="#2c5364"/>
    <path id="Path_69" data-name="Path 69" d="M297.925-247.079c-3.564.389-42.32.713-92.676.778-96.111.13-96.824.13-94.88.972.778.259,31.108.713,67.4.907,36.358.194,71.484.518,78.159.778,9.786.324,13.545.194,19.313-.648,3.889-.648,7.388-.972,7.712-.778.778.518,143.357.518,143.875.065.194-.194-.065-.648-.518-.907-.454-.324-23.914-.454-52.171-.389-41.737.194-52.236.065-56.448-.713C311.924-247.986,307.063-248.051,297.925-247.079Z" transform="translate(-38.442 -98.192)" fill="#2c5364"/>
    <path id="Path_70" data-name="Path 70" d="M28.12-246.207a14.293,14.293,0,0,0-3.824.907c-.259.194,6.546.389,15.036.389,11.017,0,15.295-.194,14.776-.713C53.266-246.467,32.786-246.985,28.12-246.207Z" transform="translate(-8.298 -98.61)" fill="#2c5364"/>
    <path id="Path_71" data-name="Path 71" d="M84.067-246.491c-5.444.518-4.407,1.491,1.491,1.491,3.111,0,5.638-.259,5.638-.583,0-.583-2.4-1.426-3.564-1.231C87.307-246.751,85.687-246.621,84.067-246.491Z" transform="translate(-28.082 -98.52)" fill="#2c5364"/>
    <path id="Path_72" data-name="Path 72" d="M615.167-245.409c-.648.13-1.167.518-1.167.842,0,.454,42.255.843,84.251.778,29.488-.065,41.866-.778,28.84-1.75C721.193-245.928,617.24-245.863,615.167-245.409Z" transform="translate(-215.826 -98.89)" fill="#2c5364"/>
    <path id="Path_73" data-name="Path 73" d="M807.224-245.478a15.392,15.392,0,0,0-2.268.778c-1.426.648,16.332,1.167,26.572.778l8.749-.324-6.8-.454C823.232-245.413,808.715-245.866,807.224-245.478Z" transform="translate(-282.998 -98.951)" fill="#2c5364"/>
    <path id="Path_74" data-name="Path 74" d="M914-245.352c0,.324,1.167.648,2.592.648s2.592-.324,2.592-.648c0-.389-1.167-.648-2.592-.648S914-245.741,914-245.352Z" transform="translate(-321.4 -98.817)" fill="#2c5364"/>
    <path id="Path_75" data-name="Path 75" d="M928-245.456c0,.389,2.139,1.167,4.666,1.75,3.824.842,7.518,1.037,18.989.842,7.842-.065,42.579-.194,77.122-.194,43.422,0,63.448-.194,64.809-.713,1.426-.518-17.369-.778-70.641-1.1-39.922-.259-77.641-.648-83.733-.907C931.435-246.04,928-245.975,928-245.456Z" transform="translate(-326.327 -98.843)" fill="#2c5364"/>
    <path id="Path_76" data-name="Path 76" d="M876.247-242.29c6.481.778,18.665.713,19.119,0,.259-.454-3.694-.583-11.471-.518C875.08-242.744,873.136-242.614,876.247-242.29Z" transform="translate(-307.626 -99.935)" fill="#2c5364"/>
    <path id="Path_77" data-name="Path 77" d="M287-238.352a.7.7,0,0,0,.648.648.649.649,0,0,0,.648-.648.612.612,0,0,0-.648-.648A.649.649,0,0,0,287-238.352Z" transform="translate(-100.75 -101.281)" fill="#2c5364"/>
    <path id="Path_78" data-name="Path 78" d="M320-238.352a.7.7,0,0,0,.648.648.649.649,0,0,0,.648-.648.612.612,0,0,0-.648-.648A.649.649,0,0,0,320-238.352Z" transform="translate(-112.363 -101.281)" fill="#2c5364"/>
    <path id="Path_79" data-name="Path 79" d="M180.393-234.563c-7.842,2.074-13.48,2.722-16.656,1.815-3.176-.843-113.026-.972-129.164-.065l-9.073.454,9.4.389c5.185.259,22.683.454,38.885.518s35.191.454,42.126.843c13.61.907,20.285.972,48.023.518,15.943-.259,18.082-.454,19.183-1.491a5.405,5.405,0,0,1,2.981-1.1,3,3,0,0,0,2.074-.648c.259-.389-.583-.648-2.009-.648-2.268,0-2.4-.065-1.167-.972C186.549-236.118,185.966-236.118,180.393-234.563Z" transform="translate(-8.725 -102.413)" fill="#2c5364"/>
    <path id="Path_80" data-name="Path 80" d="M231.859-234.3c-2.657,1.62-2.787,1.62-9.073.907a70.867,70.867,0,0,0-9.592-.518l-3.24.194,2.916.454c1.62.194,5.574.778,8.749,1.3,4.731.648,31.5.842,138.69.842,88.01,0,132.922.194,133.117.648.13.324-1.815,1.361-4.213,2.139-9.592,3.305-26.7,5.638-33.636,4.6-4.6-.713-217.562-.648-230.395,0-10.953.648,49.773,1.037,147.116,1.037,39.4,0,72.2.259,74.53.583l4.213.583-7.129,1.879c-3.888.972-10.5,2.463-14.582,3.176-7.388,1.361-8.555,1.361-127.025,1.62-67.6.13-121.387.518-123.784.843-2.657.389,36.487.583,105.962.583,68.373,0,110.888.259,112.119.648l1.944.583-1.62.454c-2.333.583-18.211,2.981-24.3,3.694-9.4,1.1-48.8,1.815-75.826,1.426-29.423-.454-66.623.324-60.6,1.231,1.944.259,22.553.454,45.69.454,41.8-.065,45.82.065,47.051,2.074.324.518,1.426.454,4.018-.324,7.647-2.2,9.786-.713,3.435,2.4a27.539,27.539,0,0,1-11.86,3.046c-2.852,0-3.37-.454-2.009-1.815,1.491-1.491-.194-1.555-5.574-.194-5.962,1.491-10.175,1.75-12.054.713-.778-.389-4.407-.259-11.082.518-10.823,1.167-37.978,1.3-185.612.518-41.737-.194-62.735-.13-61.244.324,3.435.972,67.466,1.815,139.533,1.879,41.931.065,65.392.324,66.623.778,1.037.324,1.879,1.037,1.879,1.555,0,1.167.454,1.167,8.425-.713,8.036-1.879,11.99-2.139,11.406-.648-.454,1.167,2.268,1.3,9.008.259,6.222-.907,48.606-1.3,145.171-1.3,54.763-.065,80.816-.259,79.067-.713-1.555-.389-29.229-.778-69.993-.907-95.009-.454-98.444-.518-98.768-1.231-.389-1.037,3.176-2.787,8.749-4.342l5.12-1.426,145.042-.13c79.844-.13,145.236-.259,145.366-.454.648-.583-48.8-1.1-146.079-1.555-57.161-.194-103.564-.648-103.046-.843,1.944-1.1,8.944-3.24,13.48-4.148,5.7-1.231,25.794-2.592,29.358-2.074,1.361.259,23.137.324,48.282.259,25.211-.13,55.476-.13,67.207,0,11.8.065,23.59-.065,26.247-.389,2.852-.259-24.368-.713-66.429-.972-39.144-.259-71.354-.648-71.549-.843-.778-.778,1.555-1.75,8.425-3.435C464-222.762,462.577-222.7,525.9-222.7c84.834,0,100.389-.194,98.833-1.1-.972-.583-17.952-.713-66.429-.648-35.839.065-65.716-.13-66.429-.454-1.231-.518-1.231-.583.389-1.231,3.24-1.3,7.194-2.139,15.684-3.435,6.87-1.1,13.61-1.426,34.025-1.879,14-.259,25.6-.648,25.794-.843s-.907-.583-2.528-.778c-2.139-.324-3.046-.778-3.24-1.685-.454-1.62-3.564-1.62-14.063.13-7.907,1.3-10.888,1.361-109.527,1.685-55.8.194-102.851.324-104.666.259-12.9-.259-88.269,0-91.51.324-4.018.454-4.018.454-5.185-1.62C235.618-236.372,235.358-236.372,231.859-234.3Zm157.809,25.923,2.4,1.037-2.139.648c-2.657.713-7.583.454-7.583-.454,0-.518,2.916-1.879,4.731-2.2A14.31,14.31,0,0,1,389.668-208.374Z" transform="translate(-16.251 -102.354)" fill="#2c5364"/>
    <path id="Path_81" data-name="Path 81" d="M867.74-231.346l-3.24.454,3.564.389c8.684,1.037,173.687,2.852,189.565,2.139,20.8-1.037,6.934-1.555-41.154-1.62-25.859,0-62.6-.454-81.659-.972C899.561-231.929,873.573-232.059,867.74-231.346Z" transform="translate(-303.98 -103.815)" fill="#2c5364"/>
    <path id="Path_82" data-name="Path 82" d="M154.21-220.9c-5.509,1.62-17.563,1.879-30.266.583a154.641,154.641,0,0,0-19.443-.843c-6.935.194-8.49.518-11.666,1.944-2.074.972-3.759,2.139-3.759,2.657,0,2.009,3.694,1.879,12.638-.454,4.213-1.167,12.314-1.361,12.962-.389,1.037,1.62-10.11,5.444-19.443,6.61-4.8.583-6.87.583-10.564-.13-3.5-.648-7.064-.713-14.193-.324-5.314.259-13.027.583-17.239.648-11.536.259-10.823,1.3,1.491,2.268,7.907.648,11.6.713,15.1.13,3.24-.454,17.563-.583,46.144-.324,33.441.259,41.348.194,40.7-.454-.583-.648-6.286-.907-23.655-1.1-22.942-.194-27.09-.454-27.09-1.426,0-.713,8.425-2.981,15.878-4.277,10.175-1.75,23.2-2.268,49.255-1.879,13.934.194,27.479.13,30.136-.194,4.213-.518,2.592-.648-11.99-1.1-19.443-.583-29.358-1.3-30.33-2.268C158.033-222.066,158.357-222.066,154.21-220.9Z" transform="translate(-15.594 -107.327)" fill="#2c5364"/>
    <path id="Path_83" data-name="Path 83" d="M1206-218.028c0,.518.324.972.648.972.389,0,.648-.454.648-.972s-.259-.972-.648-.972C1206.324-219,1206-218.546,1206-218.028Z" transform="translate(-424.159 -108.319)" fill="#2c5364"/>
    <path id="Path_84" data-name="Path 84" d="M957.242-216.2c6.8.907,41.024,1.491,39.663.648-.778-.518-7.907-.843-22.359-.972C961.649-216.657,954.844-216.527,957.242-216.2Z" transform="translate(-336.45 -109.172)" fill="#2c5364"/>
    <path id="Path_85" data-name="Path 85" d="M1097.5-216.217a10.537,10.537,0,0,0-3.824,1.167c-.519.518,3.564.713,13.8.713,15.684,0,18.017-.713,6.222-1.879C1105.731-216.994,1102.1-216.994,1097.5-216.217Z" transform="translate(-384.615 -109.093)" fill="#2c5364"/>
    <path id="Path_86" data-name="Path 86" d="M1034.836-215.491c-2.074.778-.389,1.167,5.185,1.1,3.24-.065,6.675-.13,7.583-.194,1.491-.13,1.555-.194.324-.713C1046.566-215.88,1036.132-216.075,1034.836-215.491Z" transform="translate(-363.623 -109.43)" fill="#2c5364"/>
    <path id="Path_87" data-name="Path 87" d="M46.186-213.507a14.1,14.1,0,0,0-3.5,2.268c-.713.843-.518.907,1.1.583,3.111-.713,6.8-2.463,6.546-3.176C49.945-215,48.973-214.868,46.186-213.507Z" transform="translate(-14.635 -109.859)" fill="#2c5364"/>
    <path id="Path_88" data-name="Path 88" d="M1180.347-214.29c.713.324,3.759.518,6.8.518,5.055-.065,5.25-.065,2.268-.518C1184.883-215,1178.662-215,1180.347-214.29Z" transform="translate(-415.032 -109.788)" fill="#2c5364"/>
    <path id="Path_89" data-name="Path 89" d="M28.889-202.152a11.632,11.632,0,0,0,5.185,0c2.139-.583,1.75-.648-2.787-.648C26.426-202.8,26.3-202.735,28.889-202.152Z" transform="translate(-9.327 -114.02)" fill="#2c5364"/>
    <path id="Path_90" data-name="Path 90" d="M230-202.352a.639.639,0,0,0,.583.648,1.39,1.39,0,0,0,1.037-.648c.194-.389-.065-.648-.583-.648C230.454-203,230-202.741,230-202.352Z" transform="translate(-80.691 -113.95)" fill="#2c5364"/>
    <path id="Path_91" data-name="Path 91" d="M897.4-202.26c3.176.972,33.765,1.1,34.737.065.648-.648-2.916-.778-17.887-.713C901.612-202.908,896.1-202.649,897.4-202.26Z" transform="translate(-315.493 -113.977)" fill="#2c5364"/>
    <path id="Path_92" data-name="Path 92" d="M966.092-202.2l-2.592.454,2.916.454c4.537.648,30.2,1.361,31.5.842,2.852-1.1-1.231-1.555-13.61-1.491-7.129,0-13.61-.13-14.323-.324A13.192,13.192,0,0,0,966.092-202.2Z" transform="translate(-338.82 -114.168)" fill="#2c5364"/>
    <path id="Path_93" data-name="Path 93" d="M1031.208-201.142c-1.037.778-.778.972,2.592,1.3,3.953.389,7.453,0,7.453-.842C1041.253-202.114,1033.087-202.438,1031.208-201.142Z" transform="translate(-362.458 -114.317)" fill="#2c5364"/>
    <path id="Path_94" data-name="Path 94" d="M1112.862-201.382c-.454.324-.583.713-.259.907.389.259,10.564.454,22.618.454,17.5,0,22.553-.194,24.886-.907,2.657-.842.778-.972-21.711-.972C1124.851-201.9,1113.38-201.706,1112.862-201.382Z" transform="translate(-391.228 -114.337)" fill="#2c5364"/>
    <path id="Path_95" data-name="Path 95" d="M38.951-196.054c-4.342,1.167-7.323,2.4-6.351,2.787a3.739,3.739,0,0,0,2.268-.518c.843-.454,4.148-.843,7.323-.907,6.092-.13,9.4-.713,9.4-1.685C51.589-197.221,42.71-196.961,38.951-196.054Z" transform="translate(-11.158 -116.1)" fill="#2c5364"/>
    <path id="Path_96" data-name="Path 96" d="M1038.187-195.5c-1.815.454-1.361,1.361.778,1.815a3.754,3.754,0,0,0,2.916-.324C1043.76-195.568,1041.557-196.41,1038.187-195.5Z" transform="translate(-364.706 -116.457)" fill="#2c5364"/>
    <path id="Path_97" data-name="Path 97" d="M165.123-190.163a14.292,14.292,0,0,0-3.824.907c-.259.194,22.942.389,51.523.389,33.895,0,52.041-.194,52.3-.648.194-.389,0-.648-.454-.713C258.123-190.552,167.585-190.552,165.123-190.163Z" transform="translate(-56.513 -118.362)" fill="#2c5364"/>
    <path id="Path_98" data-name="Path 98" d="M983.11-188.239c-4.018.972,8.62,1.361,42.709,1.3,18.924,0,33.636-.259,32.728-.583C1056.344-188.174,985.637-188.887,983.11-188.239Z" transform="translate(-345.468 -119.054)" fill="#2c5364"/>
    <path id="Path_99" data-name="Path 99" d="M1133.768-187.376l-2.268.454,3.176.454c4.083.583,25.859.518,29.229-.13l2.592-.454-3.176-.454C1159.5-188.089,1136.944-187.959,1133.768-187.376Z" transform="translate(-397.941 -119.27)" fill="#2c5364"/>
    <path id="Path_100" data-name="Path 100" d="M619-181.287c0,.324.324.454.648.259.389-.194.648-.518.648-.713,0-.13-.259-.259-.648-.259A.71.71,0,0,0,619-181.287Z" transform="translate(-217.586 -121.34)" fill="#2c5364"/>
    <path id="Path_101" data-name="Path 101" d="M861.6-178.694c-4.6.843-11.86.972-44.524.972-22.035-.065-39.08.13-39.08.454,0,1.231,7.907,1.62,34.219,1.685,25.923,0,27.479.065,28.321,1.167.648.907,1.361,1.1,2.722.843.972-.194,6.935-.648,13.156-1.037,14.711-.972,17.822-1.75,15.36-3.824C870.287-179.666,867.306-179.731,861.6-178.694Z" transform="translate(-273.54 -122.248)" fill="#2c5364"/>
    <path id="Path_102" data-name="Path 102" d="M1003.435-174.379c-1.879.13-3.435.518-3.435.907,0,.324,22.618.583,60.142.518,36.811-.065,58.976-.324,57.161-.648-3.759-.778-19.831-.972-53.078-.713-14.711.13-33.7.065-42.126-.065C1013.675-174.574,1005.25-174.574,1003.435-174.379Z" transform="translate(-351.665 -123.971)" fill="#2c5364"/>
    <path id="Path_103" data-name="Path 103" d="M52.736-165.333c-11.147.259-17.887.583-16.98.907,2.592.972,27.414,1.1,313.479,1.75,152.948.324,292.74.907,310.757,1.231,25.6.518,57.615.843,67.4.648.518,0,14.258.13,30.46.259,27.09.259,35.061,0,30.46-1.037-.907-.194-38.626-.713-83.927-1.1-45.236-.389-90.926-.972-101.425-1.361-10.5-.324-36.617-.518-58-.454-89.63.454-262.086-.13-275.112-.843a261.844,261.844,0,0,0-31.108.065c-13.027.583-37.589.713-91.056.454-40.246-.194-73.947-.454-74.854-.583S62.911-165.528,52.736-165.333Z" transform="translate(-12.305 -127.054)" fill="#2c5364"/>
    <path id="Path_104" data-name="Path 104" d="M326.064-157.684c-.648.713-.972,1.3-.713,1.3.907,0,2.981-1.361,2.981-1.944C328.333-159.369,327.3-159.045,326.064-157.684Z" transform="translate(-114.215 -129.454)" fill="#2c5364"/>
    <path id="Path_105" data-name="Path 105" d="M201.428-155.287c-10.693,2.916-12.119,2.916-83.992,2.592-40.376-.194-68.827-.13-69.345.259-.518.324,11.536.713,30.784.972,17.434.194,52.106.713,77.057,1.037,25.859.389,48.282.454,52.171.13,3.759-.324,68.438-.518,143.681-.454,94.232,0,136.681-.194,136.228-.648s-45.949-.648-143.227-.648H202.206l1.491-1.3c.842-.713,2.268-1.815,3.111-2.4C208.881-157.167,208.3-157.1,201.428-155.287Z" transform="translate(-16.669 -130.23)" fill="#2c5364"/>
    <path id="Path_106" data-name="Path 106" d="M740.787-149.489c-1.555.13-2.787.518-2.787.907,0,.324,3.824.583,9.073.583,8.944,0,11.86-.713,6.092-1.555A60.64,60.64,0,0,0,740.787-149.489Z" transform="translate(-259.463 -132.658)" fill="#2c5364"/>
    <path id="Path_107" data-name="Path 107" d="M778.661-149.236c-9.2.778-3.5,1.231,15.554,1.231,11.536,0,18.73-.194,18.082-.518C811-149.3,785.206-149.819,778.661-149.236Z" transform="translate(-272.256 -132.782)" fill="#2c5364"/>
    <path id="Path_108" data-name="Path 108" d="M850.988-148.4c.518.324,17.3.713,37.265.972,19.961.194,45.625.518,57.032.648,24.368.324,20.933-.454-6.481-1.491C917.222-149.109,849.562-149.174,850.988-148.4Z" transform="translate(-299.218 -132.974)" fill="#2c5364"/>
    <path id="Path_109" data-name="Path 109" d="M1045.462-146.251a48,48,0,0,0-5.962.713c-.259.324,89.954.259,99.805-.065l5.833-.194-4.537-.454C1134.768-146.9,1052.98-146.834,1045.462-146.251Z" transform="translate(-365.565 -133.758)" fill="#2c5364"/>
    <path id="Path_110" data-name="Path 110" d="M39.5-138.307c-6.286.778,19.378,1.426,75.178,2.009,29.034.259,55.282.324,58.328.065l5.509-.324-6.8-.454c-3.759-.259-26.183-.648-49.9-.843s-51.134-.454-60.92-.583S41.44-138.5,39.5-138.307Z" transform="translate(-13.323 -136.647)" fill="#2c5364"/>
    <path id="Path_111" data-name="Path 111" d="M632.22-137.2a16.3,16.3,0,0,0-4.731.843c-.583.583,11.342.972,15.554.454C649.913-136.616,639.932-137.847,632.22-137.2Z" transform="translate(-220.566 -137.042)" fill="#2c5364"/>
    <path id="Path_112" data-name="Path 112" d="M269.983-136.246c-2.916.648,204.471.648,212.572,0,3.37-.194-42.514-.454-102.074-.454C320.988-136.7,271.215-136.506,269.983-136.246Z" transform="translate(-94.751 -137.282)" fill="#2c5364"/>
    <path id="Path_113" data-name="Path 113" d="M665.5-136.335c-.259.454,5.314.648,16.332.583,10.693-.065,15.813-.259,14.128-.648C692.2-137.177,666.014-137.113,665.5-136.335Z" transform="translate(-233.945 -137.193)" fill="#2c5364"/>
    <path id="Path_114" data-name="Path 114" d="M728.866-136.308c-1.037.324,1.231.583,6.157.713,8.879.324,14.906-.13,13.091-.907C746.559-137.086,731-136.956,728.866-136.308Z" transform="translate(-256.162 -137.22)" fill="#2c5364"/>
    <path id="Path_115" data-name="Path 115" d="M783-136.475c0,.648,53.337,1.426,95.917,1.426,15.878,0,36.422.324,45.69.648,9.916.389,20.35.454,25.275.13l8.425-.518-8.1-.454C923.311-136.6,783-137.641,783-136.475Z" transform="translate(-275.299 -137.183)" fill="#2c5364"/>
    <path id="Path_116" data-name="Path 116" d="M416.585-320.9c-.842,1.037-.778,1.1.259.259s1.361-1.361.842-1.361A4.036,4.036,0,0,0,416.585-320.9Z" transform="translate(-146.149 -72.072)" fill="#2c5364"/>
    <path id="Path_117" data-name="Path 117" d="M989.723-361.352c1.231.842,1.944.842,1.944,0,0-.389-.648-.648-1.426-.648C989.01-362,988.945-361.87,989.723-361.352Z" transform="translate(-347.869 -57.995)" fill="#2c5364"/>
  </g>
</svg>
