<svg xmlns="http://www.w3.org/2000/svg" width="1123.884" height="674.509" viewBox="0 0 1123.884 674.509">
  <g id="Whangaehu" transform="translate(2.5 672.018) rotate(-90)">
    <path id="Shape" d="M424.126,450.232c.038,14.753,15.273,31.342,21.781,39.9,12.867,16.917,26.25,32.539,39.509,48.41s26.553,31.7,39.2,49.125c8.209,11.311,17.855,24.05,23.422,40.2,11.861,34.419-25.534,29.308-35.221,30.061-24.642,1.923-52.906,1.045-76,18.969-13.788,10.7-19.287,28.646-16.325,54.8.955,8.506,3.78,18.294,1.387,26.58-2.556,8.85-8.436,13.957-13.316,17.382-17.8,12.477-38.265,13.923-57.1,15.489-20.308,1.721-40.807,1.218-60.972,1.351-8.55.056-17.48,5.593-25.623,10.094-10.674,5.9-21.221,12.524-31.808,18.931-23.289,14.06-47.288,28.869-71.925,32.439-15.43,2.237-32.295-.787-44.281-20.247-6.018-9.768-9.169-24.3-12.648-37.2-4.212-15.587-8.257-31.326-12.741-46.668-14.445-49.413-35.068-97.7-68.542-100.125-5.064-.366-10.037.826-15.077,1.05-3.21.138-6.066-1.26-7.259-7.313-3-15.183,6.429-39.152,10.295-51.2,8.464-26.37,18.01-51.557,26.951-77.4,5.916-17.089,16.156-40.443,16.263-61.206.1-18.5-13.555-31.872-20.986-40.984-6.963-8.532-19.58-20.471-20.344-37.827-.37-8.415,2.709-15.389,5.923-20.8,5.634-9.465,12.125-16.141,17.194-26.942C44.187,309.385,51.131,285.008,50,261.133c-.783-16.543-6.018-27.376-12.679-37.732-2.8-4.354-5.071-7.434-5.219-14.5-.239-11.225,2.2-23.1,4.209-33.511C43.5,138.142,53.71,102.126,65.068,68.5,70.743,51.693,76.873,34.939,84.4,20.6,89.327,11.191,95.973-.013,103.488,0c8.7,0,17.912,5.662,26.372,9.9,15.8,7.912,31.411,17.058,46.958,26.442q53.932,32.565,106.85,70.4c24.849,17.8,50.226,35.625,73.589,59.289A104.842,104.842,0,0,1,370.1,182.212c4.26,6.425,9.546,9.3,14.905,11.44,33.266,13.3,69.711,3.089,103.115-3.313,8.479-1.622,16.957-3.253,25.46-4.388,7.31-.977,16.061-3.778,23.165.43,14,8.282,1.761,38.808-3.412,51.244-18.215,43.794-41.716,80.846-63.5,118.673-10.357,18.014-20.792,35.981-30.586,55.015C434.148,421.208,424.092,437.3,424.126,450.232Z" transform="translate(669.525 854.59) rotate(180)" fill="none" stroke="#5be7c3" stroke-miterlimit="10" stroke-width="5"/>
    <path id="Shape-2" data-name="Shape" d="M399.461,426.076c5.583,15.611,15.379,27.149,23.51,38.008,11.7,15.632,23.771,30.4,35.658,45.585,11.24,14.365,22.5,28.89,32.914,45.2,6.347,9.947,14.311,21.842,17.318,36.554,6.522,31.888-28.563,27.05-37.224,27.884-21.533,2.064-45.944,2.537-65.866,19.328-12.439,10.484-17.55,27.871-14.9,52.01.917,8.352,2.57,15.482.477,23.79-2.419,9.616-7.983,15.611-13.084,19.843C362.29,747.538,343.4,750.355,326.083,752.7c-17.893,2.421-36.536,4.127-53.854,2.357-6.925-.705-14.9,3.3-21.752,6.369-10.545,4.731-20.983,10.186-31.478,15.263-21.325,10.321-43.2,20.263-65.389,21.4-16.016.817-32.716-3.612-46.041-20.733-13.5-17.361-19.5-44.274-26.986-69.857-12.934-44.23-30.4-98.008-60.323-107.353-4.537-1.419-8.9-.649-13.43-1-2.331-.177-4.984-.735-6.166-4.877C-2.4,583.514,6,563.856,8.834,555.621c7.818-22.758,16.609-44.4,24.8-66.722,6.508-17.722,14.755-37.414,17.273-58.422,3.054-25.491-16.9-43.633-23.921-61.583-12.167-31.127,10.885-48.862,22.249-63.7,13.051-17.039,23.823-48.122,12.124-74.484-4.475-10.082-9.982-16.089-11.981-29.243-3.126-20.573-.762-44.084,1.774-64.421A555.235,555.235,0,0,1,69.241,48.6C75.13,28.817,84.9-2.2,99.206.124c9.631,1.552,19.422,7.225,28.8,12.239,14.041,7.5,27.906,16.058,41.7,24.943a1094.916,1094.916,0,0,1,94.186,67.807c21.06,16.931,79.805,86.123,84.226,88.59,13.179,7.354,28.164,6.059,41.752,4.92,18.073-1.515,36.059-5.436,54.029-9.07,8.554-1.72,17.151-3.823,25.748-4.67,6.119-.6,14.158-1.118,19.52,5.294,10.464,12.51-1.194,41.134-6.015,53.244-14.77,37.126-33.454,69.277-50.972,102.149-8.6,16.141-17.325,32.254-25.129,49.688C403.9,402.3,396.01,416.434,399.461,426.076Z" transform="translate(651.138 827.947) rotate(180)" fill="none" stroke="#5acef2" stroke-miterlimit="10" stroke-width="5"/>
    <path id="Shape-3" data-name="Shape" d="M379.336,383.4c15.248,31.238,35.045,54.789,53.208,80.879,9.116,13.1,14.956,31.476,22.819,47.076,4.09,8.113,9.2,18.373,9.985,29.682,2.106,30.254-29.516,26.163-38.981,27.311-18.3,2.228-38.971,3.918-55.573,19.357-10.143,9.438-15.138,24.928-13.242,45.289.84,9.034,2.149,16.708,0,25.578a42.849,42.849,0,0,1-11.308,20.08c-13.2,13.671-29.607,18.041-44.47,21.3a201.182,201.182,0,0,1-52.56,4.431c-15.376-.727-30.679,7.451-45.693,12.841-19.889,7.137-40.139,13.37-60.491,12.428-16.074-.749-32.274-6.629-46.014-22.257-13.963-15.916-22.358-39.739-29.927-65.446-11.442-38.864-25.7-90.938-50.8-105.7-3.651-2.151-7.053-2.387-10.819-2.762-1.829-.181-4.19-.237-5.1-3.674-2.183-8.277,5.885-24.323,8.136-29.912,7.187-17.854,14.977-34.9,22.344-52.518,6.876-16.445,14.367-33.583,18.639-52.855,6.8-30.693-14.935-48.639-14.324-77.885.38-18.157,10.028-31.178,17.669-40.187,9.408-11.077,22.954-18.36,27.661-38.573,3.507-15.056-2-23.82-6.234-35.244-7.182-19.358-7.671-45.6-6.924-68.005A449.7,449.7,0,0,1,78.984,45.8c3.035-12.619,6.754-25.741,12.23-35.542C96.347,1.074,101.2-1.28,108.061.6c20.992,5.764,42.188,21.831,62.319,36.182a750.658,750.658,0,0,1,74.435,60.34c16.5,15.276,33.375,31.437,47.858,52.541,3.775,5.5,7.64,11.481,10.4,18.738,2.087,5.455,2.971,9.958,6.49,13.073,10.425,9.227,24.925,6.814,36.094,5.855,17.861-1.527,35.633-5.592,53.383-9.253,10.358-2.151,29.87-8.917,38.141,7.313,7.139,14.015-1.476,37.911-5.876,50.257-11.131,31.222-25.45,58.624-38.735,86.838-6.089,12.931-7.834,20.723-12.863,35.1-.6,1.711-1.369,3.683-2.091,5.867a31.163,31.163,0,0,0-1.6,7.107C375.614,375.657,377.464,379.55,379.336,383.4Z" transform="translate(634.156 782.504) rotate(180)" fill="none" stroke="#5be7c3" stroke-miterlimit="10" stroke-width="5"/>
    <path id="Shape-4" data-name="Shape" d="M350.1,343.756c14.089,27.621,31.064,50.313,46.189,76.161,6.782,11.589,13.631,23.746,18.8,37.884,2.78,7.6,5.73,17.173,4.965,26.622-2.2,27.122-28.207,24.672-38.715,26.26-15.612,2.332-33.549,4.682-47.355,19.309-9.043,9.579-12.434,23.725-10.746,41.969,1.813,19.57-2.24,33.777-11.463,44.695-11.563,13.677-26.159,19.252-39.584,23.212a154.206,154.206,0,0,1-48.939,6.287c-15.935-.551-31.374,4.262-47.2,7.392-20.988,4.145-42.65,6.19-63.4-2.307-18.068-7.4-34.387-23.708-46.621-48.927-12.778-26.321-19.1-59.482-29.48-88.6-6.472-18.163-15.5-42.189-27.587-49.249-4.032-2.355-11.384.822-8.162-10.761,1.841-6.625,5.287-12.437,8.01-17.853,4.4-8.752,8.943-17.263,13.416-25.895,9.533-18.4,19.742-37.193,26.887-58.978,9-27.431-4.38-48.543-2.748-76.358.876-14.968,6.649-26.915,12.759-36.3A130.937,130.937,0,0,1,71.81,222.064c4.609-5.133,10.067-9.043,14.087-15.677,5.73-9.441,3.243-20.617,2.168-32.821A473.913,473.913,0,0,1,86.828,108.7C88.136,82.183,91.2,54.911,97.669,30.816c2.515-9.381,5.7-19.328,10.431-25.615s9.624-5.859,15.044-3.965c16.078,5.6,32.124,18.619,47.376,30.962A501.228,501.228,0,0,1,226.2,84.56c12.337,13.561,24.714,28.211,35.035,46.6a116.034,116.034,0,0,1,8.167,17.478c1.586,4.388,2.436,10.048,4.733,13.345,7.188,10.293,21.619,7.22,30.048,6.621,16.824-1.193,33.382-6.862,50.184-8.24,9.17-.753,23.531-2.647,30.266,11.426,6.333,13.229.6,34.066-3.188,46.812-7.439,25.064-17.432,47.394-26.39,70.692-3.682,9.588-7.718,19.618-10.1,30.566C342.829,329.613,346.49,336.674,350.1,343.756Z" transform="translate(610.812 744.893) rotate(180)" fill="none" stroke="#5acef2" stroke-miterlimit="10" stroke-width="5"/>
    <path id="Shape-5" data-name="Shape" d="M326.123,295.768c11.215,24.306,24.734,45.881,36.03,70.583,6.612,14.465,18,38.784,12.885,59.178-5.61,22.409-25.164,23.02-36.467,24.826-13.453,2.15-29.25,5.086-40.764,19.078a37.79,37.79,0,0,0-8.058,17.991c-1.408,8.253.131,15.476.332,23.738.42,17.333-5.321,31.248-12.918,40.8-10.738,13.511-24.164,19.9-36.846,24.353a128.794,128.794,0,0,1-43.609,7.394c-13.987-.086-27.826.473-41.828,1.118-18.311.86-36.879-.529-54.641-9.294-17.5-8.64-33.405-24.834-45.9-48.654-12.19-23.245-20.415-51.655-27.619-80.594-4.088-16.426-10.993-40.972-20.742-49.269-4.338-3.694-8.593-3.44-3.982-13.044,5.805-12.093,13.629-21.8,20.353-32.138,9.7-14.926,19.642-30.144,27.784-47.889,5.2-11.332,7.516-22.328,7.158-37-.277-11.179-1.532-22.238-.9-33.458,1.485-26.335,12.995-44.394,23.169-61.211,6.545-10.816,12.522-19.066,15.891-34.451,3.985-18.184,5.659-37.967,8.32-56.848,2.925-20.733,6.3-42.3,12.689-60.562C122.146,4.161,129.06-3.13,139.4,1.253c16.137,6.827,32.044,23.643,46.368,39.2,14.581,15.828,28.912,33.625,41,55.382,6.524,11.749,10.976,25.544,16.77,38.165,7.286,15.845,23.773,9.844,33.57,8.5,16.264-2.227,67.438-18.889,62.716,35.078-1.971,22.526-9.733,43.315-15.409,63.193-2.353,8.249-5.758,18.15-6.29,27.6C317.545,278.671,322.752,288.449,326.123,295.768Z" transform="translate(590.3 697.357) rotate(180)" fill="none" stroke="#ff8062" stroke-miterlimit="10" stroke-width="5"/>
    <path id="Shape-6" data-name="Shape" d="M303.579,252.96c8.57,22.026,18.826,42.834,26.18,66.624,4.771,15.407,9.455,35.991,3.3,52.292-6.946,18.4-22.261,22.684-33.514,25.028-11.594,2.413-25.436,4.443-34.912,18.391a35.429,35.429,0,0,0-5.963,17.608c-.446,6.882.814,13.763.4,20.77-.935,15.733-6.228,28.7-13.051,38.1-20.186,27.815-50.23,34-74.585,34.727-12.191.362-24.737-1.536-37.006-2.894-15.921-1.763-31.867-5.549-47.05-14.671-32.284-19.389-53.922-62.391-69.035-115.9-4.757-16.843-8.4-35.066-15.85-48.6-3.842-6.989-3-12.009.926-18.383,6.142-9.961,13.634-17.574,20.451-25.888,9.7-11.824,19.6-23.824,28.174-37.987,5.91-9.764,10.106-19.171,11.38-33.811.909-10.438.7-21.075,1.243-31.579,1.04-19.954,4.6-39.755,10.905-56.305A301.794,301.794,0,0,1,92.7,104.07a311.1,311.1,0,0,0,20.873-47.4c8.067-23.252,19.4-66.142,38.4-54.791,20.956,12.525,40.6,44.349,54.043,75.183,4.515,10.353,8.222,23.049,14.311,30.684,9.116,11.411,18.366,11.011,29.209,10.963,16.234-.065,51.558-6.417,51.94,37.419.15,17.368-4.019,33.789-6.016,50.495C293.213,225.33,297.725,237.95,303.579,252.96Z" transform="translate(573.677 656.613) rotate(180)" fill="none" stroke="#f1b170" stroke-miterlimit="10" stroke-width="5"/>
    <path id="Shape-7" data-name="Shape" d="M283.756,219.657c8.477,28.707,27.487,75.878,13.028,107.8-7.637,16.872-21.144,23.21-32.476,26.988-9.119,3.056-20.116,4.2-27.006,17.158-5.064,9.524-2.816,23.386-4.756,35.309-2.408,14.783-7.935,26.876-14.727,35.966-18.98,25.406-45.37,33.2-68.2,34.862-23.712,1.719-49.84-6.321-72.154-21.791C49.641,436.653,28.8,400.119,14.221,353.853c-2.688-8.54-5.133-17.3-7.716-25.947C4.77,322.107,2.2,316.5.83,310.4A31.776,31.776,0,0,1,5.536,285.29c6.186-9.542,13.785-16.333,20.837-23.493,9.644-9.8,19.5-19.423,28.473-30.92,6.028-7.737,12.338-16.071,14.5-29.493a174.441,174.441,0,0,0,1.725-28.333c-.115-20.33.477-36.77,5.742-55.389,8.663-30.568,21.985-58.054,36.058-80.924,11.045-17.948,28.521-45.83,44.613-33.83,14.438,10.745,22.883,36.465,32.4,57.259C194.5,70.275,199.7,79.507,205.8,86.7c7.7,9.065,14.942,12.868,24.061,14.351,15.348,2.5,38.49,3.146,43.234,36.327,1.752,12.245.752,24.929,1.671,37.333C275.969,191.113,279.479,205.176,283.756,219.657Z" transform="translate(560.237 625.273) rotate(180)" fill="none" stroke="#5be7c3" stroke-miterlimit="10" stroke-width="5"/>
    <path id="Shape-8" data-name="Shape" d="M262.563,196.129c6.036,31.411,13.966,71-.613,98.914-7.062,13.524-17,21.084-26.607,26.734-6.886,4.049-17.818,5.241-22.04,17.689-3.1,9.161-3.53,21.8-6.335,31.613-3.691,12.847-9.355,24.25-16.544,33.308-17.844,22.671-41.086,31.432-62.281,33.941C82.09,443.771,35.231,400.419,10.587,329.1c-7.348-21.26-16.833-43.889-4.958-65.609,12.965-23.7,32.5-34.8,47.968-51.634,5.912-6.428,13.446-14.156,16.745-25.8,1.984-7,2.12-15.775,2.211-23.476.238-19.616,1.142-37.258,5.517-55.563a291.4,291.4,0,0,1,29.75-75.76c10.651-18.64,25.841-40.546,41.31-27.108,11.86,10.327,19.382,32.246,28.6,48.4,10.257,17.994,22.939,30.12,36.867,36.043,13.549,5.746,28.41,9.626,35.55,34.048a168.218,168.218,0,0,1,5.927,28.5c1.469,15.2,3.637,30.226,6.489,44.986Z" transform="translate(547.858 602.809) rotate(180)" fill="none" stroke="#ff8062" stroke-miterlimit="10" stroke-width="5"/>
    <path id="Shape-9" data-name="Shape" d="M241.416,163c2.794,31.718,3.1,64.792-9.872,89.79-6.055,11.662-13.71,19.948-21.45,27.455-5.694,5.523-11.576,10.182-15.83,19.238-3.941,8.384-6.936,18.12-10.741,26.724a119.561,119.561,0,0,1-17.784,29.232A93.581,93.581,0,0,1,108.456,387.9c-9.547,1.57-19.9,2.388-29.387-1.893-9.158-4.13-18.215-10.66-26.635-18.274-17.9-16.171-33.415-39.853-44.662-69.795-7.71-20.537-11.882-40.507-1.9-61.341,11.258-23.485,28.912-36.442,43.461-51.683,9.979-10.454,21.164-20.7,23.028-42.916,1.485-17.677,2.69-34.454,6.53-51.163,5.716-24.646,14.119-46.971,24.713-65.652,9.688-17.019,21.944-31.46,35.8-22.37,10.979,7.214,19.5,23.377,29.091,34.932,10.69,12.906,22.436,20.021,34.8,25.743,11.115,5.163,21.581,13.1,28.766,29.937a101.1,101.1,0,0,1,4.148,11.039c1.447,4.91,1.334,9.782,1.618,15.289C238.58,134.28,240.152,148.644,241.416,163Z" transform="translate(536.539 569.901) rotate(180)" fill="none" stroke="#f1b170" stroke-miterlimit="10" stroke-width="5"/>
    <path id="Shape-10" data-name="Shape" d="M219.615,125.89c-.239,30.127-4.258,58.6-15.269,82.079-4.707,10.044-10.328,18.317-15.507,27.521-4.17,7.418-8.111,14.313-12.907,20.428-11.375,14.478-20.62,33.213-32.708,46.105C127.088,319.259,108.6,328.786,90.262,332.6c-8.956,1.861-18.208,2.512-27.269.409-7.781-1.805-15.235-8.144-22.149-14.626a145.265,145.265,0,0,1-35.506-53.6c-19.4-50.356,18.847-86.97,38.477-108.411,9.027-9.863,22.822-21.286,26.52-40.822,2.643-13.957,4.254-28.15,7.658-41.675C87.137,37.548,105.7-5.175,130.439.513c10.584,2.43,20.231,12.3,30.113,18.929,10.175,6.825,20.676,10.63,31.251,14.8,9.884,3.9,17.762,9.449,24.146,24.328C219,65.679,218.731,74.185,219,82.9,219.448,97.221,219.723,111.621,219.615,125.89Z" transform="translate(525.576 530.2) rotate(180)" fill="none" stroke="#5be7c3" stroke-miterlimit="10" stroke-width="5"/>
    <path id="Shape-11" data-name="Shape" d="M198.076,92.663c-3.973,45.475-18.734,95.121-40.438,121.53-25.528,31.066-53.185,57.228-83.687,64.747-14.141,3.487-29.632,5.2-42.976-6.2C20.82,264.066,9.023,251.1,3.434,232.87c-13.673-44.593,16.74-80.093,34.068-100.723,9.329-11.107,21.2-21.929,28.235-38.148,4.079-9.4,6.162-21.843,9.455-32.171C85.174,30.53,101.6,5.287,122.069.772c9.462-2.085,18.993.495,28.386,2.545,9.613,2.1,19.347,3.239,28.9,6.164,7.626,2.339,16.613,6.3,19.422,21.009C202.317,49.028,199.7,74.092,198.076,92.663Z" transform="translate(513.904 493.112) rotate(180)" fill="none" stroke="#5acef2" stroke-miterlimit="10" stroke-width="5"/>
    <path id="Shape-12" data-name="Shape" d="M177.434,76.462c-5.8,42.754-18.07,84.458-38.7,109.982-10.942,13.534-23.643,22.876-35.838,32.107-13.823,10.461-28.266,18.582-43.015,22.61-18.366,5.018-48.112,9.54-57.708-28.179-9.524-37.44,14.543-70.575,28.775-89.459,9.125-12.1,18.89-23.2,27.608-36.424,4.727-7.169,8.369-15.454,12.369-23.862,11.057-23.3,26.819-41.743,42.885-51.589C129.377,2.1,148.64-2.122,165.076,1.032c7.092,1.358,12.161,5.93,14.306,18.935C182.355,38.046,179.83,58.8,177.434,76.462Z" transform="translate(502.938 469.606) rotate(180)" fill="none" stroke="#f1b170" stroke-miterlimit="10" stroke-width="5"/>
    <path id="Shape-13" data-name="Shape" d="M155.088,68.649c-5.758,37.643-18.176,72.024-36.293,94.618-20.307,25.327-46.455,39.4-70.489,46.557-12.775,3.8-40.458,14.108-46.969-15.389s12.314-58.565,23.148-74.567C37.633,100.477,51.81,81.754,65.971,64.355c12.3-15.128,25.429-30.594,38.756-42.276A114.752,114.752,0,0,1,128.121,5.91c5.961-3.034,13.54-7.56,19.789-5.3C163.672,6.313,157.842,50.651,155.088,68.649Z" transform="translate(490.208 450.279) rotate(180)" fill="none" stroke="#ff8062" stroke-miterlimit="10" stroke-width="5"/>
    <path id="Shape-14" data-name="Shape" d="M131.194,59.55c-12.634,71.188-52.661,106.2-91.2,118.4-8.956,2.833-34.06,13.046-39.067-8.7-4.852-21.085,10.577-46.089,17.8-57.937C41.107,74.608,68.757,47.389,94.959,20.425c8.179-8.417,22.929-26.681,33.075-18.256C139.048,11.335,133.811,44.788,131.194,59.55Z" transform="translate(478.182 429.906) rotate(180)" fill="none" stroke="#5acef2" stroke-miterlimit="10" stroke-width="5"/>
    <path id="Shape-15" data-name="Shape" d="M104.459,47.13c-10.987,52.425-42.943,82.492-72.324,92.407-7.2,2.425-25.473,9.977-30.923-4.653-5.044-13.533,6.993-33.142,11.495-40.934C22.733,76.6,34.614,62.3,46.352,48.565,57.2,35.853,68.174,22.823,79.595,12.073c6.015-5.659,17.3-17.734,24.131-9C111.086,12.475,106.9,35.489,104.459,47.13Z" transform="translate(464.388 403.785) rotate(180)" fill="none" stroke="#5acef2" stroke-miterlimit="10" stroke-width="5"/>
    <path id="Shape-16" data-name="Shape" d="M73.222,32.674C64.848,66.91,42.42,89.141,22.636,96.529c-5.323,1.985-16.829,7.129-21.32-2.014C-2.818,86.1,3.845,73.751,6.8,68.05c13.107-25.268,32.3-47.84,49.885-61.7C61.108,2.862,69.056-3.979,73.6,3.056,78.271,10.28,75.146,24.812,73.222,32.674Z" transform="translate(447.411 374.013) rotate(180)" fill="none" stroke="#5be7c3" stroke-miterlimit="10" stroke-width="5"/>
    <path id="Shape-17" data-name="Shape" d="M38.995,16.236c-4.719,17-17.051,29.826-27.267,33.911C4.538,53.02-4.1,50.538,2.162,35.74,8.386,21.051,19.936,7.641,29.725,1.695,37.193-2.84,43.047,1.633,38.995,16.236Z" transform="translate(428.312 343.194) rotate(180)" fill="none" stroke="#f1b170" stroke-miterlimit="10" stroke-width="5"/>
    <path id="Shape-18" data-name="Shape" d="M228.178,214.524c.3,33.588,10.2,68.491,5.314,102.713-4.015,28.106-24.23,30.454-36.359,43.187-9.637,10.117-15.106,28.038-20.317,45.232-4.682,15.437-8.888,31.338-13.821,46.522-3.193,9.816-8.677,29.091-15.6,29.438-6.629.335-12.709-14.685-16.56-23.564-5.022-11.573-9.472-23.912-14.348-35.67-8.216-19.834-18.073-34.514-29.363-48.408q-19.269-23.715-39.174-45.808c-9.77-10.877-19.607-21.673-29-33.625C13.061,287.04.06,272.971,0,259.146c-.029-6.6,3.439-13.9,5.776-19.176,3.956-8.926,8.464-17.087,12.987-25.074,8.424-14.874,17.2-29.073,25.89-43.445C55.929,152.8,66.7,134.457,76.608,113.281c10.247-21.918,20.036-44.558,30.026-66.888,6.765-15.128,13.523-32.116,23.282-41.4,12.222-11.6,22.255.632,34.615.774,10.633.125,9.849,44.545,11.2,56.9,1.356,12.5,4.344,24.14,5.5,36.67,1.444,15.643,1.463,31.648,1.818,47.459.431,19.339.6,37.75,12.067,45.125,6.525,4.19,13.582,5.071,20.337,7.581C219.831,201.128,228.083,203.913,228.178,214.524Z" transform="translate(234.847 659.225) rotate(180)" fill="none" stroke="#ff8062" stroke-miterlimit="10" stroke-width="5"/>
    <path id="Shape-19" data-name="Shape" d="M211.28,188.111c1.114,28.156,7.7,64.187,1.472,93.249-5.32,24.835-21.957,28.054-33.159,41.1-9.248,10.761-13.365,28.369-17.988,45.667C157.9,382,154.3,396.013,150.09,409.446c-3.1,9.9-7.84,26.612-14.291,28.661-5.8,1.842-12.019-12.912-15.274-20.419-4.749-10.958-8.811-22.859-13.007-34.51-7.372-20.466-14.922-38.87-25.71-53.9-10.838-15.1-22.694-26.388-34.677-38.139-9.374-9.194-18.7-18.654-27.608-29.268-6.635-7.9-16.175-18.016-19.21-32.108-2.405-11.148,9.785-29.647,13.379-36.176,7.4-13.425,15.239-26.027,23.093-38.551,9.575-15.262,19.455-28.609,27.911-46.02,15.124-31.126,27.766-69.89,47.226-93.027C123.658,2.032,136.72-1.536,149.775.551c5.169.826,6.411,13.984,7.062,21.658,1.084,12.749,1.22,25.717,2.051,38.518.781,11.983,2.513,23.367,3.909,35.117,1.413,11.905,1.809,24.1,2.85,36.09.644,7.442,1.282,16.1,4.1,22.085,2.916,6.194,7.728,8.789,11.933,10.761C189.579,168.446,210.492,168.244,211.28,188.111Z" transform="translate(223.175 626.838) rotate(180)" fill="none" stroke="#5be7c3" stroke-miterlimit="10" stroke-width="5"/>
    <path id="Shape-20" data-name="Shape" d="M186.865,153.929c1.875,25.842,4.5,58.03-3.137,81.839-6.242,19.468-19.553,23.667-29.062,36.352-7.908,10.549-10.9,27.325-14.819,42.916-3.221,12.788-6.459,25.632-10.363,37.8-2.961,9.229-6.777,21.742-12.655,24.961-5.026,2.751-10.7-9.573-13.491-15.706-4.745-10.454-8.613-22.167-12.455-33.726-6.285-18.913-12.068-39.116-21.012-54.5-8.691-14.929-19.016-23.741-29.534-33.649A286.949,286.949,0,0,1,16.682,215.69C10.854,208.742,3.631,200.512.594,188.953c-2.626-9.968,4.117-21.768,7.486-28.8C13.643,148.547,19.818,137.9,25.9,127.209c6.571-11.533,13.849-22.172,20.208-33.988,13.372-24.865,24.054-52.4,40.535-71.45C97.321,9.431,111.683-1.78,124.3.236c9.073,1.453,8.477,37.655,9.348,49.222,1.433,18.913,4.2,38.785,8.595,56.207,3.775,14.929,12.746,19.532,21,22.88,5.169,2.1,10.588,3.239,15.588,6.486C184.619,138.8,186.08,143.1,186.865,153.929Z" transform="translate(205.489 580.87) rotate(180)" fill="none" stroke="#5acef2" stroke-miterlimit="10" stroke-width="5"/>
    <path id="Shape-21" data-name="Shape" d="M159.017,117.462c1.116,21.848.865,47.685-6.364,66.584C146.317,200.6,135.038,204.959,127.015,218c-6.26,10.174-8.72,26.763-12.088,40.218-4.115,16.451-9.882,46.835-20.263,53.026-9.656,5.755-19.756-31.01-23.253-41.973-5.535-17.352-10.164-36.381-16.877-52.405-5.781-13.8-13.526-21.422-21.747-29.618-10.482-10.467-26.4-22.88-32-43.279-4.177-15.2,9.408-37.8,14.045-48.331,4.851-11,8.505-24.043,13.511-34.657,7.9-16.749,20.7-30.233,31.273-40.524C69.894,10.447,83.239-.632,94.9.028c7.662.431,9.119,21.762,10.754,32.182,2.342,14.813,5.456,28.087,12.145,38.161,6.808,10.256,14.834,15.089,23.27,19.318,4.33,2.155,9.27,3.837,13.144,8.191C158.489,102.619,158.587,109.064,159.017,117.462Z" transform="translate(183.916 532.29) rotate(180)" fill="none" stroke="#f1b170" stroke-miterlimit="10" stroke-width="5"/>
    <path id="Shape-22" data-name="Shape" d="M130.5,86.7c-.062,18.876-2.456,39-9.554,53.563-5.912,12.128-15.167,16.181-20.826,28.579-4.483,9.815-6.765,23.594-9.766,34.993C86.684,217.8,81.494,242.2,72.366,247.051c-8.909,4.719-16.789-22.157-20.2-32.792-5-15.594-9.052-32.123-14.1-47.674a79.717,79.717,0,0,0-15.229-27.927C15.275,129.422,4.73,119.19.693,103.91-2.218,92.846,4.828,75.167,7.386,65.421a151.37,151.37,0,0,0,4.147-20.291c.672-5.526.738-10.639,2.684-15.384,4.9-11.933,15.642-13.491,22.931-17.425C46.83,7.1,57.1,1.167,67.232.034c6.227-.708,9.4,9.635,12.958,16.911,4.2,8.6,10.145,14.787,15.338,21.278,6.853,8.58,14.311,13.916,22.027,19.38,3.48,2.467,7.569,4.886,10.264,9.79C130.636,72.478,130.523,79.887,130.5,86.7Z" transform="translate(163.048 488.934) rotate(180)" fill="none" stroke="#ff8062" stroke-miterlimit="10" stroke-width="5"/>
    <path id="Shape-23" data-name="Shape" d="M106.2,72.309c-1.23,15.853-5.065,31-11.541,42.211-4.965,8.6-11.558,13.448-15.542,23.786-3.714,9.637-6.3,20.594-9.366,30.9C66.507,180.1,61.686,198.3,54.2,201.266c-8.067,3.192-14.281-15.173-17.722-25.352-4.347-12.863-7.649-26.7-11.536-40.009A132.4,132.4,0,0,0,13.864,109C9.23,100.646,2.948,92.646.6,81.167-1.469,71,2.407,58.693,3.093,48.381c.732-11.017-.551-22.59,3.507-32.05C14.969-3.179,35.974.439,47.982.022,59.831-.409,69.357,11.53,78.945,22.887c6.333,7.5,12.929,13.848,19.422,20.835C104.986,50.85,107.284,58.357,106.2,72.309Z" transform="translate(146.778 463.338) rotate(180)" fill="none" stroke="#5acef2" stroke-miterlimit="10" stroke-width="5"/>
    <path id="Shape-24" data-name="Shape" d="M88.838,69.892c-3.639,22.966-15,35.173-23.127,52.529-6.647,14.208-11.631,43.633-22.826,47.526-12.71,4.418-20.318-34.57-24.737-49.614C13.245,103.649,4.512,90.077.881,72.415c-1.91-9.27-.27-17.92.747-27.186,1.114-10.179,1.951-20.579,5.8-28.768C15,.345,29.78.457,40.43.014,51.453-.447,61.2,10.6,69.987,21.62,79.3,33.292,92.565,46.338,88.838,69.892Z" transform="translate(136.876 451.845) rotate(180)" fill="none" stroke="#5acef2" stroke-miterlimit="10" stroke-width="5"/>
    <path id="Shape-25" data-name="Shape" d="M74.256,65.67c-4.1,16.363-12.716,29.665-19.707,42.223-5.836,10.469-12.113,31.544-21.009,33.046-10.457,1.771-16.794-20.732-20.909-34.534C8.581,92.849,2.746,78.532.5,63.65c-2.338-15.5,3.889-36.383,9.827-47.352C16.955,4.067,27.791-.453,37.089.035c9.736.5,18.669,10.6,26.042,21.092C71.014,32.337,79.024,46.675,74.256,65.67Z" transform="translate(128.388 441.398) rotate(180)" fill="none" stroke="#ff8062" stroke-miterlimit="10" stroke-width="5"/>
    <path id="Shape-26" data-name="Shape" d="M59.758,59.349c-3.916,13.609-10.7,25.122-16.964,35.391-4.831,7.928-11.958,21.409-18.927,21.739C16.2,116.845,9.7,105.529,6.654,93.93,3.65,82.49.484,68.147.035,55.6-.943,28.266,18.942-2.35,33.873.143,48.03,2.508,67.567,32.23,59.758,59.349Z" transform="translate(119.545 431.996) rotate(180)" fill="none" stroke="#5acef2" stroke-miterlimit="10" stroke-width="5"/>
    <path id="Shape-27" data-name="Shape" d="M46.748,51.446c-5.4,17.732-18.526,43.012-30.676,43.612C2.126,95.745-1.375,67.614.443,47.227,2.29,26.42,18.368-3.7,31.189.373,43.7,4.344,53.151,30.417,46.748,51.446Z" transform="translate(111.764 422.593) rotate(180)" fill="none" stroke="#5be7c3" stroke-miterlimit="10" stroke-width="5"/>
    <path id="Shape-28" data-name="Shape" d="M35.214,41.777C30.64,56.624,20.878,75.168,10.7,75.731c-12.131.664-11.9-23.089-9.151-37.869C4.406,22.514,17-3.7,27.627.437,37.955,4.478,39.6,27.547,35.214,41.777Z" transform="translate(105.752 410.056) rotate(180)" fill="none" stroke="#ff8062" stroke-miterlimit="10" stroke-width="5"/>
    <path id="Shape-29" data-name="Shape" d="M24.392,29.9C21.372,40.5,13.816,53.887,6.631,54.315-2.15,54.831-.442,35.992,1.826,26.9,4.523,16.082,13.562-2.716,21.148.329,28.616,3.328,26.883,21.175,24.392,29.9Z" transform="translate(99.739 396.475) rotate(180)" fill="none" stroke="#5acef2" stroke-miterlimit="10" stroke-width="5"/>
    <path id="Shape-30" data-name="Shape" d="M105.067,147.042c19.436-21.255,41.407-38.8,62.126-56.632,30.278-26.055,61-51.413,92.817-70.821,17.057-10.406,39.16-25.405,57.462-17.254,6.692,2.977,12.794,11.99,18.794,17.846,8.273,8.074,16.668,15.748,25.049,23.439,16.811,15.417,33.675,30.679,50.2,47.084,7.956,7.9,15.676,17.854,23.959,24.6,4.841,3.942,10.633,2.1,15.8,1.849,11.981-.58,23.954-1.681,35.927-2.618,14.645-1.143,29.324-2.36,43.986-1.909,6.614.209,22.809-1.909,26.449,8.358,1.959,5.529-2.658,15.5-4.8,20.111a269.068,269.068,0,0,1-12.9,23.679c-10.306,17.489-21.251,34.143-30.412,53.679-4.707,10.042-10.874,22.312-7.8,36.022,3.1,13.847,8.474,25.838,11.752,39.638,3.774,15.88,5.341,32.407,7.121,49.246,1.319,12.446,4.392,23.473,7.281,34.946,3.192,12.683,6.5,25.472,8.715,38.847,1.465,8.835,3.829,24.728-1.3,30.322-7.281,7.954-20.934,1.515-29.234-.83-11.47-3.233-22.857-7.351-34.3-10.9-8.3-2.579-16.637-5.408-25.08-5.709-13.61-.486-27.265,1.2-40.839,2.76-25.135,2.9-50.09,6.827-75.309,6.827-22.1,0-73.155-46.073-85.107-54.186-23.856-16.193-48.347-31.547-70.922-53.094-6.107-5.834-15.507-13.607-18.72-25.614-1.982-7.4-1.071-11.676-5.747-16.444-6.379-6.5-14.552-9.058-21.614-11.969-11.372-4.686-22.833-8.654-34.258-12.9C71.07,256.854,48.12,247.173,25.11,237.857c-6.956-2.816-15.373-3.439-22-8.4-4.275-3.186-3.831-7.2-.522-12.037,5.8-8.5,13.939-13.211,20.8-18.056,10.045-7.1,20.256-13.431,30.471-19.673s20.483-12.291,30.7-18.544C91.3,157.023,99,153.676,105.067,147.042Z" transform="translate(593.481 1118.907) rotate(180)" fill="none" stroke="#ff8062" stroke-miterlimit="10" stroke-width="5"/>
    <path id="Shape-31" data-name="Shape" d="M76.5,120.376c20.559-21.3,43.38-38.265,65.38-54.819,28.156-21.2,56.95-41.068,86.617-54.319,17.418-7.775,37.971-16.36,55.768-7.444,6.349,3.182,11.093,10.332,16.536,16.644,6.2,7.2,12.646,13.8,19.089,20.3Q339.784,60.8,360.1,79.484c7.173,6.626,15.067,15.5,23.172,17.8,6.443,1.828,13.761-.818,20.231-1.589,11.654-1.386,23.305-2.816,34.964-4.03,13.453-1.4,26.944-2.691,40.426-2.467,7.514.125,20.413-1.937,25.727,6.815,4.636,7.638-12.243,35.26-15.212,40.508-9.27,16.386-19.02,31.988-27.648,49.51-5.1,10.332-11.308,22.9-13.458,36.595-1.83,11.672,1.7,24.969,3.787,35.76,2.608,13.514,4.712,27.523,7.743,40.753,2.7,11.788,6.994,22.288,10.766,33,4.149,11.788,8.352,23.768,11.432,36.629,1.887,7.913,5.011,21.165,1.26,28.707-4.333,8.7-17.691,3.013-23.181,1.776-11.139-2.549-22.191-6.337-33.253-9.73-18.373-5.631-35.89-10.557-54.6-9.377-24.365,1.542-48.706,5.166-73.066,7.173-9,.749-18.134,2.256-27.137,1.442-5.161-.47-9.09-3.311-12.093-9.721-4.1-8.748-13.541-13.591-20.108-18.611-10.239-7.822-20.607-15.1-30.947-22.469-22.7-16.188-45.83-31.79-67.356-52.727-6.81-6.622-14.607-14.005-19.645-24.945-2.811-6.1-2.1-11.977-3.818-18.461-2.272-8.529-9.74-12.38-14.2-15.167-8.616-5.39-17.586-9-26.486-12.386A339.8,339.8,0,0,0,16.6,197.881c-4.8-.861-23.682-3.845-13.763-18.224,10.963-15.895,26.788-23.678,39.69-32.635C54.151,138.97,65.783,131.48,76.5,120.376Z" transform="translate(548.922 1087.565) rotate(180)" fill="none" stroke="#5be7c3" stroke-miterlimit="10" stroke-width="5"/>
    <path id="Shape-32" data-name="Shape" d="M53.979,90.36C73.3,71.623,94.711,57.645,115.523,44.272c25.256-16.227,51.143-30.691,77.634-38.794C209.8.393,228.141-3.514,244.668,4.937c11.286,5.768,20.019,21.365,29.93,32.093a275.781,275.781,0,0,0,30.85,29.2c6.593,5.21,13.685,10.458,21.021,9.768,17.836-1.668,35.651-5.642,53.507-7.574,11.813-1.29,23.648-2.351,35.5-2.033,7.144.189,16.96-.585,23.285,6.19,6.992,7.492-30.236,71.462-33.755,78.663-8.822,18.054-19.5,42.013-17.8,67.689,1.632,24.544,8.7,42.869,16.7,62.1,4.538,10.94,19.093,40.165,13.7,54.393-3.081,8.133-13.238,5.317-18.063,4.763-9.51-1.092-18.966-3.439-28.426-5.476-13.794-2.953-27.964-7.514-41.816-8.85-9.646-.928-19.348.313-29.011.34-13.855.034-27.709-.157-41.563-.378-11.633-.189-23.364,0-34.956-2.012-7.207-1.238-12.677-4.019-17.846-11.877-4.5-6.835-11.283-10.836-17.017-15.183-9.469-7.174-19.062-13.824-28.624-20.581-20.019-14.151-40.269-28-59.431-45.689-8.747-8.069-23.455-19.365-25.506-38.927-.741-7.052-1.285-10.1-5.107-14.112-5.425-5.694-11.922-8.258-18.008-10.489-14.189-5.2-28.79-4.423-42.954-9.564-5.769-2.119-13.3-6.693-6.715-17.164,7.685-12.246,18.871-18.978,28.077-26.543,4.6-3.774,9.33-7.307,13.694-11.916C47.682,98.214,50.551,93.66,53.979,90.36Z" transform="translate(497.987 1053.611) rotate(180)" fill="none" stroke="#5acef2" stroke-miterlimit="10" stroke-width="5"/>
    <path id="Shape-33" data-name="Shape" d="M37.526,62.258C55.38,47.039,74.769,35.974,93.81,26c21.15-11.065,42.809-20.23,64.755-24.129,15.154-2.7,31.3-3.5,46.008,4.77,9.3,5.231,15.607,16.231,23.611,25.456,12.08,13.943,25.149,24.991,39.661,22.3q24.4-4.511,48.97-6.769c9.878-.909,19.8-1.59,29.685-.956,6.253.4,14.309,1.064,19.749,6.17,7.279,6.838-20.062,58.871-23.47,66.454a235.43,235.43,0,0,0-18.269,61.843c-2.953,19.014,3.079,33.962,9.3,48.185,3.868,8.833,16.368,31.049,12.454,42.521-2.147,6.325-9.22,6-13.019,6.321-7.241.612-14.512-.026-21.752-.306-10.692-.431-22.072,2.529-32.673.146-23.494-5.276-46.928-9.841-70.568-13.456-13.031-1.991-26.141-3.8-39.056-7.64-4.636-1.379-9.425-2.84-13.818-5.959-2.826-2-4.367-5.416-6.752-8.217C137.258,229.4,122.414,222.544,109.607,214c-17.026-11.358-34.143-22.539-50.715-35.957C50.175,170.985,38,162.876,32,148.472c-1.813-4.352-1.04-7.836-2.18-12.017-1.312-4.826-5.3-6.265-7.87-7.609-5.841-3.055-30.288-7.674-19.022-25.6,5.376-8.535,12.225-14.012,18.285-20.721a43.511,43.511,0,0,0,6.163-8.152A40.518,40.518,0,0,1,37.526,62.258Z" transform="translate(444.933 1019.658) rotate(180)" fill="none" stroke="#f1b170" stroke-miterlimit="10" stroke-width="5"/>
    <path id="Shape-34" data-name="Shape" d="M35.854,38.551C71.1,13.927,112.4-2.847,150.831.4c12.778,1.085,26.526,4.7,37.6,17.093,6.531,7.317,11.751,15.578,19.6,18.221,5.664,1.907,11.763-.258,17.46-1.042,8.252-1.136,16.509-2.152,24.773-2.974a224.16,224.16,0,0,1,30.788-1.364c7.334.3,17.462-.039,23.834,7.063,7.607,8.471-11.755,48.21-14.48,55.291-6.6,17.163-11.232,33.79-12.9,54.473-.492,6.026-2.151,12.2-1.936,18.277.225,6.2,2.345,11.726,4.3,16.6,2.56,6.392,11.44,21.552,8.9,29.348-1.405,4.3-6.68,4.847-9.414,5.76-5.128,1.724-10.331,2.647-15.491,4.016-8.754,2.333-17.446,9.93-26.231,9.716-23.623-.568-47.589-13.774-70.739-21.027-13.763-4.326-27.619-8.253-41.215-14.11-4.3-1.855-8.732-3.775-12.821-6.921-2.854-2.194-4.686-6.108-7.33-8.567-10.135-9.44-21.791-15.169-32.674-21.521-14.129-8.264-28.305-16.28-42.336-25.078-8.795-5.514-20.1-10.365-27.681-20.593C-2.7,105.6,1.081,103.363,4,96.407c1.491-3.547,1.147-7.042,1.795-11.058.926-5.736,3.542-9.863,5.994-13.576,3.382-5.126,7.887-9.35,10.652-15.634.975-2.213.929-4.959,1.718-6.887C26.452,43.636,32.54,40.864,35.854,38.551Z" transform="translate(404.262 989.36) rotate(180)" fill="none" stroke="#ff8062" stroke-miterlimit="10" stroke-width="5"/>
    <path id="Shape-35" data-name="Shape" d="M50.69,21.2C79.3,5.723,111.124-3.092,141.361,1c10.52,1.425,21.105,4.736,30.9,12.009,4.459,3.3,7.805,6.976,12.691,7.174,11.336.457,22.707-1.141,34.042-1.524,8.111-.276,16.262-.375,24.354.8,5.411.784,12.727,1.724,17.159,7.7,6.441,8.711-5.186,38.323-7.553,46.5-3.922,13.568-7.813,28.652-6.257,44.349.477,4.8,1.322,9.043,1.431,13.938.106,4.207-.189,8.091.639,12.113,1.024,4.986,5.575,12.724,4.01,17.314-1.066,3.134-4.23,3.281-6.334,4.283a49.707,49.707,0,0,0-9.962,6.381c-3.388,2.773-6.272,7.057-9.781,9.35-5.7,3.712-12.073,4.06-18.061,4.043-23.891-.069-48.086-8.567-71.372-17.447-12.126-4.624-24.319-9.555-36.1-16.569-3.578-2.131-7.634-4.271-10.78-8.207-1.963-2.45-3.295-5.52-5.525-7.365-19.054-15.734-41.082-21.577-61.309-32.94C18.291,99.951-10.886,85,4.369,70.946,13.636,62.4,23.43,58.519,31.886,46.832a26.151,26.151,0,0,0,5.3-11.915c.663-3.609-.933-1.776,1.3-5.55C41.186,24.837,47.358,23.007,50.69,21.2Z" transform="translate(381.626 963.242) rotate(180)" fill="none" stroke="#f1b170" stroke-miterlimit="10" stroke-width="5"/>
    <path id="Shape-36" data-name="Shape" d="M52.493,9.984A152.8,152.8,0,0,1,155.469,7.947c8.576,2.821,17.5,2.146,26.182,2.864,8.435.687,23.431-.743,29.558,10.948,4.442,8.475-.378,26.484-2.045,35.965-2.124,12.077-3.981,24.551-.493,36.283,2.043,6.869,4.842,13.408,7.033,20.213,1.048,3.25,3.205,8.23,2.306,11.309-1.488,5.079-8.449,7.217-11.827,9.612-10.8,7.658-22.228,9.609-33.771,9.557-21.319-.1-42.748-5.354-63.661-12.48-9.62-3.28-19.377-6.779-28.656-12.48-5.251-3.224-9.125-9.445-14.138-13.133C49.813,94.718,32.467,88.368,16.045,77.5,11.292,74.355-6.463,63.879,2.481,51.527c8.66-11.957,21.292-10.536,30.295-21.783a14.1,14.1,0,0,0,2.871-4.91c.349-1.245-.266-3.615,0-4.323C38.411,12.809,48.243,11.585,52.493,9.984Z" transform="translate(353.685 942.87) rotate(180)" fill="none" stroke="#5acef2" stroke-miterlimit="10" stroke-width="5"/>
    <path id="Shape-37" data-name="Shape" d="M42,5.8C59.186,1.55,76.746.5,94.217.229c9.549-.147,20.042-1.243,29.386,3.116a115.112,115.112,0,0,0,17.2,6.725c6.366,1.821,16.617,3.147,20.494,13.019,2.9,7.377.911,22.542.806,31.512-.112,9.838,1.007,17.134,4.86,24.173,2.423,4.433,13.537,20.526,12.252,25.166-1.222,4.42-8.966,5.1-12.315,6.246a92.272,92.272,0,0,1-32.072,4.714,173.559,173.559,0,0,1-49.818-8.633c-6.785-2.189-13.8-4.455-20.279-8.828-4.365-2.948-8-8.176-12.341-11.223C39.974,77.475,26.845,71.538,14.384,62.639c-4-2.862-17.029-10.481-13.905-22.222,2.6-9.8,11.463-12.784,15.816-19.356C23.7,9.855,32.563,8.129,42,5.8Z" transform="translate(321.499 930.333) rotate(180)" fill="none" stroke="#5acef2" stroke-miterlimit="10" stroke-width="5"/>
    <path id="Shape-38" data-name="Shape" d="M26.3,4.118A209.735,209.735,0,0,1,67.708.016c8.925-.039,18.341-.258,27.1,3.358,4.4,1.815,8.222,6.059,12.386,9.086,4.287,3.113,10.2,6.587,12.057,13.725,1.741,6.708,1.091,16.494,2.62,24.582,1.36,7.176,4.206,11.609,7.272,16.459,1.953,3.1,11.984,16.52,10.823,19.484-1.244,3.173-7.267,2.915-10.4,3.354A134.632,134.632,0,0,1,103.6,91.237a125.441,125.441,0,0,1-35.343-6.6c-8.241-2.925-14.454-9.889-22.135-15C36.17,63,25.861,57.755,16,50.5c-4.911-3.618-12.18-8.271-14.7-17.605C.342,29.315-.6,20.215.48,16.639c1.293-4.3,6.107-6.123,8.379-7.228C14.552,6.655,20.509,5.313,26.3,4.118Z" transform="translate(294.973 923.02) rotate(180)" fill="none" stroke="#ff8062" stroke-miterlimit="10" stroke-width="5"/>
    <path id="Shape-39" data-name="Shape" d="M21.74,3.67C38.778.214,58.028-2.719,75.118,4.236,82.024,7.043,88.9,15.362,91.718,26.7c1.459,5.862,1.773,12.839,3.952,18.519a83.126,83.126,0,0,0,5.692,11.525c1.141,2,8.449,12.93,7.038,14.882-1.488,2.061-5.138,1.387-7.631,1.439a114.367,114.367,0,0,1-17.922-1.106C76,71.017,69,69.8,62.359,66.5,57,63.819,52.126,58.181,46.912,54.833,33.2,45.968,18.76,39.021,5.891,25.892,3.153,23.1-2.261,18.924,1.028,12.617,5.121,4.759,16.476,4.733,21.74,3.67Z" transform="translate(277.642 915.707) rotate(180)" fill="none" stroke="#f1b170" stroke-miterlimit="10" stroke-width="5"/>
    <path id="Shape-40" data-name="Shape" d="M15.371,2.063C27.5-.356,40.961-1.493,53.141,3.492,59.31,6.015,64.813,11.27,67.5,21.442c1.922,7.25,2.44,15.341,5.068,22.309.93,2.458,4.347,9.357,2.663,10.863-3.6,3.239-11.649-.489-16.65-2.188-7.526-2.574-13.809-9.781-20.965-14.054C26.638,31.82,12.73,28.319,2.727,17.152-6.914,6.354,11.831,2.772,15.371,2.063Z" transform="translate(256.421 907.871) rotate(180)" fill="none" stroke="#5be7c3" stroke-miterlimit="10" stroke-width="5"/>
    <path id="Shape-41" data-name="Shape" d="M8.729,1.19C19.022-.987,37.33-2.062,43.2,15.45c1.09,3.252,4.1,21.2,1.191,22.806-2.4,1.315-6.157-.857-8.864-2.888-5.036-3.757-9.762-7.853-14.966-10.955-4.431-2.639-8.968-5.073-13.341-8.141C5.366,14.986,1.878,13.425.714,10.5-2.42,2.612,5.6,1.85,8.729,1.19Z" transform="translate(235.908 901.081) rotate(180)" fill="rgba(1,0,45,0.15)" stroke="#707070" stroke-width="5"/>
  </g>
</svg>
