<svg xmlns="http://www.w3.org/2000/svg" width="392" height="38.285" viewBox="0 0 392 38.285">
  <g id="icon-star-rating" transform="translate(-625 -1434)">
    <path id="star-solid" d="M38.354,1.319l-4.882,9.9L22.548,12.811a2.394,2.394,0,0,0-1.323,4.082l7.9,7.7L27.258,35.472a2.391,2.391,0,0,0,3.469,2.52L40.5,32.856l9.772,5.136a2.393,2.393,0,0,0,3.469-2.52L51.871,24.594l7.9-7.7a2.394,2.394,0,0,0-1.323-4.082L47.528,11.218l-4.882-9.9a2.4,2.4,0,0,0-4.292,0Z" transform="translate(604.5 1434.013)" fill="#2c5364"/>
    <path id="star-solid-2" data-name="star-solid" d="M38.354,1.319l-4.882,9.9L22.548,12.811a2.394,2.394,0,0,0-1.323,4.082l7.9,7.7L27.258,35.472a2.391,2.391,0,0,0,3.469,2.52L40.5,32.856l9.772,5.136a2.393,2.393,0,0,0,3.469-2.52L51.871,24.594l7.9-7.7a2.394,2.394,0,0,0-1.323-4.082L47.528,11.218l-4.882-9.9a2.4,2.4,0,0,0-4.292,0Z" transform="translate(692.5 1434.013)" fill="#2c5364"/>
    <path id="star-solid-3" data-name="star-solid" d="M38.354,1.319l-4.882,9.9L22.548,12.811a2.394,2.394,0,0,0-1.323,4.082l7.9,7.7L27.258,35.472a2.391,2.391,0,0,0,3.469,2.52L40.5,32.856l9.772,5.136a2.393,2.393,0,0,0,3.469-2.52L51.871,24.594l7.9-7.7a2.394,2.394,0,0,0-1.323-4.082L47.528,11.218l-4.882-9.9a2.4,2.4,0,0,0-4.292,0Z" transform="translate(780.5 1434.013)" fill="#2c5364"/>
    <path id="star-solid-4" data-name="star-solid" d="M38.354,1.319l-4.882,9.9L22.548,12.811a2.394,2.394,0,0,0-1.323,4.082l7.9,7.7L27.258,35.472a2.391,2.391,0,0,0,3.469,2.52L40.5,32.856l9.772,5.136a2.393,2.393,0,0,0,3.469-2.52L51.871,24.594l7.9-7.7a2.394,2.394,0,0,0-1.323-4.082L47.528,11.218l-4.882-9.9a2.4,2.4,0,0,0-4.292,0Z" transform="translate(868.5 1434.013)" fill="#2c5364"/>
    <path id="star-solid-5" data-name="star-solid" d="M38.354,1.319l-4.882,9.9L22.548,12.811a2.394,2.394,0,0,0-1.323,4.082l7.9,7.7L27.258,35.472a2.391,2.391,0,0,0,3.469,2.52L40.5,32.856l9.772,5.136a2.393,2.393,0,0,0,3.469-2.52L51.871,24.594l7.9-7.7a2.394,2.394,0,0,0-1.323-4.082L47.528,11.218l-4.882-9.9a2.4,2.4,0,0,0-4.292,0Z" transform="translate(956.5 1434.013)" fill="#2c5364"/>
  </g>
</svg>
