<svg xmlns="http://www.w3.org/2000/svg" xmlns:xlink="http://www.w3.org/1999/xlink" width="1920" height="68.1" viewBox="0 0 1920 68.1">
  <defs>
    <clipPath id="clip-path">
      <rect width="1920" height="68.1" fill="none"/>
    </clipPath>
  </defs>
  <g id="treeline-png" clip-path="url(#clip-path)">
    <g id="treeline-png-2" data-name="treeline-png" transform="translate(0 68.1)">
      <path id="Path_16" data-name="Path 16" d="M172.2-66.8a3.923,3.923,0,0,0-1.2,2.4c0,.6-.9,1.4-2.1,1.7s-1.8,1-1.4,1.6c.3.6,0,1.1-.8,1.1s-1.8,1.1-2.1,2.5c-.4,1.4-1,2.5-1.5,2.5s-.7.9-.4,2c.4,1.4,0,2-1.1,2-1.8,0-2.2,1.5-.6,2.5a1.216,1.216,0,0,1,.5,1.6c-.9,1.3-2.2,1.1-2.3-.4,0-.6-.3-3-.6-5.2s-.5-4.4-.5-4.8c-.1-.5-.5-.5-1.1-.2-1.3.8-1.3-.8,0-2.1.8-.8.6-1.5-.6-2.4-1.4-1.2-1.7-1.2-2.5.3a3.746,3.746,0,0,1-2.4,1.7,1.411,1.411,0,0,0-1.2,2.3c.1.2-.6,1.1-1.5,2.1A6.165,6.165,0,0,0,147-52c0,1.9-2.5,5-4.1,5-.5,0-.9-.7-.9-1.5,0-1.8-1.2-1.9-2.9-.3-1,1.1-1.1,1-.6-.5.7-1.8-.9-2.4-2-.8-.3.5-2,.8-3.9.5-2.8-.3-3.5,0-3.9,1.7-.3,1.2-1,1.8-1.6,1.5a1.711,1.711,0,0,1-.6-1.9A3.4,3.4,0,0,0,126-51c-.8-1.3-1.4-1-3.5,1.5-1.6,1.7-2.4,3.7-2.1,4.8.4,1.7.3,1.8-2.2.1-2.5-1.6-2.6-1.6-4.8,1.1l-2.2,2.8-.7-2.4c-1.2-3.8-3.1-5.2-5.5-3.9-1.1.6-2,1.5-2,2a1.028,1.028,0,0,1-1.1,1c-.5,0-.7-.5-.4-1,.3-.6.1-1-.5-1s-.8-.5-.5-1c.3-.6.1-1-.4-1-.6,0-1.1-.7-1.1-1.5,0-2.6-4,.6-4.7,3.7C94-44.2,93.2-43,92.5-43c-2.4,0-4.5-1.2-4.5-2.6,0-.8-.3-1.4-.8-1.4-1,0-4.2,3.8-4.2,5,0,.6-.7,1.3-1.6,1.7a1.436,1.436,0,0,0-1,1.8c.2.7-.4,2.2-1.5,3.4-1.8,1.9-2.2,2-3.5.6-.9-.8-2-1.3-2.5-1-.5.4-.5-.3,0-1.7.7-1.9.3-2.5-2.3-3.9s-3.2-1.4-4.4-.2c-2.1,2-4.5,1.2-5.2-1.7a3.761,3.761,0,0,0-2.3-2.8c-2.2-.4-5.1,2.4-4.3,4.4.3.8.2,1.2-.4.9s-1-.2-1,.4-.7.8-1.5.5c-.8-.4-1.2-1-.9-1.5a.552.552,0,0,0-.5-.9c-.6,0-1.1-.7-1.1-1.5,0-2.1-2.3-1.9-3.7.5-1.3,1.9-1.3,1.9-3.6-.4a14.707,14.707,0,0,1-3-4c-.9-2.2-2-2-4.5.9-2.6,2.9-4.2,3.2-4.3.7,0-1-.3-1.2-.6-.5A2.1,2.1,0,0,1,27.4-45,1.367,1.367,0,0,0,26-43.6c0,1.8-3.5,2.7-5,1.2-.9-.8-1.6-.5-3.1,1.3-1,1.2-1.7,2.7-1.4,3.1s-.9,1.3-2.5,2-2.8,1.5-2.6,1.9c.2.3-.6.6-1.9.6-1.6,0-2-.3-1.4-1.1a1.838,1.838,0,0,0-.4-2.6,9.257,9.257,0,0,1-2.1-3.6C5.2-42,4.3-43,3.6-43,.4-43,0-40.6,0-20.3V0H600l-.1-20.3c0-11.1-.3-19.6-.6-19-.5,1.5-3.3,1.8-3.3.4a2.014,2.014,0,0,1,1.1-1.6,1.674,1.674,0,0,0,.5-2c-.2-.7-.2-1.6.2-1.9,1-1.1,1.1-3.6,0-3.6-.6,0-.8-.7-.4-1.5a3.106,3.106,0,0,0-.9-2.9,5.078,5.078,0,0,1-1.5-2.4c0-.6-.8-1.3-1.7-1.6-1.7-.7-3.3.9-3.3,3.1a1.476,1.476,0,0,1-1.6,1.3c-1,0-1.4.6-1,1.5.8,2.3-1.2,1.8-2.4-.6-1.1-2-1.2-2-3.5.7-2,2.3-2.6,2.5-3.9,1.5a2.718,2.718,0,0,0-2.8-.5c-3,1.9-6.8,5.8-6.8,7.1,0,2-1.7,1.6-2.3-.6-.4-1.5-1-1.8-2.8-1.4-1.7.5-2.1.3-1.7-.8a4.2,4.2,0,0,0-.8-3.4c-1.2-1.6-1.7-1.7-3.8-.6a9.779,9.779,0,0,0-3.5,3.5c-3.7,6.7-4.1,7.2-4.1,5,0-1.1-1.1-3.1-2.5-4.4s-2.5-2.9-2.5-3.7c0-2-.9-1.6-3.6,1.7-2.2,2.6-2.8,2.8-4,1.6a4.722,4.722,0,0,1-1.4-2.4c0-.6-.7-1.2-1.5-1.6a2.408,2.408,0,0,1-1.5-2.1c0-.8-.4-1.5-1-1.5-.5,0-1-.8-1-1.8a13.51,13.51,0,0,0-2.5-4.7c-2.4-2.9-2.5-2.9-4-1a65.693,65.693,0,0,0-3.6,6.2c-1.1,2.4-2.5,4.3-3,4.3-.6,0-.8.4-.4.9a1.129,1.129,0,0,1-.4,1.5c-.5.3-1.2-.6-1.6-2.2l-.7-2.7L512-50.3c-1,1.3-2.2,2.3-2.7,2.3s-1.6,1.2-2.5,2.7l-1.7,2.8-1.2-3c-1.7-4.2-1.9-5.5-.7-5.5.6,0,.5-.6-.2-1.5-.7-.8-.9-1.5-.6-1.5.4,0-.3-1.4-1.5-3.1l-2.2-3.2-2.3,2.7c-2.4,2.7-4.4,3.4-4.4,1.5,0-1-1.3-2.9-6.5-9.5l-2-2.5-2.2,2L479.1-64l-1.5-2.1c-1.7-2.6-4.8-2.2-6.1.8a5.243,5.243,0,0,1-2.8,2.7c-1.1.2-1.6.9-1.2,1.5.3.6,0,1.1-.8,1.1s-1.8,1.1-2.1,2.5c-.4,1.4-1,2.5-1.5,2.5s-.7.9-.4,2c.3,1.2,0,2-.7,2-1.4,0-4.1-2.6-3.9-3.7.3-2-.2-3.4-1.1-2.8-1.3.8-1.3-.8,0-2.1.8-.8.6-1.5-.6-2.4-1.4-1.2-1.7-1.2-2.5.3a3.746,3.746,0,0,1-2.4,1.7c-.8,0-1.5.4-1.5,1v1.5a13.136,13.136,0,0,1-2.5,3.3c-1.4,1.6-3.2,3.7-4,4.8-1,1.3-1.4,1.4-1.5.5,0-.7-.6-1.1-1.4-.8s-1.7.1-1.9-.6c-.3-.9-.7-.9-1.8-.1-.8.7-2.8,1-4.5.8-2.5-.3-3.3.1-3.7,1.7-.3,1.2-1,1.8-1.6,1.5a1.711,1.711,0,0,1-.6-1.9A3.4,3.4,0,0,0,426-51c-.9-1.3-1.2-1.3-2.3.1a2.584,2.584,0,0,1-2.4,1.2,1.522,1.522,0,0,0-1.9,1.1c-.3.9-1,1.4-1.4,1.1-.5-.3-1.9.8-3.2,2.3-2.2,2.6-4.8,3.2-4.8,1.1a8.314,8.314,0,0,0-2.1-3.3c-2.1-2.4-2.1-2.4-4-.5-2,2-4.5,2.6-3.4.9.3-.6.1-1-.4-1-.6,0-1.1-.7-1.1-1.6,0-1.4-.3-1.4-1.6-.4-1.3,1.1-1.6,1-2.1-.8-.3-1.2-.9-2.2-1.4-2.2s-.9-.9-.9-2a3.516,3.516,0,0,0-1.3-2.7,5.366,5.366,0,0,1-2-2.6c-.9-2.5-2-2.1-4,1.3-1,1.6-2.2,3-2.8,3-.5,0-.9.9-.9,1.9,0,2.8-1.1,5.2-2.1,4.5-.5-.3-.9.2-.9,1,0,.9-.5,1.6-1.1,1.6-.5,0-.7-.5-.4-1a2.452,2.452,0,0,0-.5-2.5c-1-1.2-1.7-.9-4.6,2-1.9,2-3.4,4.3-3.4,5.2s-.3,1.4-.6,1c-.4-.3-1.3.1-2.1.9-2.1,2.1-4.6,1.4-5.3-1.6a3.761,3.761,0,0,0-2.3-2.8c-2.2-.4-5.1,2.4-4.3,4.4.3.8.2,1.2-.4.9s-1-.2-1,.4-.7.8-1.5.5c-.8-.4-1.2-1-.9-1.5a.552.552,0,0,0-.5-.9c-.6,0-1.1-.7-1.1-1.5,0-2.1-2.3-1.9-3.7.5-1.3,1.9-1.3,1.9-3.6-.4a14.706,14.706,0,0,1-3-4c-.9-2.2-2-2-4.5.9-2.6,2.9-4.2,3.2-4.3.7,0-1-.3-1.2-.6-.5a2.1,2.1,0,0,1-1.9,1.3,1.453,1.453,0,0,0-1.4,1.5,1.538,1.538,0,0,1-1.5,1.5h-2.2c-1,0-1.2-3.9-.3-4.5.4-.2.1-2.8-.7-5.7a28.087,28.087,0,0,1-1.4-7.5c.1-2.8-1.9-4.1-3.1-1.9a2.9,2.9,0,0,1-2.1,1.6c-1.4,0-5,6.2-5,8.5,0,.8-.4,1.5-.9,1.5s-.7.3-.5.8c.3.4-.2,1.3-1,2.1-1.2,1.1-1.5,1-2-.9-.4-1.5-1.1-2-2.4-1.7-1.2.3-1.7.1-1.2-.6.4-.6-.1-.8-1.4-.5-2,.5-5.3-2.1-5.3-4.1,0-.5-.8-1.2-1.7-1.5-1.7-.7-3.3.9-3.3,3.1,0,.7-.9,1.3-2,1.3s-2,.6-2,1.2c0,.7-.5.5-1.1-.5-1-1.7-1.2-1.6-3.4.9-1.9,2.2-2.6,2.5-3.8,1.6-1.5-1.3-4.7-.6-4.7,1,0,.5-.9.7-1.9.3-1.3-.4-2.7.1-4.1,1.5l-2,2-2.1-3.4c-1.4-2.4-2.5-3.3-3.8-2.9-2.3.6-6.1,4-6.1,5.3a.945.945,0,0,1-1,1c-.5,0-1-.7-1-1.5,0-1.8-1.2-1.9-2.8-.3-1.3,1.3-4.2-.6-4.2-2.8,0-2.1-.9-1.7-3.6,1.6-2.2,2.6-2.8,2.8-4,1.6a4.722,4.722,0,0,1-1.4-2.4c0-.6-.7-1.2-1.5-1.6a2.408,2.408,0,0,1-1.5-2.1c0-.8-.4-1.5-1-1.5-.5,0-1-.8-1-1.8a13.51,13.51,0,0,0-2.5-4.7c-2.4-2.9-2.5-2.9-4-1a65.686,65.686,0,0,0-3.6,6.2c-1.1,2.4-2.5,4.3-3,4.3-.6,0-.8.4-.4.9a1.129,1.129,0,0,1-.4,1.5c-.5.3-1.2-.6-1.6-2.2l-.7-2.7L212-50.3c-1,1.3-2.2,2.3-2.7,2.3s-1.6,1.2-2.5,2.7l-1.7,2.8-1.2-3c-1.7-4.2-1.9-5.5-.7-5.5.6,0,.5-.6-.2-1.5-.7-.8-.9-1.5-.6-1.5.4,0-.3-1.4-1.5-3.1l-2.2-3.2-2.3,2.7c-2.4,2.7-4.4,3.4-4.4,1.5,0-1-1.3-2.9-6.5-9.5l-2-2.5L181.3-66,179-64l-1.2-2C176.4-68.3,174-68.6,172.2-66.8Z" fill="#fff"/>
    </g>
    <g id="treeline-png-3" data-name="treeline-png" transform="translate(598 68.1)">
      <path id="Path_16-2" data-name="Path 16" d="M172.2-66.8a3.923,3.923,0,0,0-1.2,2.4c0,.6-.9,1.4-2.1,1.7s-1.8,1-1.4,1.6c.3.6,0,1.1-.8,1.1s-1.8,1.1-2.1,2.5c-.4,1.4-1,2.5-1.5,2.5s-.7.9-.4,2c.4,1.4,0,2-1.1,2-1.8,0-2.2,1.5-.6,2.5a1.216,1.216,0,0,1,.5,1.6c-.9,1.3-2.2,1.1-2.3-.4,0-.6-.3-3-.6-5.2s-.5-4.4-.5-4.8c-.1-.5-.5-.5-1.1-.2-1.3.8-1.3-.8,0-2.1.8-.8.6-1.5-.6-2.4-1.4-1.2-1.7-1.2-2.5.3a3.746,3.746,0,0,1-2.4,1.7,1.411,1.411,0,0,0-1.2,2.3c.1.2-.6,1.1-1.5,2.1A6.165,6.165,0,0,0,147-52c0,1.9-2.5,5-4.1,5-.5,0-.9-.7-.9-1.5,0-1.8-1.2-1.9-2.9-.3-1,1.1-1.1,1-.6-.5.7-1.8-.9-2.4-2-.8-.3.5-2,.8-3.9.5-2.8-.3-3.5,0-3.9,1.7-.3,1.2-1,1.8-1.6,1.5a1.711,1.711,0,0,1-.6-1.9A3.4,3.4,0,0,0,126-51c-.8-1.3-1.4-1-3.5,1.5-1.6,1.7-2.4,3.7-2.1,4.8.4,1.7.3,1.8-2.2.1-2.5-1.6-2.6-1.6-4.8,1.1l-2.2,2.8-.7-2.4c-1.2-3.8-3.1-5.2-5.5-3.9-1.1.6-2,1.5-2,2a1.028,1.028,0,0,1-1.1,1c-.5,0-.7-.5-.4-1,.3-.6.1-1-.5-1s-.8-.5-.5-1c.3-.6.1-1-.4-1-.6,0-1.1-.7-1.1-1.5,0-2.6-4,.6-4.7,3.7C94-44.2,93.2-43,92.5-43c-2.4,0-4.5-1.2-4.5-2.6,0-.8-.3-1.4-.8-1.4-1,0-4.2,3.8-4.2,5,0,.6-.7,1.3-1.6,1.7a1.436,1.436,0,0,0-1,1.8c.2.7-.4,2.2-1.5,3.4-1.8,1.9-2.2,2-3.5.6-.9-.8-2-1.3-2.5-1-.5.4-.5-.3,0-1.7.7-1.9.3-2.5-2.3-3.9s-3.2-1.4-4.4-.2c-2.1,2-4.5,1.2-5.2-1.7a3.761,3.761,0,0,0-2.3-2.8c-2.2-.4-5.1,2.4-4.3,4.4.3.8.2,1.2-.4.9s-1-.2-1,.4-.7.8-1.5.5c-.8-.4-1.2-1-.9-1.5a.552.552,0,0,0-.5-.9c-.6,0-1.1-.7-1.1-1.5,0-2.1-2.3-1.9-3.7.5-1.3,1.9-1.3,1.9-3.6-.4a14.707,14.707,0,0,1-3-4c-.9-2.2-2-2-4.5.9-2.6,2.9-4.2,3.2-4.3.7,0-1-.3-1.2-.6-.5A2.1,2.1,0,0,1,27.4-45,1.367,1.367,0,0,0,26-43.6c0,1.8-3.5,2.7-5,1.2-.9-.8-1.6-.5-3.1,1.3-1,1.2-1.7,2.7-1.4,3.1s-.9,1.3-2.5,2-2.8,1.5-2.6,1.9c.2.3-.6.6-1.9.6-1.6,0-2-.3-1.4-1.1a1.838,1.838,0,0,0-.4-2.6,9.257,9.257,0,0,1-2.1-3.6C5.2-42,4.3-43,3.6-43,.4-43,0-40.6,0-20.3V0H600l-.1-20.3c0-11.1-.3-19.6-.6-19-.5,1.5-3.3,1.8-3.3.4a2.014,2.014,0,0,1,1.1-1.6,1.674,1.674,0,0,0,.5-2c-.2-.7-.2-1.6.2-1.9,1-1.1,1.1-3.6,0-3.6-.6,0-.8-.7-.4-1.5a3.106,3.106,0,0,0-.9-2.9,5.078,5.078,0,0,1-1.5-2.4c0-.6-.8-1.3-1.7-1.6-1.7-.7-3.3.9-3.3,3.1a1.476,1.476,0,0,1-1.6,1.3c-1,0-1.4.6-1,1.5.8,2.3-1.2,1.8-2.4-.6-1.1-2-1.2-2-3.5.7-2,2.3-2.6,2.5-3.9,1.5a2.718,2.718,0,0,0-2.8-.5c-3,1.9-6.8,5.8-6.8,7.1,0,2-1.7,1.6-2.3-.6-.4-1.5-1-1.8-2.8-1.4-1.7.5-2.1.3-1.7-.8a4.2,4.2,0,0,0-.8-3.4c-1.2-1.6-1.7-1.7-3.8-.6a9.779,9.779,0,0,0-3.5,3.5c-3.7,6.7-4.1,7.2-4.1,5,0-1.1-1.1-3.1-2.5-4.4s-2.5-2.9-2.5-3.7c0-2-.9-1.6-3.6,1.7-2.2,2.6-2.8,2.8-4,1.6a4.722,4.722,0,0,1-1.4-2.4c0-.6-.7-1.2-1.5-1.6a2.408,2.408,0,0,1-1.5-2.1c0-.8-.4-1.5-1-1.5-.5,0-1-.8-1-1.8a13.51,13.51,0,0,0-2.5-4.7c-2.4-2.9-2.5-2.9-4-1a65.693,65.693,0,0,0-3.6,6.2c-1.1,2.4-2.5,4.3-3,4.3-.6,0-.8.4-.4.9a1.129,1.129,0,0,1-.4,1.5c-.5.3-1.2-.6-1.6-2.2l-.7-2.7L512-50.3c-1,1.3-2.2,2.3-2.7,2.3s-1.6,1.2-2.5,2.7l-1.7,2.8-1.2-3c-1.7-4.2-1.9-5.5-.7-5.5.6,0,.5-.6-.2-1.5-.7-.8-.9-1.5-.6-1.5.4,0-.3-1.4-1.5-3.1l-2.2-3.2-2.3,2.7c-2.4,2.7-4.4,3.4-4.4,1.5,0-1-1.3-2.9-6.5-9.5l-2-2.5-2.2,2L479.1-64l-1.5-2.1c-1.7-2.6-4.8-2.2-6.1.8a5.243,5.243,0,0,1-2.8,2.7c-1.1.2-1.6.9-1.2,1.5.3.6,0,1.1-.8,1.1s-1.8,1.1-2.1,2.5c-.4,1.4-1,2.5-1.5,2.5s-.7.9-.4,2c.3,1.2,0,2-.7,2-1.4,0-4.1-2.6-3.9-3.7.3-2-.2-3.4-1.1-2.8-1.3.8-1.3-.8,0-2.1.8-.8.6-1.5-.6-2.4-1.4-1.2-1.7-1.2-2.5.3a3.746,3.746,0,0,1-2.4,1.7c-.8,0-1.5.4-1.5,1v1.5a13.136,13.136,0,0,1-2.5,3.3c-1.4,1.6-3.2,3.7-4,4.8-1,1.3-1.4,1.4-1.5.5,0-.7-.6-1.1-1.4-.8s-1.7.1-1.9-.6c-.3-.9-.7-.9-1.8-.1-.8.7-2.8,1-4.5.8-2.5-.3-3.3.1-3.7,1.7-.3,1.2-1,1.8-1.6,1.5a1.711,1.711,0,0,1-.6-1.9A3.4,3.4,0,0,0,426-51c-.9-1.3-1.2-1.3-2.3.1a2.584,2.584,0,0,1-2.4,1.2,1.522,1.522,0,0,0-1.9,1.1c-.3.9-1,1.4-1.4,1.1-.5-.3-1.9.8-3.2,2.3-2.2,2.6-4.8,3.2-4.8,1.1a8.314,8.314,0,0,0-2.1-3.3c-2.1-2.4-2.1-2.4-4-.5-2,2-4.5,2.6-3.4.9.3-.6.1-1-.4-1-.6,0-1.1-.7-1.1-1.6,0-1.4-.3-1.4-1.6-.4-1.3,1.1-1.6,1-2.1-.8-.3-1.2-.9-2.2-1.4-2.2s-.9-.9-.9-2a3.516,3.516,0,0,0-1.3-2.7,5.366,5.366,0,0,1-2-2.6c-.9-2.5-2-2.1-4,1.3-1,1.6-2.2,3-2.8,3-.5,0-.9.9-.9,1.9,0,2.8-1.1,5.2-2.1,4.5-.5-.3-.9.2-.9,1,0,.9-.5,1.6-1.1,1.6-.5,0-.7-.5-.4-1a2.452,2.452,0,0,0-.5-2.5c-1-1.2-1.7-.9-4.6,2-1.9,2-3.4,4.3-3.4,5.2s-.3,1.4-.6,1c-.4-.3-1.3.1-2.1.9-2.1,2.1-4.6,1.4-5.3-1.6a3.761,3.761,0,0,0-2.3-2.8c-2.2-.4-5.1,2.4-4.3,4.4.3.8.2,1.2-.4.9s-1-.2-1,.4-.7.8-1.5.5c-.8-.4-1.2-1-.9-1.5a.552.552,0,0,0-.5-.9c-.6,0-1.1-.7-1.1-1.5,0-2.1-2.3-1.9-3.7.5-1.3,1.9-1.3,1.9-3.6-.4a14.706,14.706,0,0,1-3-4c-.9-2.2-2-2-4.5.9-2.6,2.9-4.2,3.2-4.3.7,0-1-.3-1.2-.6-.5a2.1,2.1,0,0,1-1.9,1.3,1.453,1.453,0,0,0-1.4,1.5,1.538,1.538,0,0,1-1.5,1.5h-2.2c-1,0-1.2-3.9-.3-4.5.4-.2.1-2.8-.7-5.7a28.087,28.087,0,0,1-1.4-7.5c.1-2.8-1.9-4.1-3.1-1.9a2.9,2.9,0,0,1-2.1,1.6c-1.4,0-5,6.2-5,8.5,0,.8-.4,1.5-.9,1.5s-.7.3-.5.8c.3.4-.2,1.3-1,2.1-1.2,1.1-1.5,1-2-.9-.4-1.5-1.1-2-2.4-1.7-1.2.3-1.7.1-1.2-.6.4-.6-.1-.8-1.4-.5-2,.5-5.3-2.1-5.3-4.1,0-.5-.8-1.2-1.7-1.5-1.7-.7-3.3.9-3.3,3.1,0,.7-.9,1.3-2,1.3s-2,.6-2,1.2c0,.7-.5.5-1.1-.5-1-1.7-1.2-1.6-3.4.9-1.9,2.2-2.6,2.5-3.8,1.6-1.5-1.3-4.7-.6-4.7,1,0,.5-.9.7-1.9.3-1.3-.4-2.7.1-4.1,1.5l-2,2-2.1-3.4c-1.4-2.4-2.5-3.3-3.8-2.9-2.3.6-6.1,4-6.1,5.3a.945.945,0,0,1-1,1c-.5,0-1-.7-1-1.5,0-1.8-1.2-1.9-2.8-.3-1.3,1.3-4.2-.6-4.2-2.8,0-2.1-.9-1.7-3.6,1.6-2.2,2.6-2.8,2.8-4,1.6a4.722,4.722,0,0,1-1.4-2.4c0-.6-.7-1.2-1.5-1.6a2.408,2.408,0,0,1-1.5-2.1c0-.8-.4-1.5-1-1.5-.5,0-1-.8-1-1.8a13.51,13.51,0,0,0-2.5-4.7c-2.4-2.9-2.5-2.9-4-1a65.686,65.686,0,0,0-3.6,6.2c-1.1,2.4-2.5,4.3-3,4.3-.6,0-.8.4-.4.9a1.129,1.129,0,0,1-.4,1.5c-.5.3-1.2-.6-1.6-2.2l-.7-2.7L212-50.3c-1,1.3-2.2,2.3-2.7,2.3s-1.6,1.2-2.5,2.7l-1.7,2.8-1.2-3c-1.7-4.2-1.9-5.5-.7-5.5.6,0,.5-.6-.2-1.5-.7-.8-.9-1.5-.6-1.5.4,0-.3-1.4-1.5-3.1l-2.2-3.2-2.3,2.7c-2.4,2.7-4.4,3.4-4.4,1.5,0-1-1.3-2.9-6.5-9.5l-2-2.5L181.3-66,179-64l-1.2-2C176.4-68.3,174-68.6,172.2-66.8Z" fill="#fff"/>
    </g>
    <g id="treeline-png-4" data-name="treeline-png" transform="translate(1196 68.1)">
      <path id="Path_16-3" data-name="Path 16" d="M172.2-66.8a3.923,3.923,0,0,0-1.2,2.4c0,.6-.9,1.4-2.1,1.7s-1.8,1-1.4,1.6c.3.6,0,1.1-.8,1.1s-1.8,1.1-2.1,2.5c-.4,1.4-1,2.5-1.5,2.5s-.7.9-.4,2c.4,1.4,0,2-1.1,2-1.8,0-2.2,1.5-.6,2.5a1.216,1.216,0,0,1,.5,1.6c-.9,1.3-2.2,1.1-2.3-.4,0-.6-.3-3-.6-5.2s-.5-4.4-.5-4.8c-.1-.5-.5-.5-1.1-.2-1.3.8-1.3-.8,0-2.1.8-.8.6-1.5-.6-2.4-1.4-1.2-1.7-1.2-2.5.3a3.746,3.746,0,0,1-2.4,1.7,1.411,1.411,0,0,0-1.2,2.3c.1.2-.6,1.1-1.5,2.1A6.165,6.165,0,0,0,147-52c0,1.9-2.5,5-4.1,5-.5,0-.9-.7-.9-1.5,0-1.8-1.2-1.9-2.9-.3-1,1.1-1.1,1-.6-.5.7-1.8-.9-2.4-2-.8-.3.5-2,.8-3.9.5-2.8-.3-3.5,0-3.9,1.7-.3,1.2-1,1.8-1.6,1.5a1.711,1.711,0,0,1-.6-1.9A3.4,3.4,0,0,0,126-51c-.8-1.3-1.4-1-3.5,1.5-1.6,1.7-2.4,3.7-2.1,4.8.4,1.7.3,1.8-2.2.1-2.5-1.6-2.6-1.6-4.8,1.1l-2.2,2.8-.7-2.4c-1.2-3.8-3.1-5.2-5.5-3.9-1.1.6-2,1.5-2,2a1.028,1.028,0,0,1-1.1,1c-.5,0-.7-.5-.4-1,.3-.6.1-1-.5-1s-.8-.5-.5-1c.3-.6.1-1-.4-1-.6,0-1.1-.7-1.1-1.5,0-2.6-4,.6-4.7,3.7C94-44.2,93.2-43,92.5-43c-2.4,0-4.5-1.2-4.5-2.6,0-.8-.3-1.4-.8-1.4-1,0-4.2,3.8-4.2,5,0,.6-.7,1.3-1.6,1.7a1.436,1.436,0,0,0-1,1.8c.2.7-.4,2.2-1.5,3.4-1.8,1.9-2.2,2-3.5.6-.9-.8-2-1.3-2.5-1-.5.4-.5-.3,0-1.7.7-1.9.3-2.5-2.3-3.9s-3.2-1.4-4.4-.2c-2.1,2-4.5,1.2-5.2-1.7a3.761,3.761,0,0,0-2.3-2.8c-2.2-.4-5.1,2.4-4.3,4.4.3.8.2,1.2-.4.9s-1-.2-1,.4-.7.8-1.5.5c-.8-.4-1.2-1-.9-1.5a.552.552,0,0,0-.5-.9c-.6,0-1.1-.7-1.1-1.5,0-2.1-2.3-1.9-3.7.5-1.3,1.9-1.3,1.9-3.6-.4a14.707,14.707,0,0,1-3-4c-.9-2.2-2-2-4.5.9-2.6,2.9-4.2,3.2-4.3.7,0-1-.3-1.2-.6-.5A2.1,2.1,0,0,1,27.4-45,1.367,1.367,0,0,0,26-43.6c0,1.8-3.5,2.7-5,1.2-.9-.8-1.6-.5-3.1,1.3-1,1.2-1.7,2.7-1.4,3.1s-.9,1.3-2.5,2-2.8,1.5-2.6,1.9c.2.3-.6.6-1.9.6-1.6,0-2-.3-1.4-1.1a1.838,1.838,0,0,0-.4-2.6,9.257,9.257,0,0,1-2.1-3.6C5.2-42,4.3-43,3.6-43,.4-43,0-40.6,0-20.3V0H600l-.1-20.3c0-11.1-.3-19.6-.6-19-.5,1.5-3.3,1.8-3.3.4a2.014,2.014,0,0,1,1.1-1.6,1.674,1.674,0,0,0,.5-2c-.2-.7-.2-1.6.2-1.9,1-1.1,1.1-3.6,0-3.6-.6,0-.8-.7-.4-1.5a3.106,3.106,0,0,0-.9-2.9,5.078,5.078,0,0,1-1.5-2.4c0-.6-.8-1.3-1.7-1.6-1.7-.7-3.3.9-3.3,3.1a1.476,1.476,0,0,1-1.6,1.3c-1,0-1.4.6-1,1.5.8,2.3-1.2,1.8-2.4-.6-1.1-2-1.2-2-3.5.7-2,2.3-2.6,2.5-3.9,1.5a2.718,2.718,0,0,0-2.8-.5c-3,1.9-6.8,5.8-6.8,7.1,0,2-1.7,1.6-2.3-.6-.4-1.5-1-1.8-2.8-1.4-1.7.5-2.1.3-1.7-.8a4.2,4.2,0,0,0-.8-3.4c-1.2-1.6-1.7-1.7-3.8-.6a9.779,9.779,0,0,0-3.5,3.5c-3.7,6.7-4.1,7.2-4.1,5,0-1.1-1.1-3.1-2.5-4.4s-2.5-2.9-2.5-3.7c0-2-.9-1.6-3.6,1.7-2.2,2.6-2.8,2.8-4,1.6a4.722,4.722,0,0,1-1.4-2.4c0-.6-.7-1.2-1.5-1.6a2.408,2.408,0,0,1-1.5-2.1c0-.8-.4-1.5-1-1.5-.5,0-1-.8-1-1.8a13.51,13.51,0,0,0-2.5-4.7c-2.4-2.9-2.5-2.9-4-1a65.693,65.693,0,0,0-3.6,6.2c-1.1,2.4-2.5,4.3-3,4.3-.6,0-.8.4-.4.9a1.129,1.129,0,0,1-.4,1.5c-.5.3-1.2-.6-1.6-2.2l-.7-2.7L512-50.3c-1,1.3-2.2,2.3-2.7,2.3s-1.6,1.2-2.5,2.7l-1.7,2.8-1.2-3c-1.7-4.2-1.9-5.5-.7-5.5.6,0,.5-.6-.2-1.5-.7-.8-.9-1.5-.6-1.5.4,0-.3-1.4-1.5-3.1l-2.2-3.2-2.3,2.7c-2.4,2.7-4.4,3.4-4.4,1.5,0-1-1.3-2.9-6.5-9.5l-2-2.5-2.2,2L479.1-64l-1.5-2.1c-1.7-2.6-4.8-2.2-6.1.8a5.243,5.243,0,0,1-2.8,2.7c-1.1.2-1.6.9-1.2,1.5.3.6,0,1.1-.8,1.1s-1.8,1.1-2.1,2.5c-.4,1.4-1,2.5-1.5,2.5s-.7.9-.4,2c.3,1.2,0,2-.7,2-1.4,0-4.1-2.6-3.9-3.7.3-2-.2-3.4-1.1-2.8-1.3.8-1.3-.8,0-2.1.8-.8.6-1.5-.6-2.4-1.4-1.2-1.7-1.2-2.5.3a3.746,3.746,0,0,1-2.4,1.7c-.8,0-1.5.4-1.5,1v1.5a13.136,13.136,0,0,1-2.5,3.3c-1.4,1.6-3.2,3.7-4,4.8-1,1.3-1.4,1.4-1.5.5,0-.7-.6-1.1-1.4-.8s-1.7.1-1.9-.6c-.3-.9-.7-.9-1.8-.1-.8.7-2.8,1-4.5.8-2.5-.3-3.3.1-3.7,1.7-.3,1.2-1,1.8-1.6,1.5a1.711,1.711,0,0,1-.6-1.9A3.4,3.4,0,0,0,426-51c-.9-1.3-1.2-1.3-2.3.1a2.584,2.584,0,0,1-2.4,1.2,1.522,1.522,0,0,0-1.9,1.1c-.3.9-1,1.4-1.4,1.1-.5-.3-1.9.8-3.2,2.3-2.2,2.6-4.8,3.2-4.8,1.1a8.314,8.314,0,0,0-2.1-3.3c-2.1-2.4-2.1-2.4-4-.5-2,2-4.5,2.6-3.4.9.3-.6.1-1-.4-1-.6,0-1.1-.7-1.1-1.6,0-1.4-.3-1.4-1.6-.4-1.3,1.1-1.6,1-2.1-.8-.3-1.2-.9-2.2-1.4-2.2s-.9-.9-.9-2a3.516,3.516,0,0,0-1.3-2.7,5.366,5.366,0,0,1-2-2.6c-.9-2.5-2-2.1-4,1.3-1,1.6-2.2,3-2.8,3-.5,0-.9.9-.9,1.9,0,2.8-1.1,5.2-2.1,4.5-.5-.3-.9.2-.9,1,0,.9-.5,1.6-1.1,1.6-.5,0-.7-.5-.4-1a2.452,2.452,0,0,0-.5-2.5c-1-1.2-1.7-.9-4.6,2-1.9,2-3.4,4.3-3.4,5.2s-.3,1.4-.6,1c-.4-.3-1.3.1-2.1.9-2.1,2.1-4.6,1.4-5.3-1.6a3.761,3.761,0,0,0-2.3-2.8c-2.2-.4-5.1,2.4-4.3,4.4.3.8.2,1.2-.4.9s-1-.2-1,.4-.7.8-1.5.5c-.8-.4-1.2-1-.9-1.5a.552.552,0,0,0-.5-.9c-.6,0-1.1-.7-1.1-1.5,0-2.1-2.3-1.9-3.7.5-1.3,1.9-1.3,1.9-3.6-.4a14.706,14.706,0,0,1-3-4c-.9-2.2-2-2-4.5.9-2.6,2.9-4.2,3.2-4.3.7,0-1-.3-1.2-.6-.5a2.1,2.1,0,0,1-1.9,1.3,1.453,1.453,0,0,0-1.4,1.5,1.538,1.538,0,0,1-1.5,1.5h-2.2c-1,0-1.2-3.9-.3-4.5.4-.2.1-2.8-.7-5.7a28.087,28.087,0,0,1-1.4-7.5c.1-2.8-1.9-4.1-3.1-1.9a2.9,2.9,0,0,1-2.1,1.6c-1.4,0-5,6.2-5,8.5,0,.8-.4,1.5-.9,1.5s-.7.3-.5.8c.3.4-.2,1.3-1,2.1-1.2,1.1-1.5,1-2-.9-.4-1.5-1.1-2-2.4-1.7-1.2.3-1.7.1-1.2-.6.4-.6-.1-.8-1.4-.5-2,.5-5.3-2.1-5.3-4.1,0-.5-.8-1.2-1.7-1.5-1.7-.7-3.3.9-3.3,3.1,0,.7-.9,1.3-2,1.3s-2,.6-2,1.2c0,.7-.5.5-1.1-.5-1-1.7-1.2-1.6-3.4.9-1.9,2.2-2.6,2.5-3.8,1.6-1.5-1.3-4.7-.6-4.7,1,0,.5-.9.7-1.9.3-1.3-.4-2.7.1-4.1,1.5l-2,2-2.1-3.4c-1.4-2.4-2.5-3.3-3.8-2.9-2.3.6-6.1,4-6.1,5.3a.945.945,0,0,1-1,1c-.5,0-1-.7-1-1.5,0-1.8-1.2-1.9-2.8-.3-1.3,1.3-4.2-.6-4.2-2.8,0-2.1-.9-1.7-3.6,1.6-2.2,2.6-2.8,2.8-4,1.6a4.722,4.722,0,0,1-1.4-2.4c0-.6-.7-1.2-1.5-1.6a2.408,2.408,0,0,1-1.5-2.1c0-.8-.4-1.5-1-1.5-.5,0-1-.8-1-1.8a13.51,13.51,0,0,0-2.5-4.7c-2.4-2.9-2.5-2.9-4-1a65.686,65.686,0,0,0-3.6,6.2c-1.1,2.4-2.5,4.3-3,4.3-.6,0-.8.4-.4.9a1.129,1.129,0,0,1-.4,1.5c-.5.3-1.2-.6-1.6-2.2l-.7-2.7L212-50.3c-1,1.3-2.2,2.3-2.7,2.3s-1.6,1.2-2.5,2.7l-1.7,2.8-1.2-3c-1.7-4.2-1.9-5.5-.7-5.5.6,0,.5-.6-.2-1.5-.7-.8-.9-1.5-.6-1.5.4,0-.3-1.4-1.5-3.1l-2.2-3.2-2.3,2.7c-2.4,2.7-4.4,3.4-4.4,1.5,0-1-1.3-2.9-6.5-9.5l-2-2.5L181.3-66,179-64l-1.2-2C176.4-68.3,174-68.6,172.2-66.8Z" fill="#fff"/>
    </g>
    <g id="treeline-png-5" data-name="treeline-png" transform="translate(1794 68.1)">
      <path id="Path_16-4" data-name="Path 16" d="M172.2-66.8a3.923,3.923,0,0,0-1.2,2.4c0,.6-.9,1.4-2.1,1.7s-1.8,1-1.4,1.6c.3.6,0,1.1-.8,1.1s-1.8,1.1-2.1,2.5c-.4,1.4-1,2.5-1.5,2.5s-.7.9-.4,2c.4,1.4,0,2-1.1,2-1.8,0-2.2,1.5-.6,2.5a1.216,1.216,0,0,1,.5,1.6c-.9,1.3-2.2,1.1-2.3-.4,0-.6-.3-3-.6-5.2s-.5-4.4-.5-4.8c-.1-.5-.5-.5-1.1-.2-1.3.8-1.3-.8,0-2.1.8-.8.6-1.5-.6-2.4-1.4-1.2-1.7-1.2-2.5.3a3.746,3.746,0,0,1-2.4,1.7,1.411,1.411,0,0,0-1.2,2.3c.1.2-.6,1.1-1.5,2.1A6.165,6.165,0,0,0,147-52c0,1.9-2.5,5-4.1,5-.5,0-.9-.7-.9-1.5,0-1.8-1.2-1.9-2.9-.3-1,1.1-1.1,1-.6-.5.7-1.8-.9-2.4-2-.8-.3.5-2,.8-3.9.5-2.8-.3-3.5,0-3.9,1.7-.3,1.2-1,1.8-1.6,1.5a1.711,1.711,0,0,1-.6-1.9A3.4,3.4,0,0,0,126-51c-.8-1.3-1.4-1-3.5,1.5-1.6,1.7-2.4,3.7-2.1,4.8.4,1.7.3,1.8-2.2.1-2.5-1.6-2.6-1.6-4.8,1.1l-2.2,2.8-.7-2.4c-1.2-3.8-3.1-5.2-5.5-3.9-1.1.6-2,1.5-2,2a1.028,1.028,0,0,1-1.1,1c-.5,0-.7-.5-.4-1,.3-.6.1-1-.5-1s-.8-.5-.5-1c.3-.6.1-1-.4-1-.6,0-1.1-.7-1.1-1.5,0-2.6-4,.6-4.7,3.7C94-44.2,93.2-43,92.5-43c-2.4,0-4.5-1.2-4.5-2.6,0-.8-.3-1.4-.8-1.4-1,0-4.2,3.8-4.2,5,0,.6-.7,1.3-1.6,1.7a1.436,1.436,0,0,0-1,1.8c.2.7-.4,2.2-1.5,3.4-1.8,1.9-2.2,2-3.5.6-.9-.8-2-1.3-2.5-1-.5.4-.5-.3,0-1.7.7-1.9.3-2.5-2.3-3.9s-3.2-1.4-4.4-.2c-2.1,2-4.5,1.2-5.2-1.7a3.761,3.761,0,0,0-2.3-2.8c-2.2-.4-5.1,2.4-4.3,4.4.3.8.2,1.2-.4.9s-1-.2-1,.4-.7.8-1.5.5c-.8-.4-1.2-1-.9-1.5a.552.552,0,0,0-.5-.9c-.6,0-1.1-.7-1.1-1.5,0-2.1-2.3-1.9-3.7.5-1.3,1.9-1.3,1.9-3.6-.4a14.707,14.707,0,0,1-3-4c-.9-2.2-2-2-4.5.9-2.6,2.9-4.2,3.2-4.3.7,0-1-.3-1.2-.6-.5A2.1,2.1,0,0,1,27.4-45,1.367,1.367,0,0,0,26-43.6c0,1.8-3.5,2.7-5,1.2-.9-.8-1.6-.5-3.1,1.3-1,1.2-1.7,2.7-1.4,3.1s-.9,1.3-2.5,2-2.8,1.5-2.6,1.9c.2.3-.6.6-1.9.6-1.6,0-2-.3-1.4-1.1a1.838,1.838,0,0,0-.4-2.6,9.257,9.257,0,0,1-2.1-3.6C5.2-42,4.3-43,3.6-43,.4-43,0-40.6,0-20.3V0H600l-.1-20.3c0-11.1-.3-19.6-.6-19-.5,1.5-3.3,1.8-3.3.4a2.014,2.014,0,0,1,1.1-1.6,1.674,1.674,0,0,0,.5-2c-.2-.7-.2-1.6.2-1.9,1-1.1,1.1-3.6,0-3.6-.6,0-.8-.7-.4-1.5a3.106,3.106,0,0,0-.9-2.9,5.078,5.078,0,0,1-1.5-2.4c0-.6-.8-1.3-1.7-1.6-1.7-.7-3.3.9-3.3,3.1a1.476,1.476,0,0,1-1.6,1.3c-1,0-1.4.6-1,1.5.8,2.3-1.2,1.8-2.4-.6-1.1-2-1.2-2-3.5.7-2,2.3-2.6,2.5-3.9,1.5a2.718,2.718,0,0,0-2.8-.5c-3,1.9-6.8,5.8-6.8,7.1,0,2-1.7,1.6-2.3-.6-.4-1.5-1-1.8-2.8-1.4-1.7.5-2.1.3-1.7-.8a4.2,4.2,0,0,0-.8-3.4c-1.2-1.6-1.7-1.7-3.8-.6a9.779,9.779,0,0,0-3.5,3.5c-3.7,6.7-4.1,7.2-4.1,5,0-1.1-1.1-3.1-2.5-4.4s-2.5-2.9-2.5-3.7c0-2-.9-1.6-3.6,1.7-2.2,2.6-2.8,2.8-4,1.6a4.722,4.722,0,0,1-1.4-2.4c0-.6-.7-1.2-1.5-1.6a2.408,2.408,0,0,1-1.5-2.1c0-.8-.4-1.5-1-1.5-.5,0-1-.8-1-1.8a13.51,13.51,0,0,0-2.5-4.7c-2.4-2.9-2.5-2.9-4-1a65.693,65.693,0,0,0-3.6,6.2c-1.1,2.4-2.5,4.3-3,4.3-.6,0-.8.4-.4.9a1.129,1.129,0,0,1-.4,1.5c-.5.3-1.2-.6-1.6-2.2l-.7-2.7L512-50.3c-1,1.3-2.2,2.3-2.7,2.3s-1.6,1.2-2.5,2.7l-1.7,2.8-1.2-3c-1.7-4.2-1.9-5.5-.7-5.5.6,0,.5-.6-.2-1.5-.7-.8-.9-1.5-.6-1.5.4,0-.3-1.4-1.5-3.1l-2.2-3.2-2.3,2.7c-2.4,2.7-4.4,3.4-4.4,1.5,0-1-1.3-2.9-6.5-9.5l-2-2.5-2.2,2L479.1-64l-1.5-2.1c-1.7-2.6-4.8-2.2-6.1.8a5.243,5.243,0,0,1-2.8,2.7c-1.1.2-1.6.9-1.2,1.5.3.6,0,1.1-.8,1.1s-1.8,1.1-2.1,2.5c-.4,1.4-1,2.5-1.5,2.5s-.7.9-.4,2c.3,1.2,0,2-.7,2-1.4,0-4.1-2.6-3.9-3.7.3-2-.2-3.4-1.1-2.8-1.3.8-1.3-.8,0-2.1.8-.8.6-1.5-.6-2.4-1.4-1.2-1.7-1.2-2.5.3a3.746,3.746,0,0,1-2.4,1.7c-.8,0-1.5.4-1.5,1v1.5a13.136,13.136,0,0,1-2.5,3.3c-1.4,1.6-3.2,3.7-4,4.8-1,1.3-1.4,1.4-1.5.5,0-.7-.6-1.1-1.4-.8s-1.7.1-1.9-.6c-.3-.9-.7-.9-1.8-.1-.8.7-2.8,1-4.5.8-2.5-.3-3.3.1-3.7,1.7-.3,1.2-1,1.8-1.6,1.5a1.711,1.711,0,0,1-.6-1.9A3.4,3.4,0,0,0,426-51c-.9-1.3-1.2-1.3-2.3.1a2.584,2.584,0,0,1-2.4,1.2,1.522,1.522,0,0,0-1.9,1.1c-.3.9-1,1.4-1.4,1.1-.5-.3-1.9.8-3.2,2.3-2.2,2.6-4.8,3.2-4.8,1.1a8.314,8.314,0,0,0-2.1-3.3c-2.1-2.4-2.1-2.4-4-.5-2,2-4.5,2.6-3.4.9.3-.6.1-1-.4-1-.6,0-1.1-.7-1.1-1.6,0-1.4-.3-1.4-1.6-.4-1.3,1.1-1.6,1-2.1-.8-.3-1.2-.9-2.2-1.4-2.2s-.9-.9-.9-2a3.516,3.516,0,0,0-1.3-2.7,5.366,5.366,0,0,1-2-2.6c-.9-2.5-2-2.1-4,1.3-1,1.6-2.2,3-2.8,3-.5,0-.9.9-.9,1.9,0,2.8-1.1,5.2-2.1,4.5-.5-.3-.9.2-.9,1,0,.9-.5,1.6-1.1,1.6-.5,0-.7-.5-.4-1a2.452,2.452,0,0,0-.5-2.5c-1-1.2-1.7-.9-4.6,2-1.9,2-3.4,4.3-3.4,5.2s-.3,1.4-.6,1c-.4-.3-1.3.1-2.1.9-2.1,2.1-4.6,1.4-5.3-1.6a3.761,3.761,0,0,0-2.3-2.8c-2.2-.4-5.1,2.4-4.3,4.4.3.8.2,1.2-.4.9s-1-.2-1,.4-.7.8-1.5.5c-.8-.4-1.2-1-.9-1.5a.552.552,0,0,0-.5-.9c-.6,0-1.1-.7-1.1-1.5,0-2.1-2.3-1.9-3.7.5-1.3,1.9-1.3,1.9-3.6-.4a14.706,14.706,0,0,1-3-4c-.9-2.2-2-2-4.5.9-2.6,2.9-4.2,3.2-4.3.7,0-1-.3-1.2-.6-.5a2.1,2.1,0,0,1-1.9,1.3,1.453,1.453,0,0,0-1.4,1.5,1.538,1.538,0,0,1-1.5,1.5h-2.2c-1,0-1.2-3.9-.3-4.5.4-.2.1-2.8-.7-5.7a28.087,28.087,0,0,1-1.4-7.5c.1-2.8-1.9-4.1-3.1-1.9a2.9,2.9,0,0,1-2.1,1.6c-1.4,0-5,6.2-5,8.5,0,.8-.4,1.5-.9,1.5s-.7.3-.5.8c.3.4-.2,1.3-1,2.1-1.2,1.1-1.5,1-2-.9-.4-1.5-1.1-2-2.4-1.7-1.2.3-1.7.1-1.2-.6.4-.6-.1-.8-1.4-.5-2,.5-5.3-2.1-5.3-4.1,0-.5-.8-1.2-1.7-1.5-1.7-.7-3.3.9-3.3,3.1,0,.7-.9,1.3-2,1.3s-2,.6-2,1.2c0,.7-.5.5-1.1-.5-1-1.7-1.2-1.6-3.4.9-1.9,2.2-2.6,2.5-3.8,1.6-1.5-1.3-4.7-.6-4.7,1,0,.5-.9.7-1.9.3-1.3-.4-2.7.1-4.1,1.5l-2,2-2.1-3.4c-1.4-2.4-2.5-3.3-3.8-2.9-2.3.6-6.1,4-6.1,5.3a.945.945,0,0,1-1,1c-.5,0-1-.7-1-1.5,0-1.8-1.2-1.9-2.8-.3-1.3,1.3-4.2-.6-4.2-2.8,0-2.1-.9-1.7-3.6,1.6-2.2,2.6-2.8,2.8-4,1.6a4.722,4.722,0,0,1-1.4-2.4c0-.6-.7-1.2-1.5-1.6a2.408,2.408,0,0,1-1.5-2.1c0-.8-.4-1.5-1-1.5-.5,0-1-.8-1-1.8a13.51,13.51,0,0,0-2.5-4.7c-2.4-2.9-2.5-2.9-4-1a65.686,65.686,0,0,0-3.6,6.2c-1.1,2.4-2.5,4.3-3,4.3-.6,0-.8.4-.4.9a1.129,1.129,0,0,1-.4,1.5c-.5.3-1.2-.6-1.6-2.2l-.7-2.7L212-50.3c-1,1.3-2.2,2.3-2.7,2.3s-1.6,1.2-2.5,2.7l-1.7,2.8-1.2-3c-1.7-4.2-1.9-5.5-.7-5.5.6,0,.5-.6-.2-1.5-.7-.8-.9-1.5-.6-1.5.4,0-.3-1.4-1.5-3.1l-2.2-3.2-2.3,2.7c-2.4,2.7-4.4,3.4-4.4,1.5,0-1-1.3-2.9-6.5-9.5l-2-2.5L181.3-66,179-64l-1.2-2C176.4-68.3,174-68.6,172.2-66.8Z" fill="#fff"/>
    </g>
  </g>
</svg>
